SplineFontDB: 3.0
FontName: BokosukaMonster
FullName: BokosukaMonster
FamilyName: BokosukaMonster
Weight: Book
Version: 1.0
ItalicAngle: 0
UnderlinePosition: -150
UnderlineWidth: 50
Ascent: 800
Descent: 200
InvalidEm: 0
sfntRevision: 0x00010000
LayerCount: 2
Layer: 0 1 "Back" 1
Layer: 1 1 "Fore" 0
HasVMetrics: 1
XUID: [1021 227 304575 31420]
StyleMap: 0x0000
FSType: 0
OS2Version: 1
OS2_WeightWidthSlopeOnly: 0
OS2_UseTypoMetrics: 0
CreationTime: 1522904940
ModificationTime: 1522905531
PfmFamily: 17
TTFWeight: 400
TTFWidth: 5
LineGap: 90
VLineGap: 90
Panose: 2 0 5 3 0 0 0 0 0 0
OS2TypoAscent: 800
OS2TypoAOffset: 0
OS2TypoDescent: -200
OS2TypoDOffset: 0
OS2TypoLinegap: 90
OS2WinAscent: 1080
OS2WinAOffset: 0
OS2WinDescent: 120
OS2WinDOffset: 0
HheadAscent: 879
HheadAOffset: 0
HheadDescent: -114
HheadDOffset: 0
OS2SubXSize: 650
OS2SubYSize: 699
OS2SubXOff: 0
OS2SubYOff: 140
OS2SupXSize: 650
OS2SupYSize: 699
OS2SupXOff: 0
OS2SupYOff: 479
OS2StrikeYSize: 49
OS2StrikeYPos: 258
OS2Vendor: 'PfEd'
OS2CodePages: 00120004.00000000
OS2UnicodeRanges: 800002c7.68c7fc7c.00000012.00000000
DEI: 91125
ShortTable: maxp 16
  1
  0
  9356
  75
  6
  0
  0
  2
  0
  1
  1
  0
  64
  0
  0
  0
EndShort
LangName: 1033 "" "" "Regular" "FontForge 2.0 : BokosukaMonster : 4-4-2018" "" "Version 1.0"
GaspTable: 1 65535 2 0
Encoding: UnicodeBmp
UnicodeInterp: none
NameList: AGL For New Fonts
DisplaySize: -48
AntiAlias: 1
FitToEm: 0
WinInfo: 12328 23 14
BeginChars: 66964 9356

StartChar: Japan1.634
Encoding: 12289 12289 636
Width: 1000
GlyphClass: 2
Flags: W
LayerCount: 2
Fore
SplineSet
83 188 m 1,0,-1
 204 286 l 1,1,2
 405 43 405 43 405 37 c 0,3,4
 405 36 405 36 371 14 c 128,-1,5
 337 -8 337 -8 302.5 -30 c 128,-1,6
 268 -52 268 -52 266 -55 c 1,7,8
 183 69 183 69 83 188 c 1,0,-1
EndSplineSet
EndChar

StartChar: Japan1.635
Encoding: 12290 12290 637
Width: 1000
GlyphClass: 2
Flags: W
LayerCount: 2
Fore
SplineSet
67 118 m 128,-1,1
 67 192 67 192 120 244.5 c 128,-1,2
 173 297 173 297 247 297 c 0,3,4
 320 297 320 297 373 244.5 c 128,-1,5
 426 192 426 192 426 118 c 128,-1,6
 426 44 426 44 373 -8.5 c 128,-1,7
 320 -61 320 -61 247 -61 c 0,8,9
 173 -61 173 -61 120 -8.5 c 128,-1,0
 67 44 67 44 67 118 c 128,-1,1
181 118 m 0,10,11
 181 90 181 90 200 70.5 c 128,-1,12
 219 51 219 51 247 51 c 0,13,14
 274 51 274 51 293 70.5 c 128,-1,15
 312 90 312 90 312 118 c 0,16,17
 312 145 312 145 293 164 c 128,-1,18
 274 183 274 183 247 183 c 0,19,20
 219 183 219 183 200 164 c 128,-1,21
 181 145 181 145 181 118 c 0,10,11
EndSplineSet
EndChar

StartChar: Japan1.660
Encoding: 12540 12540 662
Width: 1000
GlyphClass: 2
Flags: W
LayerCount: 2
Fore
SplineSet
948 500 m 1,0,-1
 948 260 l 1,1,-1
 72 260 l 1,2,-1
 72 500 l 1,3,-1
 948 500 l 1,0,-1
EndSplineSet
EndChar

StartChar: Japan1.661
Encoding: 8213 8213 663
Width: 1000
GlyphClass: 2
Flags: W
LayerCount: 2
Fore
SplineSet
948 500 m 1,0,-1
 948 260 l 1,1,-1
 72 260 l 1,2,-1
 72 500 l 1,3,-1
 948 500 l 1,0,-1
EndSplineSet
EndChar

StartChar: Japan1.662
Encoding: 8208 8208 664
Width: 1000
GlyphClass: 2
Flags: W
LayerCount: 2
Fore
SplineSet
612 436 m 1,0,-1
 612 324 l 1,1,-1
 380 324 l 1,2,-1
 380 436 l 1,3,-1
 612 436 l 1,0,-1
EndSplineSet
EndChar

StartChar: Japan1.668
Encoding: 8230 8230 670
Width: 1000
GlyphClass: 2
Flags: W
LayerCount: 2
Fore
SplineSet
277 364 m 128,-1,1
 277 325 277 325 249 297 c 128,-1,2
 221 269 221 269 182 269 c 0,3,4
 142 269 142 269 114 297 c 128,-1,5
 86 325 86 325 86 364 c 128,-1,6
 86 403 86 403 114 431 c 128,-1,7
 142 459 142 459 182 459 c 0,8,9
 221 459 221 459 249 431 c 128,-1,0
 277 403 277 403 277 364 c 128,-1,1
593 364 m 128,-1,11
 593 325 593 325 565 297 c 128,-1,12
 537 269 537 269 498 269 c 0,13,14
 458 269 458 269 430 297 c 128,-1,15
 402 325 402 325 402 364 c 128,-1,16
 402 403 402 403 430 431 c 128,-1,17
 458 459 458 459 498 459 c 0,18,19
 537 459 537 459 565 431 c 128,-1,10
 593 403 593 403 593 364 c 128,-1,11
913 364 m 128,-1,21
 913 325 913 325 885 297 c 128,-1,22
 857 269 857 269 818 269 c 0,23,24
 778 269 778 269 750 297 c 128,-1,25
 722 325 722 325 722 364 c 128,-1,26
 722 403 722 403 750 431 c 128,-1,27
 778 459 778 459 818 459 c 0,28,29
 857 459 857 459 885 431 c 128,-1,20
 913 403 913 403 913 364 c 128,-1,21
EndSplineSet
EndChar

StartChar: Japan1.669
Encoding: 8229 8229 671
Width: 1000
GlyphClass: 2
Flags: W
LayerCount: 2
Fore
SplineSet
429 364 m 128,-1,1
 429 325 429 325 401 297 c 128,-1,2
 373 269 373 269 334 269 c 0,3,4
 294 269 294 269 266 297 c 128,-1,5
 238 325 238 325 238 364 c 128,-1,6
 238 403 238 403 266 431 c 128,-1,7
 294 459 294 459 334 459 c 0,8,9
 373 459 373 459 401 431 c 128,-1,0
 429 403 429 403 429 364 c 128,-1,1
745 364 m 128,-1,11
 745 325 745 325 717 297 c 128,-1,12
 689 269 689 269 650 269 c 0,13,14
 610 269 610 269 582 297 c 128,-1,15
 554 325 554 325 554 364 c 128,-1,16
 554 403 554 403 582 431 c 128,-1,17
 610 459 610 459 650 459 c 0,18,19
 689 459 689 459 717 431 c 128,-1,10
 745 403 745 403 745 364 c 128,-1,11
EndSplineSet
EndChar

StartChar: Japan1.686
Encoding: 12300 12300 688
Width: 1000
GlyphClass: 2
Flags: W
LayerCount: 2
Fore
SplineSet
936 836 m 1,0,-1
 936 650 l 1,1,-1
 721 650 l 1,2,-1
 721 -51 l 1,3,-1
 535 -51 l 1,4,-1
 535 836 l 1,5,-1
 936 836 l 1,0,-1
EndSplineSet
EndChar

StartChar: Japan1.687
Encoding: 12301 12301 689
Width: 1000
GlyphClass: 2
Flags: W
LayerCount: 2
Fore
SplineSet
24 -96 m 1,0,-1
 24 90 l 1,1,-1
 239 90 l 1,2,-1
 239 779 l 1,3,-1
 425 779 l 1,4,-1
 425 -96 l 1,5,-1
 24 -96 l 1,0,-1
EndSplineSet
EndChar

StartChar: Japan1.688
Encoding: 12302 12302 690
Width: 1000
GlyphClass: 2
Flags: W
LayerCount: 2
Fore
SplineSet
968 701 m 1,0,-1
 794 701 l 1,1,-1
 794 -54 l 1,2,-1
 678 -54 l 1,3,-1
 678 814 l 1,4,-1
 968 814 l 1,5,-1
 968 701 l 1,0,-1
938 784 m 1,6,-1
 708 784 l 1,7,-1
 708 -24 l 1,8,-1
 764 -24 l 1,9,-1
 764 731 l 1,10,-1
 938 731 l 1,11,-1
 938 784 l 1,6,-1
EndSplineSet
EndChar

StartChar: Japan1.689
Encoding: 12303 12303 691
Width: 1000
GlyphClass: 2
Flags: W
LayerCount: 2
Fore
SplineSet
24 19 m 1,0,-1
 198 19 l 1,1,-1
 198 770 l 1,2,-1
 314 770 l 1,3,-1
 314 -94 l 1,4,-1
 24 -94 l 1,5,-1
 24 19 l 1,0,-1
54 -64 m 1,6,-1
 284 -64 l 1,7,-1
 284 740 l 1,8,-1
 228 740 l 1,9,-1
 228 -11 l 1,10,-1
 54 -11 l 1,11,-1
 54 -64 l 1,6,-1
EndSplineSet
EndChar

StartChar: Japan1.740
Encoding: 12307 12307 742
Width: 1000
GlyphClass: 2
Flags: W
LayerCount: 2
Fore
SplineSet
811 714 m 1,0,-1
 811 455 l 1,1,-1
 189 455 l 1,2,-1
 189 714 l 1,3,-1
 811 714 l 1,0,-1
811 305 m 1,4,-1
 811 46 l 1,5,-1
 189 46 l 1,6,-1
 189 305 l 1,7,-1
 811 305 l 1,4,-1
EndSplineSet
EndChar

StartChar: Japan1.842
Encoding: 12353 12353 844
Width: 1000
GlyphClass: 2
Flags: W
LayerCount: 2
Fore
SplineSet
803 -57 m 1,0,-1
 608 -33 l 1,1,2
 669 34 669 34 692.5 93 c 128,-1,3
 716 152 716 152 703 186 c 1,4,5
 689 142 689 142 667.5 104 c 128,-1,6
 646 66 646 66 613.5 30.5 c 128,-1,7
 581 -5 581 -5 532.5 -29.5 c 128,-1,8
 484 -54 484 -54 425 -63 c 0,9,10
 319 -78 319 -78 238 -34 c 128,-1,11
 157 10 157 10 135 95 c 0,12,13
 121 148 121 148 136 202 c 128,-1,14
 151 256 151 256 202.5 306.5 c 128,-1,15
 254 357 254 357 337 388 c 1,16,-1
 337 411 l 1,17,-1
 191 394 l 1,18,-1
 171 563 l 1,19,-1
 337 582 l 1,20,-1
 337 628 l 1,21,-1
 516 628 l 1,22,-1
 516 603 l 1,23,-1
 737 628 l 1,24,-1
 757 458 l 1,25,-1
 516 431 l 1,26,-1
 516 427 l 1,27,28
 626 434 626 434 715.5 401.5 c 128,-1,29
 805 369 805 369 846 312 c 0,30,31
 896 240 896 240 883.5 142.5 c 128,-1,32
 871 45 871 45 803 -57 c 1,0,-1
516 258 m 1,33,-1
 516 178 l 1,34,35
 541 212 541 212 554 259 c 1,36,37
 549 259 549 259 536.5 258.5 c 128,-1,38
 524 258 524 258 516 258 c 1,33,-1
339 106 m 1,39,-1
 339 201 l 1,40,41
 314 183 314 183 303.5 164.5 c 128,-1,42
 293 146 293 146 301.5 130 c 128,-1,43
 310 114 310 114 339 106 c 1,39,-1
EndSplineSet
EndChar

StartChar: Japan1.843
Encoding: 12354 12354 845
Width: 1000
GlyphClass: 2
Flags: W
LayerCount: 2
Fore
SplineSet
848 -70 m 1,0,-1
 646 -3 l 1,1,2
 676 32 676 32 700 69.5 c 128,-1,3
 724 107 724 107 739.5 146 c 128,-1,4
 755 185 755 185 755 220.5 c 128,-1,5
 755 256 755 256 735 280 c 1,6,7
 721 240 721 240 704 203 c 128,-1,8
 687 166 687 166 658.5 123.5 c 128,-1,9
 630 81 630 81 595.5 48.5 c 128,-1,10
 561 16 561 16 511.5 -11.5 c 128,-1,11
 462 -39 462 -39 405 -51 c 0,12,13
 281 -77 281 -77 183 -34.5 c 128,-1,14
 85 8 85 8 54 105 c 0,15,16
 16 223 16 223 92.5 327.5 c 128,-1,17
 169 432 169 432 311 486 c 1,18,-1
 311 535 l 1,19,-1
 103 511 l 1,20,-1
 89 701 l 1,21,-1
 311 727 l 1,22,-1
 311 793 l 1,23,-1
 510 793 l 1,24,-1
 510 750 l 1,25,-1
 793 783 l 1,26,-1
 808 593 l 1,27,-1
 510 558 l 1,28,-1
 510 530 l 1,29,30
 636 538 636 538 744 501 c 128,-1,31
 852 464 852 464 908 389 c 0,32,33
 973 302 973 302 957 180 c 128,-1,34
 941 58 941 58 848 -70 c 1,0,-1
506 346 m 1,35,-1
 506 216 l 1,36,37
 541 272 541 272 568 347 c 1,38,39
 548 348 548 348 506 346 c 1,35,-1
314 118 m 1,40,-1
 314 289 l 1,41,42
 273 256 273 256 260 216 c 128,-1,43
 247 176 247 176 262.5 148 c 128,-1,44
 278 120 278 120 314 118 c 1,40,-1
EndSplineSet
EndChar

StartChar: Japan1.844
Encoding: 12355 12355 846
Width: 1000
GlyphClass: 2
Flags: W
LayerCount: 2
Fore
SplineSet
509 167 m 1,0,-1
 522 -47 l 1,1,2
 471 -63 471 -63 426 -63 c 0,3,4
 365 -63 365 -63 313 -38 c 0,5,6
 253 -10 253 -10 212 47.5 c 128,-1,7
 171 105 171 105 157 181 c 0,8,9
 152 211 152 211 148.5 246 c 128,-1,10
 145 281 145 281 143.5 325.5 c 128,-1,11
 142 370 142 370 141.5 393 c 128,-1,12
 141 416 141 416 141.5 468 c 128,-1,13
 142 520 142 520 142 524 c 2,14,-1
 142 566 l 1,15,-1
 357 566 l 1,16,-1
 357 520 l 2,17,18
 357 514 357 514 356.5 456.5 c 128,-1,19
 356 399 356 399 356.5 370 c 128,-1,20
 357 341 357 341 359.5 295.5 c 128,-1,21
 362 250 362 250 368 220 c 0,22,23
 379 163 379 163 415.5 152.5 c 128,-1,24
 452 142 452 142 509 167 c 1,0,-1
876 98 m 1,25,-1
 660 119 l 1,26,27
 691 243 691 243 648 298 c 0,28,29
 628 323 628 323 596.5 334.5 c 128,-1,30
 565 346 565 346 544 346 c 1,31,-1
 544 561 l 1,32,33
 615 561 615 561 690.5 529 c 128,-1,34
 766 497 766 497 818 431 c 0,35,36
 917 302 917 302 876 98 c 1,25,-1
EndSplineSet
EndChar

StartChar: Japan1.845
Encoding: 12356 12356 847
Width: 1000
GlyphClass: 2
Flags: W
LayerCount: 2
Fore
SplineSet
506 227 m 1,0,-1
 523 -25 l 1,1,2
 379 -70 379 -70 264 -15 c 0,3,4
 225 4 225 4 193.5 30 c 128,-1,5
 162 56 162 56 140.5 92 c 128,-1,6
 119 128 119 128 103.5 163 c 128,-1,7
 88 198 88 198 79.5 248.5 c 128,-1,8
 71 299 71 299 65.5 338 c 128,-1,9
 60 377 60 377 59 437.5 c 128,-1,10
 58 498 58 498 58 537.5 c 128,-1,11
 58 577 58 577 59 643 c 128,-1,12
 60 709 60 709 60 746 c 1,13,-1
 307 746 l 1,14,15
 307 737 307 737 306 665.5 c 128,-1,16
 305 594 305 594 304.5 537.5 c 128,-1,17
 304 481 304 481 308 407.5 c 128,-1,18
 312 334 312 334 320 289 c 0,19,20
 347 141 347 141 506 227 c 1,0,-1
948 93 m 1,21,-1
 698 116 l 1,22,23
 733 291 733 291 688 394.5 c 128,-1,24
 643 498 643 498 549 498 c 1,25,-1
 549 737 l 1,26,27
 641 737 641 737 723.5 695.5 c 128,-1,28
 806 654 806 654 868 573 c 128,-1,29
 930 492 930 492 953 371.5 c 128,-1,30
 976 251 976 251 948 93 c 1,21,-1
EndSplineSet
EndChar

StartChar: Japan1.846
Encoding: 12357 12357 848
Width: 1000
GlyphClass: 2
Flags: W
LayerCount: 2
Fore
SplineSet
558 663 m 1,0,-1
 579 556 l 1,1,2
 659 545 659 545 720 511 c 128,-1,3
 781 477 781 477 815 429.5 c 128,-1,4
 849 382 849 382 853.5 322 c 128,-1,5
 858 262 858 262 831.5 203 c 128,-1,6
 805 144 805 144 738 85 c 128,-1,7
 671 26 671 26 569 -19 c 0,8,9
 476 -60 476 -60 333 -70 c 1,10,-1
 319 138 l 1,11,12
 410 145 410 145 491 176 c 0,13,14
 592 214 592 214 612 271 c 0,15,16
 628 314 628 314 587 337 c 0,17,18
 560 353 560 353 518 351 c 0,19,20
 384 346 384 346 194 277 c 1,21,-1
 123 473 l 1,22,23
 244 517 244 517 367 541 c 1,24,-1
 348 611 l 1,25,-1
 558 663 l 1,0,-1
EndSplineSet
EndChar

StartChar: Japan1.847
Encoding: 12358 12358 849
Width: 1000
GlyphClass: 2
Flags: W
LayerCount: 2
Fore
SplineSet
580 826 m 1,0,-1
 616 688 l 1,1,2
 737 674 737 674 825 608.5 c 128,-1,3
 913 543 913 543 935 432 c 0,4,5
 947 371 947 371 931.5 306.5 c 128,-1,6
 916 242 916 242 868.5 179.5 c 128,-1,7
 821 117 821 117 748 66 c 128,-1,8
 675 15 675 15 563.5 -20.5 c 128,-1,9
 452 -56 452 -56 318 -65 c 1,10,-1
 303 171 l 1,11,12
 361 175 361 175 428.5 193 c 128,-1,13
 496 211 496 211 556 238 c 128,-1,14
 616 265 616 265 652.5 305 c 128,-1,15
 689 345 689 345 680 387 c 0,16,17
 673 422 673 422 637.5 439 c 128,-1,18
 602 456 602 456 547.5 454 c 128,-1,19
 493 452 493 452 434.5 443 c 128,-1,20
 376 434 376 434 309 415.5 c 128,-1,21
 242 397 242 397 197 382.5 c 128,-1,22
 152 368 152 368 110 353 c 1,23,-1
 40 580 l 1,24,25
 199 638 199 638 368 669 c 1,26,-1
 339 774 l 1,27,-1
 580 826 l 1,0,-1
EndSplineSet
EndChar

StartChar: Japan1.848
Encoding: 12359 12359 850
Width: 1000
GlyphClass: 2
Flags: W
LayerCount: 2
Fore
SplineSet
833 270 m 1,0,-1
 901 74 l 1,1,2
 803 -9 803 -9 706.5 -47 c 128,-1,3
 610 -85 610 -85 516.5 -61 c 128,-1,4
 423 -37 423 -37 362 62 c 1,5,-1
 165 -58 l 1,6,-1
 83 138 l 1,7,-1
 441 338 l 1,8,-1
 185 338 l 1,9,-1
 185 512 l 1,10,-1
 380 512 l 1,11,-1
 353 607 l 1,12,-1
 559 664 l 1,13,-1
 597 512 l 1,14,-1
 754 512 l 1,15,-1
 804 330 l 1,16,-1
 538 167 l 1,17,18
 550 148 550 148 565 137 c 128,-1,19
 580 126 580 126 598.5 126.5 c 128,-1,20
 617 127 617 127 634 130 c 128,-1,21
 651 133 651 133 675 147.5 c 128,-1,22
 699 162 699 162 715 172 c 128,-1,23
 731 182 731 182 757 204 c 128,-1,24
 783 226 783 226 795.5 237 c 128,-1,25
 808 248 808 248 833 270 c 1,0,-1
EndSplineSet
EndChar

StartChar: Japan1.849
Encoding: 12360 12360 851
Width: 1000
GlyphClass: 2
Flags: W
LayerCount: 2
Fore
SplineSet
907 316 m 1,0,-1
 1000 87 l 1,1,2
 910 12 910 12 825 -30 c 128,-1,3
 740 -72 740 -72 637 -74 c 0,4,5
 545 -75 545 -75 470.5 -28 c 128,-1,6
 396 19 396 19 352 100 c 1,7,-1
 112 -48 l 1,8,-1
 1 175 l 1,9,-1
 465 430 l 1,10,-1
 132 430 l 1,11,-1
 132 631 l 1,12,-1
 386 631 l 1,13,-1
 347 772 l 1,14,-1
 571 826 l 1,15,-1
 627 631 l 1,16,-1
 784 631 l 1,17,-1
 870 418 l 1,18,-1
 556 223 l 1,19,20
 583 179 583 179 632 176 c 0,21,22
 693 172 693 172 752 204.5 c 128,-1,23
 811 237 811 237 907 316 c 1,0,-1
EndSplineSet
EndChar

StartChar: Japan1.850
Encoding: 12361 12361 852
Width: 1000
GlyphClass: 2
Flags: W
LayerCount: 2
Fore
SplineSet
539 431 m 1,0,-1
 539 422 l 1,1,2
 673 421 673 421 754 362.5 c 128,-1,3
 835 304 835 304 859 213 c 0,4,5
 891 91 891 91 819 -63 c 1,6,-1
 622 -32 l 1,7,8
 694 96 694 96 676 163 c 0,9,10
 657 233 657 233 539 233 c 1,11,-1
 539 -29 l 1,12,13
 424 -56 424 -56 344 -54 c 128,-1,14
 264 -52 264 -52 214 -20 c 128,-1,15
 164 12 164 12 142 57.5 c 128,-1,16
 120 103 120 103 120 162 c 0,17,18
 120 247 120 247 185 306 c 128,-1,19
 250 365 250 365 350 395 c 1,20,-1
 350 409 l 1,21,-1
 210 393 l 1,22,-1
 191 564 l 1,23,-1
 350 582 l 1,24,-1
 350 634 l 1,25,-1
 539 634 l 1,26,-1
 539 604 l 1,27,-1
 595 611 l 1,28,-1
 614 440 l 1,29,-1
 539 431 l 1,0,-1
677 415 m 1,30,-1
 654 586 l 1,31,-1
 839 611 l 1,32,-1
 863 441 l 1,33,-1
 677 415 l 1,30,-1
354 127 m 1,34,-1
 354 196 l 1,35,36
 322 190 322 190 311 173 c 128,-1,37
 300 156 300 156 313 141.5 c 128,-1,38
 326 127 326 127 354 127 c 1,34,-1
EndSplineSet
EndChar

StartChar: Japan1.851
Encoding: 12362 12362 853
Width: 1000
GlyphClass: 2
Flags: W
LayerCount: 2
Fore
SplineSet
892 -55 m 1,0,-1
 662 -20 l 1,1,2
 706 56 706 56 724 116.5 c 128,-1,3
 742 177 742 177 733 223 c 128,-1,4
 724 269 724 269 677 292.5 c 128,-1,5
 630 316 630 316 546 314 c 1,6,-1
 546 -33 l 1,7,8
 273 -98 273 -98 137 4 c 0,9,10
 48 72 48 72 50 186 c 0,11,12
 51 295 51 295 131 378 c 0,13,14
 159 407 159 407 194 428 c 0,15,16
 256 466 256 466 336 489 c 1,17,-1
 336 527 l 1,18,-1
 142 502 l 1,19,-1
 129 696 l 1,20,-1
 336 719 l 1,21,-1
 336 792 l 1,22,-1
 546 792 l 1,23,-1
 546 744 l 1,24,-1
 635 754 l 1,25,-1
 650 563 l 1,26,-1
 546 551 l 1,27,-1
 546 519 l 1,28,29
 711 520 711 520 818 448 c 128,-1,30
 925 376 925 376 947.5 248 c 128,-1,31
 970 120 970 120 892 -55 c 1,0,-1
716 517 m 1,32,-1
 697 708 l 1,33,-1
 933 740 l 1,34,-1
 952 550 l 1,35,-1
 716 517 l 1,32,-1
336 138 m 1,36,-1
 336 271 l 1,37,38
 284 258 284 258 264.5 223.5 c 128,-1,39
 245 189 245 189 266.5 161.5 c 128,-1,40
 288 134 288 134 336 138 c 1,36,-1
EndSplineSet
EndChar

StartChar: Japan1.852
Encoding: 12363 12363 854
Width: 1000
GlyphClass: 2
Flags: W
LayerCount: 2
Fore
SplineSet
424 776 m 1,0,-1
 394 609 l 1,1,2
 484 609 484 609 554.5 574.5 c 128,-1,3
 625 540 625 540 663.5 481 c 128,-1,4
 702 422 702 422 713 344 c 128,-1,5
 724 266 724 266 696 178 c 0,6,7
 691 162 691 162 682.5 143 c 128,-1,8
 674 124 674 124 655 91 c 128,-1,9
 636 58 636 58 602.5 27 c 128,-1,10
 569 -4 569 -4 526 -23 c 0,11,12
 440 -60 440 -60 336 -45 c 1,13,-1
 371 165 l 1,14,15
 461 149 461 149 488 236 c 0,16,17
 508 302 508 302 484 353 c 128,-1,18
 460 404 460 404 394 404 c 2,19,-1
 357 404 l 1,20,-1
 274 -51 l 1,21,-1
 40 -51 l 1,22,-1
 128 404 l 1,23,-1
 37 404 l 1,24,-1
 37 609 l 1,25,-1
 164 609 l 1,26,-1
 194 776 l 1,27,-1
 424 776 l 1,0,-1
990 220 m 1,28,-1
 756 220 l 1,29,30
 743 452 743 452 648 722 c 1,31,-1
 893 722 l 1,32,33
 978 463 978 463 990 220 c 1,28,-1
EndSplineSet
EndChar

StartChar: Japan1.853
Encoding: 12364 12364 855
Width: 1000
GlyphClass: 2
Flags: W
LayerCount: 2
Fore
SplineSet
787 645 m 1,0,-1
 686 645 l 1,1,-1
 686 800 l 1,2,-1
 787 800 l 1,3,-1
 787 645 l 1,0,-1
925 645 m 1,4,-1
 825 645 l 1,5,-1
 825 800 l 1,6,-1
 925 800 l 1,7,-1
 925 645 l 1,4,-1
421 777 m 1,8,-1
 395 610 l 1,9,10
 486 610 486 610 556.5 575.5 c 128,-1,11
 627 541 627 541 665.5 482 c 128,-1,12
 704 423 704 423 715 345 c 128,-1,13
 726 267 726 267 698 179 c 0,14,15
 693 163 693 163 684.5 144 c 128,-1,16
 676 125 676 125 657 91.5 c 128,-1,17
 638 58 638 58 604 27 c 128,-1,18
 570 -4 570 -4 527 -23 c 0,19,20
 442 -60 442 -60 337 -45 c 1,21,-1
 372 166 l 1,22,23
 462 150 462 150 489 237 c 0,24,25
 509 303 509 303 485 354 c 128,-1,26
 461 405 461 405 395 405 c 2,27,-1
 358 405 l 1,28,-1
 275 -51 l 1,29,-1
 41 -51 l 1,30,-1
 129 405 l 1,31,-1
 38 405 l 1,32,-1
 38 610 l 1,33,-1
 165 610 l 1,34,-1
 195 777 l 1,35,-1
 421 777 l 1,8,-1
988 221 m 1,36,-1
 758 221 l 1,37,38
 758 315 758 315 745 394.5 c 128,-1,39
 732 474 732 474 687 603 c 1,40,-1
 928 603 l 1,41,42
 964 482 964 482 976 400.5 c 128,-1,43
 988 319 988 319 988 221 c 1,36,-1
EndSplineSet
EndChar

StartChar: Japan1.854
Encoding: 12365 12365 856
Width: 1000
GlyphClass: 2
Flags: W
LayerCount: 2
Fore
SplineSet
961 330 m 1,0,-1
 786 311 l 1,1,2
 801 256 801 256 826 181 c 1,3,-1
 593 148 l 1,4,5
 565 240 565 240 553 285 c 1,6,-1
 338 261 l 1,7,-1
 317 451 l 1,8,-1
 510 473 l 1,9,10
 508 487 508 487 502 517 c 1,11,-1
 145 479 l 1,12,-1
 124 669 l 1,13,-1
 479 707 l 1,14,15
 476 750 476 750 476 795 c 1,16,-1
 708 795 l 1,17,18
 708 752 708 752 710 732 c 1,19,-1
 918 755 l 1,20,-1
 939 564 l 1,21,-1
 733 542 l 1,22,23
 735 535 735 535 737.5 520 c 128,-1,24
 740 505 740 505 741 498 c 1,25,-1
 940 520 l 1,26,-1
 961 330 l 1,0,-1
56 305 m 1,27,-1
 285 305 l 1,28,29
 264 215 264 215 288 186 c 0,30,31
 300 170 300 170 339.5 162 c 128,-1,32
 379 154 379 154 409.5 153 c 128,-1,33
 440 152 440 152 495 152 c 0,34,35
 506 152 506 152 511 152 c 1,36,-1
 511 -62 l 1,37,38
 505 -62 505 -62 492 -62 c 0,39,40
 437 -62 437 -62 406 -61.5 c 128,-1,41
 375 -61 375 -61 321 -55 c 128,-1,42
 267 -49 267 -49 231.5 -38.5 c 128,-1,43
 196 -28 196 -28 157 -5.5 c 128,-1,44
 118 17 118 17 92 49 c 0,45,46
 30 126 30 126 56 305 c 1,27,-1
EndSplineSet
EndChar

StartChar: Japan1.855
Encoding: 12366 12366 857
Width: 1000
GlyphClass: 2
Flags: W
LayerCount: 2
Fore
SplineSet
839 696 m 1,0,-1
 739 696 l 1,1,-1
 739 851 l 1,2,-1
 839 851 l 1,3,-1
 839 696 l 1,0,-1
978 696 m 1,4,-1
 878 696 l 1,5,-1
 878 851 l 1,6,-1
 978 851 l 1,7,-1
 978 696 l 1,4,-1
957 330 m 1,8,-1
 936 520 l 1,9,-1
 737 498 l 1,10,11
 736 505 736 505 733.5 520 c 128,-1,12
 731 535 731 535 729 542 c 1,13,-1
 935 564 l 1,14,-1
 924 667 l 1,15,-1
 707 667 l 1,16,-1
 704 796 l 1,17,-1
 472 796 l 1,18,19
 472 750 472 750 475 707 c 1,20,-1
 120 669 l 1,21,-1
 141 479 l 1,22,-1
 498 517 l 1,23,24
 504 487 504 487 506 473 c 1,25,-1
 313 451 l 1,26,-1
 334 261 l 1,27,-1
 549 285 l 1,28,29
 561 240 561 240 589 148 c 1,30,-1
 822 181 l 1,31,32
 797 256 797 256 782 311 c 1,33,-1
 957 330 l 1,8,-1
507 -62 m 1,34,-1
 507 152 l 1,35,36
 502 152 502 152 491 152 c 0,37,38
 436 152 436 152 405.5 153 c 128,-1,39
 375 154 375 154 335.5 162 c 128,-1,40
 296 170 296 170 284 186 c 0,41,42
 260 216 260 216 281 305 c 1,43,-1
 52 305 l 1,44,45
 26 126 26 126 88 49 c 0,46,47
 114 17 114 17 153.5 -5.5 c 128,-1,48
 193 -28 193 -28 228 -38.5 c 128,-1,49
 263 -49 263 -49 317.5 -55 c 128,-1,50
 372 -61 372 -61 402 -61.5 c 128,-1,51
 432 -62 432 -62 488 -62 c 0,52,53
 501 -62 501 -62 507 -62 c 1,34,-1
EndSplineSet
EndChar

StartChar: Japan1.856
Encoding: 12367 12367 858
Width: 1000
GlyphClass: 2
Flags: W
LayerCount: 2
Fore
SplineSet
862 -9 m 1,0,-1
 575 -54 l 1,1,2
 559 7 559 7 512.5 62.5 c 128,-1,3
 466 118 466 118 414 155.5 c 128,-1,4
 362 193 362 193 295 226.5 c 128,-1,5
 228 260 228 260 186.5 276 c 128,-1,6
 145 292 145 292 103 306 c 1,7,-1
 459 797 l 1,8,-1
 768 797 l 1,9,-1
 473 402 l 1,10,11
 613 349 613 349 725 238 c 128,-1,12
 837 127 837 127 862 -9 c 1,0,-1
EndSplineSet
EndChar

StartChar: Japan1.857
Encoding: 12368 12368 859
Width: 1000
GlyphClass: 2
Flags: W
LayerCount: 2
Fore
SplineSet
868 -9 m 1,0,-1
 582 -54 l 1,1,2
 566 7 566 7 519.5 62.5 c 128,-1,3
 473 118 473 118 421 155.5 c 128,-1,4
 369 193 369 193 302 226.5 c 128,-1,5
 235 260 235 260 193.5 276 c 128,-1,6
 152 292 152 292 110 306 c 1,7,-1
 465 797 l 1,8,-1
 775 797 l 1,9,-1
 480 402 l 1,10,11
 620 349 620 349 732 238 c 128,-1,12
 844 127 844 127 868 -9 c 1,0,-1
787 430 m 1,13,-1
 686 430 l 1,14,-1
 686 585 l 1,15,-1
 787 585 l 1,16,-1
 787 430 l 1,13,-1
927 430 m 1,17,-1
 826 430 l 1,18,-1
 826 585 l 1,19,-1
 927 585 l 1,20,-1
 927 430 l 1,17,-1
EndSplineSet
EndChar

StartChar: Japan1.858
Encoding: 12369 12369 860
Width: 1000
GlyphClass: 2
Flags: W
LayerCount: 2
Fore
SplineSet
970 421 m 1,0,-1
 852 421 l 1,1,2
 845 164 845 164 734 -59 c 1,3,-1
 487 -6 l 1,4,5
 602 188 602 188 611 421 c 1,6,-1
 392 421 l 1,7,-1
 392 632 l 1,8,-1
 598 632 l 1,9,10
 584 721 584 721 565 779 c 1,11,-1
 812 788 l 1,12,13
 830 717 830 717 841 632 c 1,14,-1
 970 632 l 1,15,-1
 970 421 l 1,0,-1
397 293 m 1,16,-1
 415 56 l 1,17,18
 311 27 311 27 223 66 c 0,19,20
 163 92 163 92 121.5 144.5 c 128,-1,21
 80 197 80 197 67 263 c 0,22,23
 61 294 61 294 57 336.5 c 128,-1,24
 53 379 53 379 51.5 432 c 128,-1,25
 50 485 50 485 49.5 517.5 c 128,-1,26
 49 550 49 550 49.5 604 c 128,-1,27
 50 658 50 658 50 659 c 2,28,-1
 282 659 l 1,29,30
 282 371 282 371 295 308 c 0,31,32
 308 244 308 244 397 293 c 1,16,-1
EndSplineSet
EndChar

StartChar: Japan1.859
Encoding: 12370 12370 861
Width: 1000
GlyphClass: 2
Flags: W
LayerCount: 2
Fore
SplineSet
839 694 m 1,0,-1
 739 694 l 1,1,-1
 739 849 l 1,2,-1
 839 849 l 1,3,-1
 839 694 l 1,0,-1
978 694 m 1,4,-1
 878 694 l 1,5,-1
 878 849 l 1,6,-1
 978 849 l 1,7,-1
 978 694 l 1,4,-1
830 663 m 1,8,-1
 703 663 l 1,9,-1
 703 784 l 1,10,-1
 561 779 l 1,11,12
 573 744 573 744 594 605 c 1,13,-1
 388 605 l 1,14,-1
 388 393 l 1,15,-1
 607 393 l 1,16,17
 599 189 599 189 483 -7 c 1,18,-1
 730 -60 l 1,19,20
 842 165 842 165 848 393 c 1,21,-1
 966 393 l 1,22,-1
 966 605 l 1,23,-1
 837 605 l 1,24,25
 836 612 836 612 833.5 632 c 128,-1,26
 831 652 831 652 830 663 c 1,8,-1
411 55 m 1,27,-1
 393 293 l 1,28,29
 304 244 304 244 291 308 c 0,30,31
 278 371 278 371 278 659 c 1,32,-1
 46 659 l 1,33,34
 46 350 46 350 63 263 c 0,35,36
 77 196 77 196 118 143.5 c 128,-1,37
 159 91 159 91 219 65 c 0,38,39
 307 26 307 26 411 55 c 1,27,-1
EndSplineSet
EndChar

StartChar: Japan1.860
Encoding: 12371 12371 862
Width: 1000
GlyphClass: 2
Flags: W
LayerCount: 2
Fore
SplineSet
160 453 m 1,0,-1
 132 684 l 1,1,-1
 888 794 l 1,2,-1
 916 564 l 1,3,-1
 160 453 l 1,0,-1
910 -10 m 1,4,-1
 895 239 l 1,5,6
 809 214 809 214 738.5 203 c 128,-1,7
 668 192 668 192 599.5 195.5 c 128,-1,8
 531 199 531 199 481.5 222.5 c 128,-1,9
 432 246 432 246 394.5 297 c 128,-1,10
 357 348 357 348 341 426 c 1,11,-1
 92 383 l 1,12,13
 137 167 137 167 271 58 c 128,-1,14
 405 -51 405 -51 624 -51 c 0,15,16
 744 -51 744 -51 910 -10 c 1,4,-1
EndSplineSet
EndChar

StartChar: Japan1.861
Encoding: 12372 12372 863
Width: 1000
GlyphClass: 2
Flags: W
LayerCount: 2
Fore
SplineSet
670 636 m 1,0,-1
 671 745 l 1,1,-1
 144 672 l 1,2,-1
 171 443 l 1,3,-1
 905 548 l 1,4,-1
 894 634 l 1,5,-1
 670 636 l 1,0,-1
355 435 m 1,6,-1
 109 394 l 1,7,8
 146 180 146 180 276.5 67.5 c 128,-1,9
 407 -45 407 -45 623 -52 c 0,10,11
 739 -55 739 -55 907 -19 c 1,12,-1
 899 228 l 1,13,14
 814 206 814 206 743.5 197 c 128,-1,15
 673 188 673 188 605 194.5 c 128,-1,16
 537 201 537 201 488 227 c 128,-1,17
 439 253 439 253 403.5 305 c 128,-1,18
 368 357 368 357 355 435 c 1,6,-1
811 676 m 1,19,-1
 711 676 l 1,20,-1
 711 831 l 1,21,-1
 811 831 l 1,22,-1
 811 676 l 1,19,-1
950 676 m 1,23,-1
 850 676 l 1,24,-1
 850 831 l 1,25,-1
 950 831 l 1,26,-1
 950 676 l 1,23,-1
EndSplineSet
EndChar

StartChar: Japan1.862
Encoding: 12373 12373 864
Width: 1000
GlyphClass: 2
Flags: W
LayerCount: 2
Fore
SplineSet
973 506 m 1,0,-1
 747 481 l 1,1,2
 762 419 762 419 823 238 c 1,3,-1
 567 201 l 1,4,5
 528 320 528 320 497 455 c 1,6,-1
 95 414 l 1,7,-1
 73 627 l 1,8,-1
 459 667 l 1,9,10
 451 728 451 728 448 787 c 1,11,-1
 693 787 l 1,12,13
 695 742 695 742 701 692 c 1,14,-1
 951 720 l 1,15,-1
 973 506 l 1,0,-1
83 337 m 1,16,-1
 333 363 l 1,17,18
 324 316 324 316 326 268.5 c 128,-1,19
 328 221 328 221 340 206 c 0,20,21
 372 168 372 168 551 168 c 1,22,-1
 551 -64 l 1,23,24
 486 -64 486 -64 446 -61.5 c 128,-1,25
 406 -59 406 -59 341 -48.5 c 128,-1,26
 276 -38 276 -38 225.5 -10 c 128,-1,27
 175 18 175 18 139 62 c 0,28,29
 59 165 59 165 83 337 c 1,16,-1
EndSplineSet
EndChar

StartChar: Japan1.863
Encoding: 12374 12374 865
Width: 1000
GlyphClass: 2
Flags: W
LayerCount: 2
Fore
SplineSet
812 705 m 1,0,-1
 710 705 l 1,1,-1
 710 862 l 1,2,-1
 812 862 l 1,3,-1
 812 705 l 1,0,-1
951 705 m 1,4,-1
 850 705 l 1,5,-1
 850 862 l 1,6,-1
 951 862 l 1,7,-1
 951 705 l 1,4,-1
973 469 m 1,8,-1
 732 441 l 1,9,10
 747 380 747 380 804 231 c 1,11,-1
 549 196 l 1,12,13
 500 345 500 345 484 416 c 1,14,-1
 93 375 l 1,15,-1
 71 588 l 1,16,-1
 446 628 l 1,17,18
 432 737 432 737 430 782 c 1,19,-1
 674 781 l 1,20,21
 675 743 675 743 687 653 c 1,22,-1
 950 677 l 1,23,-1
 973 469 l 1,8,-1
78 337 m 1,24,-1
 328 364 l 1,25,26
 319 317 319 317 321 269.5 c 128,-1,27
 323 222 323 222 335 207 c 0,28,29
 367 169 367 169 546 169 c 1,30,-1
 546 -65 l 1,31,32
 503 -65 503 -65 478.5 -64.5 c 128,-1,33
 454 -64 454 -64 408.5 -60.5 c 128,-1,34
 363 -57 363 -57 330.5 -49 c 128,-1,35
 298 -41 298 -41 259.5 -27.5 c 128,-1,36
 221 -14 221 -14 189.5 8.5 c 128,-1,37
 158 31 158 31 134 62 c 0,38,39
 52 164 52 164 78 337 c 1,24,-1
EndSplineSet
EndChar

StartChar: Japan1.864
Encoding: 12375 12375 866
Width: 1000
GlyphClass: 2
Flags: W
LayerCount: 2
Fore
SplineSet
889 341 m 1,0,-1
 955 102 l 1,1,2
 860 53 860 53 784 21.5 c 128,-1,3
 708 -10 708 -10 627.5 -31 c 128,-1,4
 547 -52 547 -52 474 -50 c 128,-1,5
 401 -48 401 -48 336 -22 c 0,6,7
 300 -8 300 -8 270.5 12 c 128,-1,8
 241 32 241 32 219 52.5 c 128,-1,9
 197 73 197 73 180.5 103 c 128,-1,10
 164 133 164 133 153 156.5 c 128,-1,11
 142 180 142 180 134.5 217.5 c 128,-1,12
 127 255 127 255 123 279.5 c 128,-1,13
 119 304 119 304 117.5 346.5 c 128,-1,14
 116 389 116 389 115.5 412 c 128,-1,15
 115 435 115 435 115 481 c 0,16,17
 115 484 115 484 115 486 c 2,18,-1
 115 790 l 1,19,-1
 368 790 l 1,20,-1
 368 485 l 2,21,22
 368 321 368 321 379.5 268.5 c 128,-1,23
 391 216 391 216 433 200 c 0,24,25
 491 177 491 177 599 209 c 128,-1,26
 707 241 707 241 889 341 c 1,0,-1
EndSplineSet
EndChar

StartChar: Japan1.865
Encoding: 12376 12376 867
Width: 1000
GlyphClass: 2
Flags: W
LayerCount: 2
Fore
SplineSet
896 341 m 1,0,-1
 962 102 l 1,1,2
 866 52 866 52 791 20.5 c 128,-1,3
 716 -11 716 -11 635 -32.5 c 128,-1,4
 554 -54 554 -54 481 -51.5 c 128,-1,5
 408 -49 408 -49 343 -22 c 0,6,7
 307 -8 307 -8 277.5 12 c 128,-1,8
 248 32 248 32 226 52.5 c 128,-1,9
 204 73 204 73 187.5 103 c 128,-1,10
 171 133 171 133 160 156.5 c 128,-1,11
 149 180 149 180 141.5 217.5 c 128,-1,12
 134 255 134 255 130 279.5 c 128,-1,13
 126 304 126 304 124.5 346.5 c 128,-1,14
 123 389 123 389 122.5 412 c 128,-1,15
 122 435 122 435 122 481 c 0,16,17
 122 484 122 484 122 486 c 2,18,-1
 122 790 l 1,19,-1
 375 790 l 1,20,-1
 375 485 l 2,21,22
 375 321 375 321 386.5 268.5 c 128,-1,23
 398 216 398 216 440 200 c 0,24,25
 498 177 498 177 606 209 c 128,-1,26
 714 241 714 241 896 341 c 1,0,-1
674 498 m 1,27,-1
 573 498 l 1,28,-1
 573 652 l 1,29,-1
 674 652 l 1,30,-1
 674 498 l 1,27,-1
813 498 m 1,31,-1
 712 498 l 1,32,-1
 712 652 l 1,33,-1
 813 652 l 1,34,-1
 813 498 l 1,31,-1
EndSplineSet
EndChar

StartChar: Japan1.866
Encoding: 12377 12377 868
Width: 1000
GlyphClass: 2
Flags: W
LayerCount: 2
Fore
SplineSet
737 525 m 1,0,-1
 737 278 l 1,1,2
 749 241 749 241 752 207 c 0,3,4
 767 51 767 51 670 -89 c 1,5,-1
 439 -56 l 1,6,7
 476 -6 476 -6 512 79 c 1,8,9
 462 61 462 61 408 57.5 c 128,-1,10
 354 54 354 54 305 67 c 128,-1,11
 256 80 256 80 216.5 106.5 c 128,-1,12
 177 133 177 133 153.5 177.5 c 128,-1,13
 130 222 130 222 130 278 c 0,14,15
 130 379 130 379 207 438.5 c 128,-1,16
 284 498 284 498 408 498 c 0,17,18
 455 498 455 498 502 484 c 1,19,-1
 502 525 l 1,20,-1
 36 525 l 1,21,-1
 36 720 l 1,22,-1
 501 720 l 1,23,-1
 501 795 l 1,24,-1
 738 795 l 1,25,-1
 738 720 l 1,26,-1
 963 720 l 1,27,-1
 963 525 l 1,28,-1
 737 525 l 1,0,-1
389 247 m 0,29,30
 402 247 402 247 411.5 256.5 c 128,-1,31
 421 266 421 266 421 278 c 128,-1,32
 421 290 421 290 411.5 299.5 c 128,-1,33
 402 309 402 309 389 309 c 0,34,35
 377 309 377 309 367.5 299.5 c 128,-1,36
 358 290 358 290 358 278 c 128,-1,37
 358 266 358 266 367.5 256.5 c 128,-1,38
 377 247 377 247 389 247 c 0,29,30
EndSplineSet
EndChar

StartChar: Japan1.867
Encoding: 12378 12378 869
Width: 1000
GlyphClass: 2
Flags: W
LayerCount: 2
Fore
SplineSet
855 698 m 1,0,-1
 755 698 l 1,1,-1
 755 852 l 1,2,-1
 855 852 l 1,3,-1
 855 698 l 1,0,-1
994 698 m 1,4,-1
 894 698 l 1,5,-1
 894 852 l 1,6,-1
 994 852 l 1,7,-1
 994 698 l 1,4,-1
954 527 m 1,8,-1
 954 666 l 1,9,-1
 719 666 l 1,10,-1
 719 793 l 1,11,-1
 485 793 l 1,12,-1
 485 718 l 1,13,-1
 26 718 l 1,14,-1
 26 527 l 1,15,-1
 486 527 l 1,16,-1
 486 482 l 1,17,18
 439 496 439 496 392 496 c 0,19,20
 268 496 268 496 191 436.5 c 128,-1,21
 114 377 114 377 114 276 c 0,22,23
 114 220 114 220 137.5 175.5 c 128,-1,24
 161 131 161 131 200.5 104.5 c 128,-1,25
 240 78 240 78 289 65 c 128,-1,26
 338 52 338 52 392 55.5 c 128,-1,27
 446 59 446 59 496 77 c 1,28,29
 468 9 468 9 412 -55 c 1,30,-1
 647 -92 l 1,31,32
 737 30 737 30 735 205 c 0,33,34
 732 239 732 239 720 276 c 1,35,-1
 720 527 l 1,36,-1
 954 527 l 1,8,-1
373 245 m 0,37,38
 361 245 361 245 351.5 254.5 c 128,-1,39
 342 264 342 264 342 276 c 128,-1,40
 342 288 342 288 351.5 297.5 c 128,-1,41
 361 307 361 307 373 307 c 0,42,43
 386 307 386 307 395.5 297.5 c 128,-1,44
 405 288 405 288 405 276 c 128,-1,45
 405 264 405 264 395.5 254.5 c 128,-1,46
 386 245 386 245 373 245 c 0,37,38
EndSplineSet
EndChar

StartChar: Japan1.868
Encoding: 12379 12379 870
Width: 1000
GlyphClass: 2
Flags: W
LayerCount: 2
Fore
SplineSet
596 238 m 1,0,-1
 596 405 l 1,1,-1
 400 383 l 1,2,3
 395 248 395 248 434 209 c 0,4,5
 441 202 441 202 451 195.5 c 128,-1,6
 461 189 461 189 474.5 185 c 128,-1,7
 488 181 488 181 499 178 c 128,-1,8
 510 175 510 175 529 173 c 128,-1,9
 548 171 548 171 558.5 170 c 128,-1,10
 569 169 569 169 591.5 168.5 c 128,-1,11
 614 168 614 168 623.5 168 c 128,-1,12
 633 168 633 168 657.5 168 c 128,-1,13
 682 168 682 168 689 168 c 1,14,-1
 689 -56 l 1,15,16
 679 -56 679 -56 642 -56.5 c 128,-1,17
 605 -57 605 -57 591.5 -56.5 c 128,-1,18
 578 -56 578 -56 544 -55 c 128,-1,19
 510 -54 510 -54 492.5 -51 c 128,-1,20
 475 -48 475 -48 445.5 -43.5 c 128,-1,21
 416 -39 416 -39 396.5 -31.5 c 128,-1,22
 377 -24 377 -24 352.5 -14 c 128,-1,23
 328 -4 328 -4 308 11 c 128,-1,24
 288 26 288 26 269 44 c 0,25,26
 208 104 208 104 186 181 c 128,-1,27
 164 258 164 258 166 359 c 1,28,-1
 38 346 l 1,29,-1
 17 549 l 1,30,-1
 179 566 l 1,31,32
 191 682 191 682 208 772 c 1,33,-1
 447 772 l 1,34,35
 429 674 429 674 418 591 c 1,36,-1
 596 611 l 1,37,-1
 596 772 l 1,38,-1
 830 772 l 1,39,-1
 830 635 l 1,40,-1
 967 649 l 1,41,-1
 988 445 l 1,42,-1
 830 429 l 1,43,-1
 830 238 l 1,44,-1
 596 238 l 1,0,-1
EndSplineSet
EndChar

StartChar: Japan1.869
Encoding: 12380 12380 871
Width: 1000
GlyphClass: 2
Flags: W
LayerCount: 2
Fore
SplineSet
832 701 m 1,0,-1
 730 701 l 1,1,-1
 730 857 l 1,2,-1
 832 857 l 1,3,-1
 832 701 l 1,0,-1
972 701 m 1,4,-1
 871 701 l 1,5,-1
 871 857 l 1,6,-1
 972 857 l 1,7,-1
 972 701 l 1,4,-1
833 632 m 1,8,-1
 970 647 l 1,9,-1
 991 441 l 1,10,-1
 833 425 l 1,11,-1
 833 234 l 1,12,-1
 599 234 l 1,13,-1
 599 401 l 1,14,-1
 403 380 l 1,15,16
 398 243 398 243 437 205 c 0,17,18
 444 198 444 198 454 192 c 128,-1,19
 464 186 464 186 477 182 c 128,-1,20
 490 178 490 178 501.5 175 c 128,-1,21
 513 172 513 172 531.5 170 c 128,-1,22
 550 168 550 168 561 167 c 128,-1,23
 572 166 572 166 594.5 165.5 c 128,-1,24
 617 165 617 165 626.5 165 c 128,-1,25
 636 165 636 165 660.5 165 c 128,-1,26
 685 165 685 165 692 165 c 1,27,-1
 692 -59 l 1,28,29
 684 -59 684 -59 639.5 -59.5 c 128,-1,30
 595 -60 595 -60 581.5 -59.5 c 128,-1,31
 568 -59 568 -59 528.5 -57 c 128,-1,32
 489 -55 489 -55 471 -51.5 c 128,-1,33
 453 -48 453 -48 419.5 -40.5 c 128,-1,34
 386 -33 386 -33 365 -22.5 c 128,-1,35
 344 -12 344 -12 318.5 4 c 128,-1,36
 293 20 293 20 272 41 c 0,37,38
 211 100 211 100 189 177 c 128,-1,39
 167 254 167 254 169 356 c 1,40,-1
 41 343 l 1,41,-1
 19 546 l 1,42,-1
 182 563 l 1,43,44
 193 675 193 675 211 770 c 1,45,-1
 450 770 l 1,46,47
 430 659 430 659 421 588 c 1,48,-1
 599 607 l 1,49,-1
 599 770 l 1,50,-1
 695 770 l 1,51,-1
 695 669 l 1,52,-1
 833 669 l 1,53,-1
 833 632 l 1,8,-1
EndSplineSet
EndChar

StartChar: Japan1.870
Encoding: 12381 12381 872
Width: 1000
GlyphClass: 2
Flags: W
LayerCount: 2
Fore
SplineSet
965 338 m 1,0,-1
 503 292 l 1,1,2
 499 273 499 273 497.5 262 c 128,-1,3
 496 251 496 251 496.5 236 c 128,-1,4
 497 221 497 221 504 212.5 c 128,-1,5
 511 204 511 204 524 194.5 c 128,-1,6
 537 185 537 185 559.5 181 c 128,-1,7
 582 177 582 177 614 174.5 c 128,-1,8
 646 172 646 172 691.5 173.5 c 128,-1,9
 737 175 737 175 795 181 c 1,10,-1
 795 -63 l 1,11,12
 740 -69 740 -69 684 -69 c 0,13,14
 581 -69 581 -69 503 -52.5 c 128,-1,15
 425 -36 425 -36 365 2 c 128,-1,16
 305 40 305 40 278.5 107 c 128,-1,17
 252 174 252 174 264 269 c 1,18,-1
 47 249 l 1,19,-1
 26 453 l 1,20,-1
 409 484 l 1,21,-1
 680 835 l 1,22,-1
 863 702 l 1,23,-1
 708 512 l 1,24,-1
 944 542 l 1,25,-1
 965 338 l 1,0,-1
446 767 m 1,26,-1
 446 554 l 1,27,-1
 131 554 l 1,28,-1
 131 767 l 1,29,-1
 446 767 l 1,26,-1
EndSplineSet
EndChar

StartChar: Japan1.871
Encoding: 12382 12382 873
Width: 1000
GlyphClass: 2
Flags: W
LayerCount: 2
Fore
SplineSet
963 336 m 1,0,-1
 509 291 l 1,1,2
 504 270 504 270 502.5 257 c 128,-1,3
 501 244 501 244 503.5 227.5 c 128,-1,4
 506 211 506 211 516.5 202.5 c 128,-1,5
 527 194 527 194 548 185 c 128,-1,6
 569 176 569 176 601.5 173.5 c 128,-1,7
 634 171 634 171 683.5 172 c 128,-1,8
 733 173 733 173 798 179 c 1,9,-1
 798 -61 l 1,10,11
 746 -67 746 -67 689 -67 c 0,12,13
 588 -67 588 -67 511 -50.5 c 128,-1,14
 434 -34 434 -34 374.5 3.5 c 128,-1,15
 315 41 315 41 289 108 c 128,-1,16
 263 175 263 175 274 268 c 1,17,-1
 55 248 l 1,18,-1
 34 448 l 1,19,-1
 418 479 l 1,20,-1
 685 827 l 1,21,-1
 815 733 l 1,22,-1
 701 733 l 1,23,-1
 701 503 l 1,24,-1
 947 510 l 1,25,-1
 963 336 l 1,0,-1
452 554 m 1,26,-1
 143 554 l 1,27,-1
 143 763 l 1,28,-1
 452 763 l 1,29,-1
 452 554 l 1,26,-1
838 700 m 1,30,-1
 737 700 l 1,31,-1
 737 546 l 1,32,-1
 838 546 l 1,33,-1
 838 700 l 1,30,-1
977 700 m 1,34,-1
 876 700 l 1,35,-1
 876 546 l 1,36,-1
 977 546 l 1,37,-1
 977 700 l 1,34,-1
EndSplineSet
EndChar

StartChar: Japan1.872
Encoding: 12383 12383 874
Width: 1000
GlyphClass: 2
Flags: W
LayerCount: 2
Fore
SplineSet
578 458 m 1,0,-1
 404 442 l 1,1,2
 357 189 357 189 310 52 c 1,3,-1
 62 55 l 1,4,5
 119 199 119 199 164 419 c 1,6,-1
 36 406 l 1,7,-1
 16 618 l 1,8,-1
 199 635 l 1,9,10
 208 714 208 714 208 785 c 1,11,-1
 440 785 l 1,12,13
 440 727 440 727 434 658 c 1,14,-1
 558 670 l 1,15,-1
 578 458 l 1,0,-1
630 355 m 1,16,-1
 613 586 l 1,17,-1
 932 610 l 1,18,-1
 949 380 l 1,19,-1
 630 355 l 1,16,-1
950 192 m 1,20,-1
 970 -37 l 1,21,22
 897 -51 897 -51 837 -51 c 0,23,24
 685 -51 685 -51 579.5 20 c 128,-1,25
 474 91 474 91 447 232 c 1,26,-1
 675 303 l 1,27,28
 679 288 679 288 682 278.5 c 128,-1,29
 685 269 685 269 695 250.5 c 128,-1,30
 705 232 705 232 716.5 221 c 128,-1,31
 728 210 728 210 749.5 197.5 c 128,-1,32
 771 185 771 185 797.5 180.5 c 128,-1,33
 824 176 824 176 863.5 178 c 128,-1,34
 903 180 903 180 950 192 c 1,20,-1
EndSplineSet
EndChar

StartChar: Japan1.873
Encoding: 12384 12384 875
Width: 1000
GlyphClass: 2
Flags: W
LayerCount: 2
Fore
SplineSet
798 655 m 1,0,-1
 698 655 l 1,1,-1
 698 810 l 1,2,-1
 798 810 l 1,3,-1
 798 655 l 1,0,-1
937 655 m 1,4,-1
 837 655 l 1,5,-1
 837 810 l 1,6,-1
 937 810 l 1,7,-1
 937 655 l 1,4,-1
583 459 m 1,8,-1
 409 443 l 1,9,10
 357 162 357 162 319 52 c 1,11,-1
 71 55 l 1,12,13
 119 177 119 177 169 420 c 1,14,-1
 41 407 l 1,15,-1
 21 619 l 1,16,-1
 204 636 l 1,17,18
 213 716 213 716 213 786 c 1,19,-1
 445 786 l 1,20,21
 445 728 445 728 439 659 c 1,22,-1
 563 671 l 1,23,-1
 583 459 l 1,8,-1
618 587 m 1,24,-1
 937 611 l 1,25,-1
 954 381 l 1,26,-1
 635 356 l 1,27,-1
 618 587 l 1,24,-1
955 193 m 1,28,-1
 975 -37 l 1,29,30
 902 -51 902 -51 842 -51 c 0,31,32
 743 -51 743 -51 664 -22 c 128,-1,33
 585 7 585 7 527.5 72.5 c 128,-1,34
 470 138 470 138 452 233 c 1,35,-1
 680 304 l 1,36,37
 684 289 684 289 687 279.5 c 128,-1,38
 690 270 690 270 700 251.5 c 128,-1,39
 710 233 710 233 721.5 222 c 128,-1,40
 733 211 733 211 754.5 198.5 c 128,-1,41
 776 186 776 186 802.5 181.5 c 128,-1,42
 829 177 829 177 868.5 179 c 128,-1,43
 908 181 908 181 955 193 c 1,28,-1
EndSplineSet
EndChar

StartChar: Japan1.874
Encoding: 12385 12385 876
Width: 1000
GlyphClass: 2
Flags: W
LayerCount: 2
Fore
SplineSet
401 517 m 1,0,-1
 401 452 l 1,1,2
 474 467 474 467 539.5 473.5 c 128,-1,3
 605 480 605 480 673.5 474.5 c 128,-1,4
 742 469 742 469 792.5 448 c 128,-1,5
 843 427 843 427 878.5 382.5 c 128,-1,6
 914 338 914 338 922 272 c 0,7,8
 928 223 928 223 914 180 c 128,-1,9
 900 137 900 137 874 106 c 128,-1,10
 848 75 848 75 806 48.5 c 128,-1,11
 764 22 764 22 722 4.5 c 128,-1,12
 680 -13 680 -13 625.5 -28.5 c 128,-1,13
 571 -44 571 -44 529 -52.5 c 128,-1,14
 487 -61 487 -61 436 -69 c 1,15,-1
 401 153 l 1,16,17
 689 200 689 200 679 255 c 0,18,19
 675 275 675 275 642.5 281.5 c 128,-1,20
 610 288 610 288 558.5 281 c 128,-1,21
 507 274 507 274 452 263.5 c 128,-1,22
 397 253 397 253 336.5 236.5 c 128,-1,23
 276 220 276 220 239 209 c 128,-1,24
 202 198 202 198 174 189 c 1,25,-1
 174 516 l 1,26,-1
 53 516 l 1,27,-1
 53 727 l 1,28,-1
 174 727 l 1,29,-1
 174 778 l 1,30,-1
 401 778 l 1,31,-1
 401 727 l 1,32,-1
 932 727 l 1,33,-1
 932 517 l 1,34,-1
 401 517 l 1,0,-1
EndSplineSet
EndChar

StartChar: Japan1.875
Encoding: 12386 12386 877
Width: 1000
GlyphClass: 2
Flags: W
LayerCount: 2
Fore
SplineSet
812 694 m 1,0,-1
 712 694 l 1,1,-1
 712 849 l 1,2,-1
 812 849 l 1,3,-1
 812 694 l 1,0,-1
951 694 m 1,4,-1
 850 694 l 1,5,-1
 850 849 l 1,6,-1
 951 849 l 1,7,-1
 951 694 l 1,4,-1
950 517 m 1,8,-1
 950 663 l 1,9,-1
 675 663 l 1,10,-1
 675 727 l 1,11,-1
 419 727 l 1,12,-1
 419 778 l 1,13,-1
 192 778 l 1,14,-1
 192 727 l 1,15,-1
 71 727 l 1,16,-1
 71 516 l 1,17,-1
 192 516 l 1,18,-1
 192 189 l 1,19,20
 220 198 220 198 257 209 c 128,-1,21
 294 220 294 220 354.5 236.5 c 128,-1,22
 415 253 415 253 470 263.5 c 128,-1,23
 525 274 525 274 576.5 281 c 128,-1,24
 628 288 628 288 660.5 281.5 c 128,-1,25
 693 275 693 275 697 255 c 0,26,27
 707 200 707 200 419 153 c 1,28,-1
 454 -69 l 1,29,30
 505 -61 505 -61 547 -52.5 c 128,-1,31
 589 -44 589 -44 643.5 -28.5 c 128,-1,32
 698 -13 698 -13 740 4.5 c 128,-1,33
 782 22 782 22 824 48.5 c 128,-1,34
 866 75 866 75 892 106 c 128,-1,35
 918 137 918 137 932 180 c 128,-1,36
 946 223 946 223 940 272 c 0,37,38
 932 338 932 338 896.5 382.5 c 128,-1,39
 861 427 861 427 810.5 448 c 128,-1,40
 760 469 760 469 691.5 474.5 c 128,-1,41
 623 480 623 480 557.5 473.5 c 128,-1,42
 492 467 492 467 419 452 c 1,43,-1
 419 517 l 1,44,-1
 950 517 l 1,8,-1
EndSplineSet
EndChar

StartChar: Japan1.876
Encoding: 12387 12387 878
Width: 1000
GlyphClass: 2
Flags: W
LayerCount: 2
Fore
SplineSet
165 343 m 1,0,-1
 151 580 l 1,1,2
 565 688 565 688 745 569 c 0,3,4
 796 535 796 535 826.5 481 c 128,-1,5
 857 427 857 427 863.5 365 c 128,-1,6
 870 303 870 303 845 236 c 128,-1,7
 820 169 820 169 768.5 110 c 128,-1,8
 717 51 717 51 622 1.5 c 128,-1,9
 527 -48 527 -48 403 -73 c 1,10,-1
 375 150 l 1,11,12
 571 200 571 200 619 285 c 0,13,14
 645 332 645 332 614 364 c 0,15,16
 610 368 610 368 604 372 c 0,17,18
 578 389 578 389 525 394 c 128,-1,19
 472 399 472 399 377.5 387 c 128,-1,20
 283 375 283 375 165 343 c 1,0,-1
EndSplineSet
EndChar

StartChar: Japan1.877
Encoding: 12388 12388 879
Width: 1000
GlyphClass: 2
Flags: W
LayerCount: 2
Fore
SplineSet
77 442 m 1,0,-1
 60 688 l 1,1,2
 161 713 161 713 256 727 c 128,-1,3
 351 741 351 741 452 745.5 c 128,-1,4
 553 750 553 750 637 733.5 c 128,-1,5
 721 717 721 717 790.5 682.5 c 128,-1,6
 860 648 860 648 903.5 581.5 c 128,-1,7
 947 515 947 515 955 423 c 0,8,9
 963 330 963 330 928 251 c 128,-1,10
 893 172 893 172 834 120 c 128,-1,11
 775 68 775 68 694 28.5 c 128,-1,12
 613 -11 613 -11 537 -31.5 c 128,-1,13
 461 -52 461 -52 384 -62 c 1,14,-1
 343 174 l 1,15,16
 386 182 386 182 438.5 198 c 128,-1,17
 491 214 491 214 554 241.5 c 128,-1,18
 617 269 617 269 657 311.5 c 128,-1,19
 697 354 697 354 692 402 c 0,20,21
 688 442 688 442 653.5 466.5 c 128,-1,22
 619 491 619 491 563.5 497.5 c 128,-1,23
 508 504 508 504 444.5 502.5 c 128,-1,24
 381 501 381 501 309.5 489.5 c 128,-1,25
 238 478 238 478 182.5 466.5 c 128,-1,26
 127 455 127 455 77 442 c 1,0,-1
EndSplineSet
EndChar

StartChar: Japan1.878
Encoding: 12389 12389 880
Width: 1000
GlyphClass: 2
Flags: W
LayerCount: 2
Fore
SplineSet
823 775 m 1,0,-1
 725 775 l 1,1,-1
 725 623 l 1,2,-1
 823 623 l 1,3,-1
 823 775 l 1,0,-1
960 775 m 1,4,-1
 861 775 l 1,5,-1
 861 623 l 1,6,-1
 960 623 l 1,7,-1
 960 775 l 1,4,-1
688 593 m 1,8,-1
 926 593 l 1,9,10
 966 526 966 526 973 441 c 0,11,12
 979 374 979 374 962.5 314 c 128,-1,13
 946 254 946 254 913.5 208.5 c 128,-1,14
 881 163 881 163 834 124 c 128,-1,15
 787 85 787 85 735 58 c 128,-1,16
 683 31 683 31 623 9.5 c 128,-1,17
 563 -12 563 -12 509.5 -24.5 c 128,-1,18
 456 -37 456 -37 402 -44 c 1,19,-1
 361 193 l 1,20,21
 404 201 404 201 456.5 217 c 128,-1,22
 509 233 509 233 572 260.5 c 128,-1,23
 635 288 635 288 675 330.5 c 128,-1,24
 715 373 715 373 710 421 c 0,25,26
 706 461 706 461 671.5 485.5 c 128,-1,27
 637 510 637 510 581.5 516.5 c 128,-1,28
 526 523 526 523 462.5 521.5 c 128,-1,29
 399 520 399 520 327.5 508.5 c 128,-1,30
 256 497 256 497 200.5 485.5 c 128,-1,31
 145 474 145 474 95 461 c 1,32,-1
 78 708 l 1,33,34
 459 798 459 798 688 744 c 1,35,-1
 688 593 l 1,8,-1
EndSplineSet
EndChar

StartChar: Japan1.879
Encoding: 12390 12390 881
Width: 1000
GlyphClass: 2
Flags: W
LayerCount: 2
Fore
SplineSet
951 569 m 1,0,-1
 726 547 l 1,1,2
 647 503 647 503 600.5 411 c 128,-1,3
 554 319 554 319 574 256 c 0,4,5
 604 159 604 159 815 184 c 1,6,-1
 815 -59 l 1,7,8
 738 -69 738 -69 659.5 -59 c 128,-1,9
 581 -49 581 -49 515.5 -25 c 128,-1,10
 450 -1 450 -1 399 50.5 c 128,-1,11
 348 102 348 102 326 174 c 0,12,13
 303 254 303 254 322.5 344.5 c 128,-1,14
 342 435 342 435 399 516 c 1,15,-1
 68 481 l 1,16,-1
 47 693 l 1,17,-1
 929 779 l 1,18,-1
 951 569 l 1,0,-1
EndSplineSet
EndChar

StartChar: Japan1.880
Encoding: 12391 12391 882
Width: 1000
GlyphClass: 2
Flags: W
LayerCount: 2
Fore
SplineSet
965 569 m 1,0,-1
 740 547 l 1,1,2
 661 503 661 503 614.5 411 c 128,-1,3
 568 319 568 319 588 256 c 0,4,5
 618 158 618 158 829 183 c 1,6,-1
 829 -60 l 1,7,8
 752 -70 752 -70 673.5 -60 c 128,-1,9
 595 -50 595 -50 529.5 -26 c 128,-1,10
 464 -2 464 -2 413 49.5 c 128,-1,11
 362 101 362 101 340 173 c 0,12,13
 317 253 317 253 336.5 344 c 128,-1,14
 356 435 356 435 413 516 c 1,15,-1
 82 481 l 1,16,-1
 61 693 l 1,17,-1
 943 779 l 1,18,-1
 965 569 l 1,0,-1
815 337 m 1,19,-1
 714 337 l 1,20,-1
 714 493 l 1,21,-1
 815 493 l 1,22,-1
 815 337 l 1,19,-1
955 337 m 1,23,-1
 853 337 l 1,24,-1
 853 493 l 1,25,-1
 955 493 l 1,26,-1
 955 337 l 1,23,-1
EndSplineSet
EndChar

StartChar: Japan1.881
Encoding: 12392 12392 883
Width: 1000
GlyphClass: 2
Flags: W
LayerCount: 2
Fore
SplineSet
462 793 m 1,0,-1
 476 642 l 1,1,2
 599 685 599 685 714 706 c 128,-1,3
 829 727 829 727 894 729 c 1,4,-1
 894 485 l 1,5,6
 738 479 738 479 553 420 c 0,7,8
 445 385 445 385 389.5 342.5 c 128,-1,9
 334 300 334 300 333 268 c 0,10,11
 332 231 332 231 376.5 206.5 c 128,-1,12
 421 182 421 182 494.5 174 c 128,-1,13
 568 166 568 166 662 171.5 c 128,-1,14
 756 177 756 177 853 196 c 1,15,-1
 853 -40 l 1,16,17
 768 -55 768 -55 684.5 -60.5 c 128,-1,18
 601 -66 601 -66 509 -61.5 c 128,-1,19
 417 -57 417 -57 333.5 -31.5 c 128,-1,20
 250 -6 250 -6 193 40 c 0,21,22
 142 82 142 82 113.5 141.5 c 128,-1,23
 85 201 85 201 84.5 268 c 128,-1,24
 84 335 84 335 127 407 c 128,-1,25
 170 479 170 479 255 536 c 1,26,-1
 225 793 l 1,27,-1
 462 793 l 1,0,-1
EndSplineSet
EndChar

StartChar: Japan1.882
Encoding: 12393 12393 884
Width: 1000
GlyphClass: 2
Flags: W
LayerCount: 2
Fore
SplineSet
828 699 m 1,0,-1
 727 699 l 1,1,-1
 727 856 l 1,2,-1
 828 856 l 1,3,-1
 828 699 l 1,0,-1
969 699 m 1,4,-1
 867 699 l 1,5,-1
 867 856 l 1,6,-1
 969 856 l 1,7,-1
 969 699 l 1,4,-1
867 -41 m 1,8,-1
 867 195 l 1,9,10
 770 176 770 176 676 170.5 c 128,-1,11
 582 165 582 165 508.5 173 c 128,-1,12
 435 181 435 181 390 205.5 c 128,-1,13
 345 230 345 230 346 267 c 0,14,15
 347 298 347 298 403 341 c 128,-1,16
 459 384 459 384 567 418 c 0,17,18
 751 478 751 478 908 484 c 1,19,-1
 908 668 l 1,20,-1
 690 668 l 1,21,-1
 690 697 l 1,22,23
 586 675 586 675 490 641 c 1,24,-1
 476 792 l 1,25,-1
 238 792 l 1,26,-1
 269 535 l 1,27,28
 184 478 184 478 141 406 c 128,-1,29
 98 334 98 334 98.5 267 c 128,-1,30
 99 200 99 200 127.5 140.5 c 128,-1,31
 156 81 156 81 207 39 c 0,32,33
 282 -22 282 -22 405.5 -46.5 c 128,-1,34
 529 -71 529 -71 639.5 -66.5 c 128,-1,35
 750 -62 750 -62 867 -41 c 1,8,-1
EndSplineSet
EndChar

StartChar: Japan1.883
Encoding: 12394 12394 885
Width: 1000
GlyphClass: 2
Flags: W
LayerCount: 2
Fore
SplineSet
634 558 m 1,0,-1
 613 767 l 1,1,-1
 896 797 l 1,2,-1
 917 588 l 1,3,-1
 634 558 l 1,0,-1
578 483 m 1,4,-1
 385 463 l 1,5,6
 344 286 344 286 281 128 c 1,7,-1
 42 128 l 1,8,9
 111 284 111 284 152 439 c 1,10,-1
 43 427 l 1,11,-1
 21 636 l 1,12,-1
 198 655 l 1,13,14
 206 712 206 712 206 795 c 1,15,-1
 429 795 l 1,16,17
 429 735 429 735 422 679 c 1,18,-1
 556 693 l 1,19,-1
 578 483 l 1,4,-1
847 507 m 1,20,-1
 847 309 l 1,21,22
 918 279 918 279 979 236 c 1,23,-1
 929 13 l 1,24,25
 893 43 893 43 819 86 c 1,26,27
 786 13 786 13 721 -27.5 c 128,-1,28
 656 -68 656 -68 583 -68 c 0,29,30
 523 -68 523 -68 472 -40.5 c 128,-1,31
 421 -13 421 -13 393 30 c 128,-1,32
 365 73 365 73 355 125.5 c 128,-1,33
 345 178 345 178 369 227 c 0,34,35
 398 292 398 292 467 331 c 128,-1,36
 536 370 536 370 632 364 c 1,37,-1
 632 507 l 1,38,-1
 847 507 l 1,20,-1
585 119 m 128,-1,40
 597 119 597 119 605.5 127.5 c 128,-1,41
 614 136 614 136 614 148 c 128,-1,42
 614 160 614 160 605.5 168 c 128,-1,43
 597 176 597 176 585 176 c 128,-1,44
 573 176 573 176 564.5 168 c 128,-1,45
 556 160 556 160 556 148 c 128,-1,46
 556 136 556 136 564.5 127.5 c 128,-1,39
 573 119 573 119 585 119 c 128,-1,40
EndSplineSet
EndChar

StartChar: Japan1.884
Encoding: 12395 12395 886
Width: 1000
GlyphClass: 2
Flags: W
LayerCount: 2
Fore
SplineSet
408 220 m 1,0,-1
 430 -31 l 1,1,2
 327 -50 327 -50 246 -12 c 0,3,4
 185 16 185 16 143.5 70 c 128,-1,5
 102 124 102 124 85 195 c 0,6,7
 73 246 73 246 68 329.5 c 128,-1,8
 63 413 63 413 63 478 c 128,-1,9
 63 543 63 543 64.5 640.5 c 128,-1,10
 66 738 66 738 66 765 c 1,11,-1
 303 765 l 2,12,13
 303 762 303 762 300.5 625.5 c 128,-1,14
 298 489 298 489 301 403.5 c 128,-1,15
 304 318 304 318 316 268 c 0,16,17
 326 227 326 227 347 216.5 c 128,-1,18
 368 206 368 206 408 220 c 1,0,-1
973 516 m 1,19,-1
 951 747 l 1,20,-1
 426 698 l 1,21,-1
 448 468 l 1,22,-1
 973 516 l 1,19,-1
955 214 m 1,23,-1
 976 -25 l 1,24,25
 880 -46 880 -46 804 -42 c 0,26,27
 673 -35 673 -35 580 36.5 c 128,-1,28
 487 108 487 108 445 241 c 1,29,-1
 697 329 l 1,30,31
 706 302 706 302 713.5 285 c 128,-1,32
 721 268 721 268 740.5 243.5 c 128,-1,33
 760 219 760 219 785.5 208 c 128,-1,34
 811 197 811 197 855 196.5 c 128,-1,35
 899 196 899 196 955 214 c 1,23,-1
EndSplineSet
EndChar

StartChar: Japan1.885
Encoding: 12396 12396 887
Width: 1000
GlyphClass: 2
Flags: W
LayerCount: 2
Fore
SplineSet
565 792 m 1,0,-1
 759 792 l 1,1,2
 759 748 759 748 731 640 c 1,3,4
 772 620 772 620 803 595 c 0,5,6
 830 574 830 574 853 545.5 c 128,-1,7
 876 517 876 517 899.5 473 c 128,-1,8
 923 429 923 429 932.5 365.5 c 128,-1,9
 942 302 942 302 934 229 c 1,10,11
 969 210 969 210 996 190 c 1,12,-1
 933 18 l 1,13,14
 900 45 900 45 876 60 c 1,15,16
 830 -25 830 -25 740 -53 c 0,17,18
 712 -62 712 -62 684 -62 c 0,19,20
 613 -62 613 -62 561 -7 c 0,21,22
 523 33 523 33 513 82.5 c 128,-1,23
 503 132 503 132 523 178 c 0,24,25
 546 231 546 231 598 263.5 c 128,-1,26
 650 296 650 296 712 296 c 0,27,28
 716 296 716 296 724 295.5 c 128,-1,29
 732 295 732 295 735 295 c 0,30,31
 740 402 740 402 681 444 c 2,32,-1
 668 453 l 1,33,34
 598 282 598 282 494 165 c 0,35,36
 320 -31 320 -31 196 -31 c 0,37,38
 150 -31 150 -31 111 -6 c 0,39,40
 61 27 61 27 36 94 c 128,-1,41
 11 161 11 161 18 243 c 0,42,43
 28 345 28 345 81.5 433.5 c 128,-1,44
 135 522 135 522 224 585 c 1,45,-1
 211 753 l 1,46,-1
 405 753 l 1,47,-1
 411 672 l 1,48,49
 477 686 477 686 544 685 c 1,50,51
 565 763 565 763 565 792 c 1,0,-1
424 483 m 1,52,-1
 432 386 l 1,53,54
 458 434 458 434 481 498 c 1,55,56
 451 493 451 493 424 483 c 1,52,-1
255 184 m 1,57,-1
 243 338 l 1,58,59
 217 295 217 295 208 256 c 0,60,61
 197 211 197 211 215 193 c 128,-1,62
 233 175 233 175 255 184 c 1,57,-1
688 88 m 0,63,64
 699 88 699 88 707 95.5 c 128,-1,65
 715 103 715 103 715 114 c 128,-1,66
 715 125 715 125 707 133 c 128,-1,67
 699 141 699 141 688 141 c 128,-1,68
 677 141 677 141 669.5 133 c 128,-1,69
 662 125 662 125 662 114 c 0,70,71
 662 104 662 104 670 96 c 128,-1,72
 678 88 678 88 688 88 c 0,63,64
EndSplineSet
EndChar

StartChar: Japan1.886
Encoding: 12397 12397 888
Width: 1000
GlyphClass: 2
Flags: W
LayerCount: 2
Fore
SplineSet
408 778 m 1,0,-1
 408 620 l 1,1,2
 499 680 499 680 588.5 703 c 128,-1,3
 678 726 678 726 748 706 c 0,4,5
 866 673 866 673 910.5 562 c 128,-1,6
 955 451 955 451 932 300 c 1,7,8
 952 291 952 291 996 261 c 1,9,-1
 940 58 l 1,10,11
 890 92 890 92 863 107 c 1,12,13
 839 49 839 49 789 7.5 c 128,-1,14
 739 -34 739 -34 682 -49 c 128,-1,15
 625 -64 625 -64 566 -45.5 c 128,-1,16
 507 -27 507 -27 467 27 c 0,17,18
 434 71 434 71 426 123.5 c 128,-1,19
 418 176 418 176 436 222.5 c 128,-1,20
 454 269 454 269 490.5 305.5 c 128,-1,21
 527 342 527 342 588.5 359 c 128,-1,22
 650 376 650 376 724 365 c 1,23,24
 731 409 731 409 719 442.5 c 128,-1,25
 707 476 707 476 672 486 c 0,26,27
 626 499 626 499 557 469.5 c 128,-1,28
 488 440 488 440 408 377 c 1,29,-1
 408 -44 l 1,30,-1
 198 -44 l 1,31,-1
 198 166 l 1,32,33
 154 111 154 111 124 69 c 1,34,-1
 6 246 l 1,35,36
 92 360 92 360 197 460 c 1,37,-1
 66 472 l 1,38,-1
 66 664 l 1,39,-1
 198 652 l 1,40,-1
 198 778 l 1,41,-1
 408 778 l 1,0,-1
640 125 m 128,-1,43
 651 125 651 125 659 133 c 128,-1,44
 667 141 667 141 667 152 c 128,-1,45
 667 163 667 163 659 170.5 c 128,-1,46
 651 178 651 178 640 178 c 0,47,48
 630 178 630 178 622 170 c 128,-1,49
 614 162 614 162 614 152 c 0,50,51
 614 141 614 141 621.5 133 c 128,-1,42
 629 125 629 125 640 125 c 128,-1,43
EndSplineSet
EndChar

StartChar: Japan1.887
Encoding: 12398 12398 889
Width: 1000
GlyphClass: 2
Flags: W
LayerCount: 2
Fore
SplineSet
842 -50 m 1,0,-1
 600 33 l 1,1,2
 715 187 715 187 727.5 327 c 128,-1,3
 740 467 740 467 635 511 c 1,4,5
 633 429 633 429 606 339.5 c 128,-1,6
 579 250 579 250 518 165 c 128,-1,7
 457 80 457 80 375 41 c 0,8,9
 218 -32 218 -32 110 70 c 0,10,11
 45 131 45 131 33 239 c 128,-1,12
 21 347 21 347 67 460 c 0,13,14
 103 548 103 548 166 612.5 c 128,-1,15
 229 677 229 677 302.5 708.5 c 128,-1,16
 376 740 376 740 459.5 752 c 128,-1,17
 543 764 543 764 621 748 c 0,18,19
 740 728 740 728 821 668 c 128,-1,20
 902 608 902 608 936 525 c 128,-1,21
 970 442 970 442 970.5 343.5 c 128,-1,22
 971 245 971 245 937 143.5 c 128,-1,23
 903 42 903 42 842 -50 c 1,0,-1
275 259 m 0,24,25
 300 248 300 248 325 274.5 c 128,-1,26
 350 301 350 301 368 347.5 c 128,-1,27
 386 394 386 394 397.5 441 c 128,-1,28
 409 488 409 488 413 522 c 1,29,30
 372 503 372 503 338.5 472 c 128,-1,31
 305 441 305 441 286.5 408 c 128,-1,32
 268 375 268 375 259 343.5 c 128,-1,33
 250 312 250 312 254.5 289 c 128,-1,34
 259 266 259 266 275 259 c 0,24,25
EndSplineSet
EndChar

StartChar: Japan1.888
Encoding: 12399 12399 890
Width: 1000
GlyphClass: 2
Flags: W
LayerCount: 2
Fore
SplineSet
839 484 m 1,0,-1
 839 337 l 1,1,2
 926 305 926 305 987 265 c 1,3,-1
 933 35 l 1,4,5
 882 75 882 75 823 106 c 1,6,7
 797 47 797 47 750.5 7.5 c 128,-1,8
 704 -32 704 -32 652.5 -45.5 c 128,-1,9
 601 -59 601 -59 549 -53 c 128,-1,10
 497 -47 497 -47 457 -20 c 0,11,12
 399 18 399 18 377 83.5 c 128,-1,13
 355 149 355 149 380 219 c 0,14,15
 403 282 403 282 464.5 325 c 128,-1,16
 526 368 526 368 609 371 c 1,17,-1
 609 460 l 1,18,-1
 370 436 l 1,19,-1
 349 645 l 1,20,-1
 609 672 l 1,21,-1
 609 783 l 1,22,-1
 839 783 l 1,23,-1
 839 696 l 1,24,-1
 940 706 l 1,25,-1
 962 497 l 1,26,-1
 839 484 l 1,0,-1
36 729 m 1,27,-1
 250 729 l 1,28,29
 243 362 243 362 265 256 c 0,30,31
 274 215 274 215 293 207 c 128,-1,32
 312 199 312 199 344 217 c 1,33,-1
 358 0 l 1,34,35
 245 -24 245 -24 161.5 40 c 128,-1,36
 78 104 78 104 55 213 c 0,37,38
 37 297 37 297 34.5 471.5 c 128,-1,39
 32 646 32 646 36 729 c 1,27,-1
593 132 m 128,-1,41
 605 132 605 132 613.5 140.5 c 128,-1,42
 622 149 622 149 622 161 c 0,43,44
 622 172 622 172 613.5 180.5 c 128,-1,45
 605 189 605 189 593 189 c 128,-1,46
 581 189 581 189 573 180.5 c 128,-1,47
 565 172 565 172 565 161 c 0,48,49
 565 149 565 149 573 140.5 c 128,-1,40
 581 132 581 132 593 132 c 128,-1,41
EndSplineSet
EndChar

StartChar: Japan1.889
Encoding: 12400 12400 891
Width: 1000
GlyphClass: 2
Flags: W
LayerCount: 2
Fore
SplineSet
838 699 m 1,0,-1
 737 699 l 1,1,-1
 737 853 l 1,2,-1
 838 853 l 1,3,-1
 838 699 l 1,0,-1
976 699 m 1,4,-1
 876 699 l 1,5,-1
 876 853 l 1,6,-1
 976 853 l 1,7,-1
 976 699 l 1,4,-1
833 485 m 1,8,-1
 956 498 l 1,9,-1
 938 667 l 1,10,-1
 701 667 l 1,11,-1
 701 784 l 1,12,-1
 603 784 l 1,13,-1
 603 673 l 1,14,-1
 343 646 l 1,15,-1
 364 437 l 1,16,-1
 603 461 l 1,17,-1
 603 372 l 1,18,19
 520 369 520 369 458.5 326 c 128,-1,20
 397 283 397 283 374 220 c 0,21,22
 349 150 349 150 371 84.5 c 128,-1,23
 393 19 393 19 451 -20 c 0,24,25
 491 -46 491 -46 543 -52.5 c 128,-1,26
 595 -59 595 -59 646.5 -45 c 128,-1,27
 698 -31 698 -31 744.5 8.5 c 128,-1,28
 791 48 791 48 817 107 c 1,29,30
 872 78 872 78 927 35 c 1,31,-1
 981 266 l 1,32,33
 920 306 920 306 833 338 c 1,34,-1
 833 485 l 1,8,-1
352 0 m 1,35,-1
 338 218 l 1,36,37
 306 200 306 200 287 208 c 128,-1,38
 268 216 268 216 259 257 c 0,39,40
 237 363 237 363 244 730 c 1,41,-1
 29 730 l 1,42,43
 25 647 25 647 27.5 472.5 c 128,-1,44
 30 298 30 298 48 214 c 0,45,46
 71 105 71 105 155 40.5 c 128,-1,47
 239 -24 239 -24 352 0 c 1,35,-1
587 133 m 128,-1,49
 575 133 575 133 567 141.5 c 128,-1,50
 559 150 559 150 559 162 c 0,51,52
 559 173 559 173 567 181.5 c 128,-1,53
 575 190 575 190 587 190 c 128,-1,54
 599 190 599 190 607.5 181.5 c 128,-1,55
 616 173 616 173 616 162 c 0,56,57
 616 150 616 150 607.5 141.5 c 128,-1,48
 599 133 599 133 587 133 c 128,-1,49
EndSplineSet
EndChar

StartChar: Japan1.890
Encoding: 12401 12401 892
Width: 1000
GlyphClass: 2
Flags: W
LayerCount: 2
Fore
SplineSet
863 622 m 0,0,1
 810 622 810 622 773 659 c 128,-1,2
 736 696 736 696 736 749 c 128,-1,3
 736 802 736 802 773 839 c 128,-1,4
 810 876 810 876 863 876 c 0,5,6
 915 876 915 876 952 838.5 c 128,-1,7
 989 801 989 801 989 749 c 128,-1,8
 989 697 989 697 952 659.5 c 128,-1,9
 915 622 915 622 863 622 c 0,0,1
863 806 m 0,10,11
 839 806 839 806 822.5 789 c 128,-1,12
 806 772 806 772 806 749 c 128,-1,13
 806 726 806 726 822.5 709 c 128,-1,14
 839 692 839 692 863 692 c 0,15,16
 886 692 886 692 902.5 709 c 128,-1,17
 919 726 919 726 919 749 c 128,-1,18
 919 772 919 772 902.5 789 c 128,-1,19
 886 806 886 806 863 806 c 0,10,11
833 485 m 1,20,-1
 956 498 l 1,21,-1
 944 615 l 1,22,23
 905 592 905 592 863 592 c 0,24,25
 798 592 798 592 752 638 c 128,-1,26
 706 684 706 684 706 749 c 0,27,28
 706 769 706 769 710 784 c 1,29,-1
 603 784 l 1,30,-1
 603 673 l 1,31,-1
 343 646 l 1,32,-1
 364 437 l 1,33,-1
 603 461 l 1,34,-1
 603 372 l 1,35,36
 520 369 520 369 458.5 326 c 128,-1,37
 397 283 397 283 374 220 c 0,38,39
 349 150 349 150 371 84.5 c 128,-1,40
 393 19 393 19 451 -20 c 0,41,42
 491 -46 491 -46 543 -52.5 c 128,-1,43
 595 -59 595 -59 646.5 -45 c 128,-1,44
 698 -31 698 -31 744.5 8.5 c 128,-1,45
 791 48 791 48 817 107 c 1,46,47
 872 78 872 78 927 35 c 1,48,-1
 981 266 l 1,49,50
 920 306 920 306 833 338 c 1,51,-1
 833 485 l 1,20,-1
352 0 m 1,52,-1
 338 218 l 1,53,54
 306 200 306 200 287 208 c 128,-1,55
 268 216 268 216 259 257 c 0,56,57
 237 363 237 363 244 730 c 1,58,-1
 29 730 l 1,59,60
 25 647 25 647 27.5 472.5 c 128,-1,61
 30 298 30 298 48 214 c 0,62,63
 71 105 71 105 155 40.5 c 128,-1,64
 239 -24 239 -24 352 0 c 1,52,-1
587 133 m 128,-1,66
 575 133 575 133 567 141.5 c 128,-1,67
 559 150 559 150 559 162 c 0,68,69
 559 173 559 173 567 181.5 c 128,-1,70
 575 190 575 190 587 190 c 128,-1,71
 599 190 599 190 607.5 181.5 c 128,-1,72
 616 173 616 173 616 162 c 0,73,74
 616 150 616 150 607.5 141.5 c 128,-1,65
 599 133 599 133 587 133 c 128,-1,66
EndSplineSet
EndChar

StartChar: Japan1.891
Encoding: 12402 12402 893
Width: 1000
GlyphClass: 2
Flags: W
LayerCount: 2
Fore
SplineSet
619 730 m 1,0,-1
 834 741 l 1,1,2
 834 696 834 696 834.5 667 c 128,-1,3
 835 638 835 638 838.5 588 c 128,-1,4
 842 538 842 538 847.5 503.5 c 128,-1,5
 853 469 853 469 865.5 426 c 128,-1,6
 878 383 878 383 895 354 c 128,-1,7
 912 325 912 325 938 301 c 128,-1,8
 964 277 964 277 998 266 c 1,9,-1
 942 34 l 1,10,11
 877 43 877 43 819 92 c 128,-1,12
 761 141 761 141 752 193 c 1,13,14
 718 71 718 71 603 2 c 128,-1,15
 488 -67 488 -67 369 -53 c 0,16,17
 243 -38 243 -38 159 49.5 c 128,-1,18
 75 137 75 137 66.5 266 c 128,-1,19
 58 395 58 395 149 548 c 1,20,-1
 49 541 l 1,21,-1
 35 747 l 1,22,-1
 471 786 l 1,23,-1
 491 602 l 1,24,25
 440 571 440 571 401.5 534.5 c 128,-1,26
 363 498 363 498 341 463 c 128,-1,27
 319 428 319 428 306 391.5 c 128,-1,28
 293 355 293 355 294 325.5 c 128,-1,29
 295 296 295 296 301 270 c 0,30,31
 318 210 318 210 361.5 185 c 128,-1,32
 405 160 405 160 457.5 178 c 128,-1,33
 510 196 510 196 550 254 c 0,34,35
 571 283 571 283 584.5 317 c 128,-1,36
 598 351 598 351 605.5 375 c 128,-1,37
 613 399 613 399 616 451 c 128,-1,38
 619 503 619 503 619.5 525.5 c 128,-1,39
 620 548 620 548 619.5 624 c 128,-1,40
 619 700 619 700 619 730 c 1,0,-1
EndSplineSet
EndChar

StartChar: Japan1.892
Encoding: 12403 12403 894
Width: 1000
GlyphClass: 2
Flags: W
LayerCount: 2
Fore
SplineSet
694 549 m 1,0,-1
 834 549 l 1,1,2
 861 306 861 306 991 265 c 1,3,-1
 935 35 l 1,4,5
 870 44 870 44 813 93.5 c 128,-1,6
 756 143 756 143 746 197 c 1,7,8
 711 73 711 73 597 3.5 c 128,-1,9
 483 -66 483 -66 363 -52 c 0,10,11
 289 -43 289 -43 226 -7.5 c 128,-1,12
 163 28 163 28 123 86 c 128,-1,13
 83 144 83 144 67 215.5 c 128,-1,14
 51 287 51 287 70 374.5 c 128,-1,15
 89 462 89 462 144 549 c 1,16,-1
 43 542 l 1,17,-1
 29 746 l 1,18,-1
 464 786 l 1,19,-1
 484 603 l 1,20,21
 433 572 433 572 394.5 535 c 128,-1,22
 356 498 356 498 334 463 c 128,-1,23
 312 428 312 428 299 391.5 c 128,-1,24
 286 355 286 355 287 325.5 c 128,-1,25
 288 296 288 296 294 270 c 0,26,27
 311 210 311 210 355.5 184.5 c 128,-1,28
 400 159 400 159 453 177 c 128,-1,29
 506 195 506 195 545 253 c 0,30,31
 566 282 566 282 579.5 316.5 c 128,-1,32
 593 351 593 351 600.5 375 c 128,-1,33
 608 399 608 399 611 451 c 128,-1,34
 614 503 614 503 614.5 525.5 c 128,-1,35
 615 548 615 548 614.5 624 c 128,-1,36
 614 700 614 700 614 729 c 1,37,-1
 694 733 l 1,38,-1
 694 549 l 1,0,-1
831 735 m 1,39,-1
 730 735 l 1,40,-1
 730 580 l 1,41,-1
 831 580 l 1,42,-1
 831 735 l 1,39,-1
970 735 m 1,43,-1
 869 735 l 1,44,-1
 869 580 l 1,45,-1
 970 580 l 1,46,-1
 970 735 l 1,43,-1
EndSplineSet
EndChar

StartChar: Japan1.893
Encoding: 12404 12404 895
Width: 1000
GlyphClass: 2
Flags: W
LayerCount: 2
Fore
SplineSet
857 548 m 128,-1,1
 804 548 804 548 767 585 c 128,-1,2
 730 622 730 622 730 675 c 128,-1,3
 730 728 730 728 767 765 c 128,-1,4
 804 802 804 802 857 802 c 128,-1,5
 910 802 910 802 947 765 c 128,-1,6
 984 728 984 728 984 675 c 128,-1,7
 984 622 984 622 947 585 c 128,-1,0
 910 548 910 548 857 548 c 128,-1,1
929 35 m 1,8,-1
 986 265 l 1,9,10
 864 304 864 304 832 521 c 1,11,12
 776 530 776 530 738 573.5 c 128,-1,13
 700 617 700 617 700 675 c 0,14,15
 700 702 700 702 712 735 c 1,16,-1
 608 729 l 1,17,18
 608 700 608 700 608.5 623.5 c 128,-1,19
 609 547 609 547 608.5 524.5 c 128,-1,20
 608 502 608 502 605 449.5 c 128,-1,21
 602 397 602 397 594.5 373 c 128,-1,22
 587 349 587 349 573.5 315 c 128,-1,23
 560 281 560 281 539 253 c 0,24,25
 498 195 498 195 445.5 177 c 128,-1,26
 393 159 393 159 349 184.5 c 128,-1,27
 305 210 305 210 288 270 c 0,28,29
 282 296 282 296 281 325.5 c 128,-1,30
 280 355 280 355 293 391.5 c 128,-1,31
 306 428 306 428 328 463 c 128,-1,32
 350 498 350 498 388.5 535 c 128,-1,33
 427 572 427 572 478 603 c 1,34,-1
 458 786 l 1,35,-1
 24 746 l 1,36,-1
 38 542 l 1,37,-1
 139 549 l 1,38,39
 84 462 84 462 65 374.5 c 128,-1,40
 46 287 46 287 62 215.5 c 128,-1,41
 78 144 78 144 118 86 c 128,-1,42
 158 28 158 28 220.5 -7.5 c 128,-1,43
 283 -43 283 -43 357 -52 c 0,44,45
 477 -66 477 -66 591 3.5 c 128,-1,46
 705 73 705 73 740 197 c 1,47,48
 750 143 750 143 807 93.5 c 128,-1,49
 864 44 864 44 929 35 c 1,8,-1
857 732 m 128,-1,51
 834 732 834 732 817 715.5 c 128,-1,52
 800 699 800 699 800 675 c 0,53,54
 800 652 800 652 817 635.5 c 128,-1,55
 834 619 834 619 857 619 c 128,-1,56
 880 619 880 619 897 635.5 c 128,-1,57
 914 652 914 652 914 675 c 0,58,59
 914 699 914 699 897 715.5 c 128,-1,50
 880 732 880 732 857 732 c 128,-1,51
EndSplineSet
EndChar

StartChar: Japan1.894
Encoding: 12405 12405 896
Width: 1000
GlyphClass: 2
Flags: W
LayerCount: 2
Fore
SplineSet
773 565 m 1,0,-1
 162 589 l 1,1,-1
 169 793 l 1,2,-1
 780 769 l 1,3,-1
 773 565 l 1,0,-1
328 542 m 1,4,-1
 555 534 l 1,5,6
 556 495 556 495 567.5 466 c 128,-1,7
 579 437 579 437 612 411 c 0,8,9
 679 357 679 357 705 275 c 128,-1,10
 731 193 731 193 704 116 c 0,11,12
 695 90 695 90 678 65 c 128,-1,13
 661 40 661 40 627.5 10 c 128,-1,14
 594 -20 594 -20 534 -38.5 c 128,-1,15
 474 -57 474 -57 396 -57 c 2,16,-1
 303 -57 l 1,17,-1
 303 166 l 1,18,-1
 396 166 l 2,19,20
 487 166 487 166 491 199 c 0,21,22
 493 215 493 215 471 232 c 0,23,24
 328 346 328 346 328 542 c 1,4,-1
676 424 m 1,25,-1
 881 515 l 1,26,27
 920 455 920 455 945.5 393 c 128,-1,28
 971 331 971 331 984 255 c 128,-1,29
 997 179 997 179 977 96 c 128,-1,30
 957 13 957 13 902 -65 c 1,31,-1
 698 20 l 1,32,33
 741 71 741 71 756.5 128.5 c 128,-1,34
 772 186 772 186 766 229.5 c 128,-1,35
 760 273 760 273 739.5 319 c 128,-1,36
 719 365 719 365 705.5 385 c 128,-1,37
 692 405 692 405 676 424 c 1,25,-1
304 448 m 1,38,-1
 246 -42 l 1,39,-1
 21 -39 l 1,40,-1
 78 448 l 1,41,-1
 304 448 l 1,38,-1
EndSplineSet
EndChar

StartChar: Japan1.895
Encoding: 12406 12406 897
Width: 1000
GlyphClass: 2
Flags: W
LayerCount: 2
Fore
SplineSet
833 670 m 1,0,-1
 734 670 l 1,1,-1
 734 824 l 1,2,-1
 833 824 l 1,3,-1
 833 670 l 1,0,-1
971 670 m 1,4,-1
 872 670 l 1,5,-1
 872 824 l 1,6,-1
 971 824 l 1,7,-1
 971 670 l 1,4,-1
160 593 m 1,8,-1
 771 560 l 1,9,-1
 776 637 l 1,10,-1
 698 638 l 1,11,-1
 698 769 l 1,12,-1
 170 797 l 1,13,-1
 160 593 l 1,8,-1
879 515 m 1,14,-1
 674 425 l 1,15,16
 690 404 690 404 703 385.5 c 128,-1,17
 716 367 716 367 737.5 319.5 c 128,-1,18
 759 272 759 272 764.5 229.5 c 128,-1,19
 770 187 770 187 754.5 129 c 128,-1,20
 739 71 739 71 696 20 c 1,21,-1
 900 -65 l 1,22,23
 955 13 955 13 975 96 c 128,-1,24
 995 179 995 179 982 255 c 128,-1,25
 969 331 969 331 943.5 393 c 128,-1,26
 918 455 918 455 879 515 c 1,14,-1
75 448 m 1,27,-1
 18 -39 l 1,28,-1
 244 -42 l 1,29,-1
 302 448 l 1,30,-1
 75 448 l 1,27,-1
328 542 m 1,31,-1
 555 534 l 1,32,33
 556 495 556 495 567.5 466 c 128,-1,34
 579 437 579 437 612 411 c 0,35,36
 679 357 679 357 705 275 c 128,-1,37
 731 193 731 193 704 116 c 0,38,39
 695 90 695 90 678 65 c 128,-1,40
 661 40 661 40 627.5 10 c 128,-1,41
 594 -20 594 -20 534 -38.5 c 128,-1,42
 474 -57 474 -57 396 -57 c 2,43,-1
 303 -57 l 1,44,-1
 303 166 l 1,45,-1
 396 166 l 2,46,47
 487 166 487 166 491 199 c 0,48,49
 493 215 493 215 471 232 c 0,50,51
 328 346 328 346 328 542 c 1,31,-1
EndSplineSet
EndChar

StartChar: Japan1.896
Encoding: 12407 12407 898
Width: 1000
GlyphClass: 2
Flags: W
LayerCount: 2
Fore
SplineSet
827 611 m 128,-1,1
 775 611 775 611 738 647.5 c 128,-1,2
 701 684 701 684 701 736 c 128,-1,3
 701 788 701 788 738 824.5 c 128,-1,4
 775 861 775 861 827 861 c 128,-1,5
 879 861 879 861 916 824.5 c 128,-1,6
 953 788 953 788 953 736 c 128,-1,7
 953 684 953 684 916 647.5 c 128,-1,0
 879 611 879 611 827 611 c 128,-1,1
157 593 m 1,8,-1
 795 558 l 1,9,-1
 797 584 l 1,10,11
 743 595 743 595 707.5 637.5 c 128,-1,12
 672 680 672 680 672 736 c 0,13,14
 672 747 672 747 676 769 c 1,15,-1
 167 797 l 1,16,-1
 157 593 l 1,8,-1
827 792 m 128,-1,18
 804 792 804 792 787.5 775.5 c 128,-1,19
 771 759 771 759 771 736 c 128,-1,20
 771 713 771 713 787.5 696.5 c 128,-1,21
 804 680 804 680 827 680 c 128,-1,22
 850 680 850 680 866.5 696.5 c 128,-1,23
 883 713 883 713 883 736 c 128,-1,24
 883 759 883 759 866.5 775.5 c 128,-1,17
 850 792 850 792 827 792 c 128,-1,18
877 515 m 1,25,-1
 672 425 l 1,26,27
 688 404 688 404 701 385.5 c 128,-1,28
 714 367 714 367 735.5 319.5 c 128,-1,29
 757 272 757 272 762.5 229.5 c 128,-1,30
 768 187 768 187 752.5 129 c 128,-1,31
 737 71 737 71 694 20 c 1,32,-1
 898 -64 l 1,33,34
 953 13 953 13 973.5 96 c 128,-1,35
 994 179 994 179 980.5 255 c 128,-1,36
 967 331 967 331 941.5 393 c 128,-1,37
 916 455 916 455 877 515 c 1,25,-1
74 448 m 1,38,-1
 17 -39 l 1,39,-1
 242 -42 l 1,40,-1
 300 448 l 1,41,-1
 74 448 l 1,38,-1
324 542 m 1,42,-1
 551 534 l 1,43,44
 552 495 552 495 563.5 466 c 128,-1,45
 575 437 575 437 608 411 c 0,46,47
 675 357 675 357 701 275 c 128,-1,48
 727 193 727 193 700 116 c 0,49,50
 691 90 691 90 674 65 c 128,-1,51
 657 40 657 40 623.5 10 c 128,-1,52
 590 -20 590 -20 530 -38.5 c 128,-1,53
 470 -57 470 -57 392 -57 c 2,54,-1
 299 -57 l 1,55,-1
 299 166 l 1,56,-1
 392 166 l 2,57,58
 483 166 483 166 487 199 c 0,59,60
 489 215 489 215 467 232 c 0,61,62
 324 346 324 346 324 542 c 1,42,-1
EndSplineSet
EndChar

StartChar: Japan1.897
Encoding: 12408 12408 899
Width: 1000
GlyphClass: 2
Flags: W
LayerCount: 2
Fore
SplineSet
4 370 m 1,0,-1
 393 730 l 1,1,2
 479 626 479 626 536 572 c 0,3,4
 740 379 740 379 998 311 c 1,5,-1
 958 34 l 1,6,7
 781 78 781 78 632.5 170 c 128,-1,8
 484 262 484 262 379 362 c 1,9,-1
 159 152 l 1,10,-1
 4 370 l 1,0,-1
EndSplineSet
EndChar

StartChar: Japan1.898
Encoding: 12409 12409 900
Width: 1000
GlyphClass: 2
Flags: W
LayerCount: 2
Fore
SplineSet
1 366 m 1,0,-1
 383 726 l 1,1,2
 469 622 469 622 526 568 c 0,3,4
 730 375 730 375 988 307 c 1,5,-1
 948 33 l 1,6,7
 855 56 855 56 764 96 c 128,-1,8
 673 136 673 136 599.5 183.5 c 128,-1,9
 526 231 526 231 471 274 c 128,-1,10
 416 317 416 317 369 362 c 1,11,-1
 148 151 l 1,12,-1
 1 366 l 1,0,-1
755 519 m 1,13,-1
 653 519 l 1,14,-1
 653 677 l 1,15,-1
 755 677 l 1,16,-1
 755 519 l 1,13,-1
897 519 m 1,17,-1
 794 519 l 1,18,-1
 794 677 l 1,19,-1
 897 677 l 1,20,-1
 897 519 l 1,17,-1
EndSplineSet
EndChar

StartChar: Japan1.899
Encoding: 12410 12410 901
Width: 1000
GlyphClass: 2
Flags: W
LayerCount: 2
Fore
SplineSet
755 474 m 128,-1,1
 702 474 702 474 664 512 c 128,-1,2
 626 550 626 550 626 603 c 128,-1,3
 626 656 626 656 664 694 c 128,-1,4
 702 732 702 732 755 732 c 128,-1,5
 808 732 808 732 846 694 c 128,-1,6
 884 656 884 656 884 603 c 128,-1,7
 884 550 884 550 846 512 c 128,-1,0
 808 474 808 474 755 474 c 128,-1,1
0 366 m 1,8,-1
 381 726 l 1,9,10
 467 622 467 622 524 568 c 0,11,12
 728 375 728 375 986 307 c 1,13,-1
 946 33 l 1,14,15
 853 56 853 56 762 96 c 128,-1,16
 671 136 671 136 597.5 183.5 c 128,-1,17
 524 231 524 231 469 274 c 128,-1,18
 414 317 414 317 367 362 c 1,19,-1
 147 151 l 1,20,-1
 0 366 l 1,8,-1
755 661 m 128,-1,22
 731 661 731 661 714 644 c 128,-1,23
 697 627 697 627 697 603 c 128,-1,24
 697 579 697 579 714 562 c 128,-1,25
 731 545 731 545 755 545 c 128,-1,26
 779 545 779 545 795.5 562 c 128,-1,27
 812 579 812 579 812 603 c 128,-1,28
 812 627 812 627 795.5 644 c 128,-1,21
 779 661 779 661 755 661 c 128,-1,22
EndSplineSet
EndChar

StartChar: Japan1.900
Encoding: 12411 12411 902
Width: 1000
GlyphClass: 2
Flags: W
LayerCount: 2
Fore
SplineSet
807 369 m 1,0,-1
 807 307 l 1,1,2
 893 275 893 275 971 226 c 1,3,-1
 907 18 l 1,4,5
 883 35 883 35 790 84 c 1,6,7
 731 -48 731 -48 613.5 -63.5 c 128,-1,8
 496 -79 496 -79 418.5 4.5 c 128,-1,9
 341 88 341 88 380 199 c 0,10,11
 402 264 402 264 464.5 306 c 128,-1,12
 527 348 527 348 616 348 c 1,13,-1
 616 369 l 1,14,-1
 430 369 l 1,15,-1
 430 550 l 1,16,-1
 616 550 l 1,17,-1
 616 586 l 1,18,-1
 359 586 l 1,19,-1
 359 767 l 1,20,-1
 948 767 l 1,21,-1
 948 586 l 1,22,-1
 807 586 l 1,23,-1
 807 550 l 1,24,-1
 948 550 l 1,25,-1
 948 369 l 1,26,-1
 807 369 l 1,0,-1
348 216 m 1,27,-1
 338 0 l 1,28,29
 238 -8 238 -8 164.5 55 c 128,-1,30
 91 118 91 118 70 218 c 0,31,32
 45 339 45 339 52 712 c 1,33,-1
 262 712 l 1,34,35
 255 360 255 360 276 261 c 0,36,37
 291 193 291 193 348 216 c 1,27,-1
587 105 m 128,-1,39
 598 105 598 105 605.5 112.5 c 128,-1,40
 613 120 613 120 613 131 c 128,-1,41
 613 142 613 142 605.5 149.5 c 128,-1,42
 598 157 598 157 587 157 c 128,-1,43
 576 157 576 157 568.5 149.5 c 128,-1,44
 561 142 561 142 561 131 c 128,-1,45
 561 120 561 120 568.5 112.5 c 128,-1,38
 576 105 576 105 587 105 c 128,-1,39
EndSplineSet
EndChar

StartChar: Japan1.901
Encoding: 12412 12412 903
Width: 1000
GlyphClass: 2
Flags: W
LayerCount: 2
Fore
SplineSet
836 692 m 5,0,-1
 736 692 l 5,1,-1
 736 847 l 5,2,-1
 836 847 l 5,3,-1
 836 692 l 5,0,-1
975 692 m 5,4,-1
 875 692 l 5,5,-1
 875 847 l 5,6,-1
 975 847 l 5,7,-1
 975 692 l 5,4,-1
801 368 m 1,8,-1
 942 368 l 1,9,-1
 942 549 l 1,10,-1
 801 549 l 1,11,-1
 801 585 l 1,12,-1
 942 585 l 1,13,-1
 942 660 l 1,14,-1
 700 660 l 1,15,-1
 700 766 l 1,16,-1
 353 766 l 1,17,-1
 353 585 l 1,18,-1
 610 585 l 1,19,-1
 610 549 l 1,20,-1
 424 549 l 1,21,-1
 424 368 l 1,22,-1
 610 368 l 1,23,-1
 610 347 l 1,24,25
 521 347 521 347 458.5 305 c 128,-1,26
 396 263 396 263 374 198 c 0,27,28
 335 87 335 87 412.5 3.5 c 128,-1,29
 490 -80 490 -80 607.5 -64.5 c 128,-1,30
 725 -49 725 -49 784 83 c 1,31,32
 877 34 877 34 901 17 c 1,33,-1
 965 225 l 1,34,35
 887 274 887 274 801 306 c 1,36,-1
 801 368 l 1,8,-1
332 -1 m 1,37,-1
 342 215 l 1,38,39
 285 192 285 192 270 260 c 0,40,41
 249 359 249 359 256 711 c 1,42,-1
 45 711 l 1,43,44
 38 338 38 338 63 217 c 0,45,46
 84 117 84 117 158 54 c 128,-1,47
 232 -9 232 -9 332 -1 c 1,37,-1
581 104 m 128,-1,49
 570 104 570 104 562.5 112 c 128,-1,50
 555 120 555 120 555 130 c 128,-1,51
 555 140 555 140 562.5 148 c 128,-1,52
 570 156 570 156 581 156 c 128,-1,53
 592 156 592 156 599.5 148 c 128,-1,54
 607 140 607 140 607 130 c 128,-1,55
 607 120 607 120 599.5 112 c 128,-1,48
 592 104 592 104 581 104 c 128,-1,49
EndSplineSet
EndChar

StartChar: Japan1.902
Encoding: 12413 12413 904
Width: 1000
GlyphClass: 2
Flags: W
LayerCount: 2
Fore
SplineSet
864 645 m 0,0,1
 815 645 815 645 781 679 c 128,-1,2
 747 713 747 713 747 762 c 0,3,4
 747 810 747 810 781 844.5 c 128,-1,5
 815 879 815 879 864 879 c 0,6,7
 912 879 912 879 946.5 844.5 c 128,-1,8
 981 810 981 810 981 762 c 0,9,10
 981 713 981 713 946.5 679 c 128,-1,11
 912 645 912 645 864 645 c 0,0,1
864 814 m 128,-1,13
 842 814 842 814 827 799 c 128,-1,14
 812 784 812 784 812 762 c 128,-1,15
 812 740 812 740 827 724.5 c 128,-1,16
 842 709 842 709 864 709 c 128,-1,17
 886 709 886 709 901 724.5 c 128,-1,18
 916 740 916 740 916 762 c 128,-1,19
 916 784 916 784 901 799 c 128,-1,12
 886 814 886 814 864 814 c 128,-1,13
795 363 m 1,20,-1
 936 363 l 1,21,-1
 936 544 l 1,22,-1
 795 544 l 1,23,-1
 795 580 l 1,24,-1
 936 580 l 1,25,-1
 936 637 l 1,26,27
 901 617 901 617 864 617 c 0,28,29
 805 617 805 617 762.5 659.5 c 128,-1,30
 720 702 720 702 720 761 c 1,31,-1
 347 761 l 1,32,-1
 347 580 l 1,33,-1
 604 580 l 1,34,-1
 604 544 l 1,35,-1
 418 544 l 1,36,-1
 418 363 l 1,37,-1
 604 363 l 1,38,-1
 604 347 l 1,39,40
 516 347 516 347 453.5 305 c 128,-1,41
 391 263 391 263 368 198 c 0,42,43
 330 87 330 87 407 3.5 c 128,-1,44
 484 -80 484 -80 601.5 -64.5 c 128,-1,45
 719 -49 719 -49 778 83 c 1,46,47
 871 34 871 34 895 17 c 1,48,-1
 959 225 l 1,49,50
 881 274 881 274 795 306 c 1,51,-1
 795 363 l 1,20,-1
326 -1 m 1,52,-1
 336 215 l 1,53,54
 279 192 279 192 264 260 c 0,55,56
 243 359 243 359 250 711 c 1,57,-1
 40 711 l 1,58,59
 33 338 33 338 58 217 c 0,60,61
 79 117 79 117 152.5 54 c 128,-1,62
 226 -9 226 -9 326 -1 c 1,52,-1
575 104 m 128,-1,64
 564 104 564 104 556.5 112 c 128,-1,65
 549 120 549 120 549 130 c 128,-1,66
 549 140 549 140 556.5 148 c 128,-1,67
 564 156 564 156 575 156 c 128,-1,68
 586 156 586 156 593.5 148 c 128,-1,69
 601 140 601 140 601 130 c 128,-1,70
 601 120 601 120 593.5 112 c 128,-1,63
 586 104 586 104 575 104 c 128,-1,64
EndSplineSet
EndChar

StartChar: Japan1.903
Encoding: 12414 12414 905
Width: 1000
GlyphClass: 2
Flags: W
LayerCount: 2
Fore
SplineSet
645 368 m 1,0,-1
 645 328 l 1,1,2
 782 300 782 300 908 240 c 1,3,-1
 896 9 l 1,4,5
 774 80 774 80 631 115 c 1,6,7
 583 -13 583 -13 460 -58 c 0,8,9
 353 -97 353 -97 248 -57 c 0,10,11
 154 -21 154 -21 125 58 c 0,12,13
 106 108 106 108 121 166 c 0,14,15
 139 237 139 237 216.5 290 c 128,-1,16
 294 343 294 343 434 347 c 1,17,-1
 434 368 l 1,18,-1
 143 368 l 1,19,-1
 143 548 l 1,20,-1
 434 548 l 1,21,-1
 434 579 l 1,22,-1
 48 579 l 1,23,-1
 48 760 l 1,24,-1
 434 760 l 1,25,-1
 434 813 l 1,26,-1
 645 813 l 1,27,-1
 645 760 l 1,28,-1
 914 760 l 1,29,-1
 914 579 l 1,30,-1
 645 579 l 1,31,-1
 645 548 l 1,32,-1
 918 548 l 1,33,-1
 918 368 l 1,34,-1
 645 368 l 1,0,-1
370 103 m 128,-1,36
 383 103 383 103 392.5 112.5 c 128,-1,37
 402 122 402 122 402 135 c 128,-1,38
 402 148 402 148 392.5 157.5 c 128,-1,39
 383 167 383 167 370 167 c 128,-1,40
 357 167 357 167 347.5 157.5 c 128,-1,41
 338 148 338 148 338 135 c 128,-1,42
 338 122 338 122 347.5 112.5 c 128,-1,35
 357 103 357 103 370 103 c 128,-1,36
EndSplineSet
EndChar

StartChar: Japan1.904
Encoding: 12415 12415 906
Width: 1000
GlyphClass: 2
Flags: W
LayerCount: 2
Fore
SplineSet
675 680 m 1,0,-1
 904 680 l 1,1,2
 904 572 904 572 891 441 c 1,3,4
 903 439 903 439 970 422 c 1,5,-1
 951 213 l 1,6,7
 938 216 938 216 909 223.5 c 128,-1,8
 880 231 880 231 862 235 c 1,9,10
 825 39 825 39 782 -63 c 1,11,-1
 539 -27 l 1,12,13
 600 82 600 82 634 269 c 1,14,15
 587 275 587 275 547 276 c 1,16,17
 521 172 521 172 479 112 c 0,18,19
 428 40 428 40 359.5 8.5 c 128,-1,20
 291 -23 291 -23 229.5 -13 c 128,-1,21
 168 -3 168 -3 116.5 37 c 128,-1,22
 65 77 65 77 44 138 c 0,23,24
 24 197 24 197 38 256 c 128,-1,25
 52 315 52 315 97 362 c 0,26,27
 178 447 178 447 361 472 c 1,28,29
 366 546 366 546 367 561 c 1,30,-1
 116 538 l 1,31,-1
 105 748 l 1,32,-1
 591 793 l 1,33,34
 598 649 598 649 583 480 c 1,35,36
 620 477 620 477 664 473 c 1,37,38
 675 590 675 590 675 680 c 1,0,-1
282 194 m 128,-1,40
 295 194 295 194 304.5 203 c 128,-1,41
 314 212 314 212 314 225 c 128,-1,42
 314 238 314 238 304.5 247 c 128,-1,43
 295 256 295 256 282 256 c 128,-1,44
 269 256 269 256 260 247 c 128,-1,45
 251 238 251 238 251 225 c 128,-1,46
 251 212 251 212 260 203 c 128,-1,39
 269 194 269 194 282 194 c 128,-1,40
EndSplineSet
EndChar

StartChar: Japan1.905
Encoding: 12416 12416 907
Width: 1000
GlyphClass: 2
Flags: W
LayerCount: 2
Fore
SplineSet
881 311 m 1,0,-1
 990 90 l 1,1,2
 821 -69 821 -69 627 -69 c 0,3,4
 497 -69 497 -69 396 -6 c 1,5,6
 346 -28 346 -28 291 -28 c 0,7,8
 185 -28 185 -28 111 43 c 128,-1,9
 37 114 37 114 37 214 c 0,10,11
 37 301 37 301 95.5 367.5 c 128,-1,12
 154 434 154 434 242 451 c 1,13,-1
 242 483 l 1,14,-1
 71 467 l 1,15,-1
 51 676 l 1,16,-1
 242 694 l 1,17,-1
 242 791 l 1,18,-1
 471 791 l 1,19,-1
 471 715 l 1,20,-1
 586 726 l 1,21,-1
 605 516 l 1,22,-1
 471 504 l 1,23,24
 471 423 471 423 472 383 c 1,25,26
 513 342 513 342 532 288.5 c 128,-1,27
 551 235 551 235 541 177 c 1,28,29
 621 144 621 144 709.5 179.5 c 128,-1,30
 798 215 798 215 881 311 c 1,0,-1
688 426 m 1,31,-1
 665 635 l 1,32,-1
 953 668 l 1,33,-1
 977 459 l 1,34,-1
 688 426 l 1,31,-1
285 178 m 0,35,36
 301 178 301 178 311 188 c 128,-1,37
 321 198 321 198 321 214 c 0,38,39
 321 229 321 229 311 239.5 c 128,-1,40
 301 250 301 250 285 250 c 0,41,42
 270 250 270 250 259.5 239.5 c 128,-1,43
 249 229 249 229 249 214 c 0,44,45
 249 198 249 198 259.5 188 c 128,-1,46
 270 178 270 178 285 178 c 0,35,36
EndSplineSet
EndChar

StartChar: Japan1.906
Encoding: 12417 12417 908
Width: 1000
GlyphClass: 2
Flags: W
LayerCount: 2
Fore
SplineSet
578 786 m 1,0,-1
 781 786 l 1,1,2
 781 724 781 724 768 635 c 1,3,4
 867 579 867 579 919.5 481.5 c 128,-1,5
 972 384 972 384 968 260 c 0,6,7
 965 167 965 167 927 81 c 128,-1,8
 889 -5 889 -5 835 -69 c 1,9,-1
 606 22 l 1,10,11
 650 67 650 67 678.5 108.5 c 128,-1,12
 707 150 707 150 724 197 c 128,-1,13
 741 244 741 244 737 294 c 128,-1,14
 733 344 733 344 708 396 c 1,15,16
 664 257 664 257 567 148 c 0,17,18
 506 79 506 79 430 31 c 128,-1,19
 354 -17 354 -17 271.5 -33 c 128,-1,20
 189 -49 189 -49 123 -6 c 0,21,22
 70 27 70 27 44.5 93 c 128,-1,23
 19 159 19 159 26 242 c 0,24,25
 34 341 34 341 93 440 c 128,-1,26
 152 539 152 539 263 608 c 1,27,-1
 255 760 l 1,28,-1
 444 760 l 1,29,-1
 448 682 l 1,30,31
 507 692 507 692 570 689 c 1,32,-1
 578 786 l 1,0,-1
459 481 m 1,33,-1
 466 349 l 1,34,35
 501 408 501 408 527 491 c 1,36,37
 491 489 491 489 459 481 c 1,33,-1
286 179 m 1,38,-1
 277 357 l 1,39,40
 235 302 235 302 227 248.5 c 128,-1,41
 219 195 219 195 243 181 c 0,42,43
 260 171 260 171 286 179 c 1,38,-1
EndSplineSet
EndChar

StartChar: Japan1.907
Encoding: 12418 12418 909
Width: 1000
GlyphClass: 2
Flags: W
LayerCount: 2
Fore
SplineSet
898 211 m 1,0,-1
 910 -26 l 1,1,2
 799 -61 799 -61 692 -63 c 128,-1,3
 585 -65 585 -65 492 -32.5 c 128,-1,4
 399 0 399 0 336 82.5 c 128,-1,5
 273 165 273 165 259 289 c 1,6,-1
 89 289 l 1,7,-1
 89 490 l 1,8,-1
 251 490 l 1,9,-1
 251 536 l 1,10,-1
 87 536 l 1,11,-1
 87 737 l 1,12,-1
 251 737 l 1,13,-1
 251 787 l 1,14,-1
 496 787 l 1,15,-1
 496 737 l 1,16,-1
 941 737 l 1,17,-1
 941 537 l 1,18,-1
 496 537 l 1,19,-1
 496 489 l 1,20,-1
 899 489 l 1,21,-1
 899 289 l 1,22,-1
 506 289 l 1,23,24
 516 235 516 235 561.5 205 c 128,-1,25
 607 175 607 175 667.5 172 c 128,-1,26
 728 169 728 169 789 179.5 c 128,-1,27
 850 190 850 190 898 211 c 1,0,-1
EndSplineSet
EndChar

StartChar: Japan1.908
Encoding: 12419 12419 910
Width: 1000
GlyphClass: 2
Flags: W
LayerCount: 2
Fore
SplineSet
686 627 m 1,0,-1
 686 516 l 1,1,2
 765 504 765 504 820.5 454 c 128,-1,3
 876 404 876 404 890 338 c 0,4,5
 911 240 911 240 839.5 145.5 c 128,-1,6
 768 51 768 51 608 6 c 1,7,-1
 584 199 l 1,8,9
 676 232 676 232 692 277 c 0,10,11
 702 310 702 310 666 323 c 0,12,13
 642 331 642 331 606 325 c 2,14,-1
 458 299 l 1,15,-1
 498 -48 l 1,16,-1
 290 -72 l 1,17,-1
 252 263 l 1,18,-1
 145 245 l 1,19,-1
 145 439 l 1,20,-1
 231 454 l 1,21,-1
 211 627 l 1,22,-1
 421 627 l 1,23,-1
 437 489 l 1,24,-1
 478 497 l 1,25,-1
 478 627 l 1,26,-1
 686 627 l 1,0,-1
EndSplineSet
EndChar

StartChar: Japan1.909
Encoding: 12420 12420 911
Width: 1000
GlyphClass: 2
Flags: W
LayerCount: 2
Fore
SplineSet
698 780 m 1,0,-1
 698 641 l 1,1,2
 799 637 799 637 864.5 580 c 128,-1,3
 930 523 930 523 944 429 c 0,4,5
 963 300 963 300 883 193 c 128,-1,6
 803 86 803 86 612 32 c 1,7,-1
 572 271 l 1,8,9
 682 309 682 309 702 366 c 0,10,11
 715 404 715 404 680 422 c 0,12,13
 655 435 655 435 619 428 c 2,14,-1
 415 392 l 1,15,-1
 464 -44 l 1,16,-1
 231 -44 l 1,17,-1
 186 353 l 1,18,-1
 43 328 l 1,19,-1
 43 543 l 1,20,-1
 162 564 l 1,21,-1
 138 780 l 1,22,-1
 371 780 l 1,23,-1
 391 604 l 1,24,-1
 466 617 l 1,25,-1
 466 780 l 1,26,-1
 698 780 l 1,0,-1
EndSplineSet
EndChar

StartChar: Japan1.910
Encoding: 12421 12421 912
Width: 1000
GlyphClass: 2
Flags: W
LayerCount: 2
Fore
SplineSet
666 620 m 1,0,-1
 664 565 l 1,1,2
 757 546 757 546 815 492 c 128,-1,3
 873 438 873 438 890 371.5 c 128,-1,4
 907 305 907 305 890 234 c 0,5,6
 847 55 847 55 644 12 c 1,7,-1
 641 -67 l 1,8,-1
 443 -67 l 1,9,-1
 446 2 l 1,10,-1
 385 2 l 1,11,-1
 385 192 l 1,12,-1
 453 192 l 1,13,-1
 458 343 l 1,14,15
 408 300 408 300 375.5 228 c 128,-1,16
 343 156 343 156 346 113 c 1,17,-1
 148 113 l 1,18,-1
 121 546 l 1,19,-1
 320 546 l 1,20,-1
 325 458 l 1,21,22
 383 530 383 530 466 556 c 1,23,-1
 468 620 l 1,24,-1
 666 620 l 1,0,-1
657 371 m 1,25,-1
 651 214 l 1,26,27
 691 237 691 237 700 277 c 0,28,29
 707 305 707 305 697 332 c 128,-1,30
 687 359 687 359 657 371 c 1,25,-1
EndSplineSet
EndChar

StartChar: Japan1.911
Encoding: 12422 12422 913
Width: 1000
GlyphClass: 2
Flags: W
LayerCount: 2
Fore
SplineSet
679 805 m 1,0,-1
 677 714 l 1,1,2
 747 702 747 702 802 671 c 128,-1,3
 857 640 857 640 888 599 c 128,-1,4
 919 558 919 558 938 509 c 128,-1,5
 957 460 957 460 956.5 411.5 c 128,-1,6
 956 363 956 363 948 317 c 0,7,8
 927 226 927 226 854 153 c 128,-1,9
 781 80 781 80 661 54 c 1,10,-1
 659 -61 l 1,11,-1
 439 -61 l 1,12,-1
 441 41 l 1,13,-1
 343 41 l 1,14,-1
 343 246 l 1,15,-1
 446 246 l 1,16,-1
 451 488 l 1,17,18
 381 444 381 444 332.5 349.5 c 128,-1,19
 284 255 284 255 283 166 c 1,20,-1
 63 166 l 1,21,-1
 48 701 l 1,22,-1
 268 701 l 1,23,-1
 271 587 l 1,24,25
 348 676 348 676 457 705 c 1,26,-1
 459 805 l 1,27,-1
 679 805 l 1,0,-1
672 508 m 1,28,-1
 666 275 l 1,29,30
 741 319 741 319 740.5 394.5 c 128,-1,31
 740 470 740 470 672 508 c 1,28,-1
EndSplineSet
EndChar

StartChar: Japan1.912
Encoding: 12423 12423 914
Width: 1000
GlyphClass: 2
Flags: W
LayerCount: 2
Fore
SplineSet
633 358 m 1,0,-1
 633 280 l 1,1,2
 747 240 747 240 872 152 c 1,3,-1
 800 -61 l 1,4,5
 711 10 711 10 599 62 c 1,6,7
 561 3 561 3 497 -33 c 128,-1,8
 433 -69 433 -69 358 -69 c 0,9,10
 241 -69 241 -69 180 18 c 0,11,12
 149 62 149 62 147 115.5 c 128,-1,13
 145 169 145 169 172 215 c 0,14,15
 203 268 203 268 267.5 300.5 c 128,-1,16
 332 333 332 333 418 329 c 1,17,-1
 418 635 l 1,18,-1
 633 635 l 1,19,-1
 633 567 l 1,20,-1
 873 603 l 1,21,-1
 904 398 l 1,22,-1
 633 358 l 1,0,-1
371 113 m 128,-1,24
 380 113 380 113 386.5 119.5 c 128,-1,25
 393 126 393 126 393 135 c 128,-1,26
 393 144 393 144 386.5 150.5 c 128,-1,27
 380 157 380 157 371 157 c 128,-1,28
 362 157 362 157 355.5 150.5 c 128,-1,29
 349 144 349 144 349 135 c 128,-1,30
 349 126 349 126 355.5 119.5 c 128,-1,23
 362 113 362 113 371 113 c 128,-1,24
EndSplineSet
EndChar

StartChar: Japan1.913
Encoding: 12424 12424 915
Width: 1000
GlyphClass: 2
Flags: W
LayerCount: 2
Fore
SplineSet
617 459 m 1,0,-1
 617 349 l 1,1,2
 704 320 704 320 793 273.5 c 128,-1,3
 882 227 882 227 943 185 c 1,4,-1
 843 -55 l 2,5,6
 842 -54 842 -54 811 -33.5 c 128,-1,7
 780 -13 780 -13 751 6 c 128,-1,8
 722 25 722 25 674 52 c 128,-1,9
 626 79 626 79 583 99 c 1,10,11
 548 39 548 39 486 -4.5 c 128,-1,12
 424 -48 424 -48 351 -61 c 0,13,14
 220 -84 220 -84 138.5 -27 c 128,-1,15
 57 30 57 30 43 124 c 0,16,17
 35 176 35 176 52 226 c 128,-1,18
 69 276 69 276 108 317 c 128,-1,19
 147 358 147 358 217.5 381 c 128,-1,20
 288 404 288 404 378 398 c 1,21,-1
 378 790 l 1,22,-1
 617 790 l 1,23,-1
 617 691 l 1,24,-1
 928 737 l 1,25,-1
 962 510 l 1,26,-1
 617 459 l 1,0,-1
306 135 m 128,-1,28
 321 135 321 135 332.5 146.5 c 128,-1,29
 344 158 344 158 344 173 c 128,-1,30
 344 188 344 188 332.5 199 c 128,-1,31
 321 210 321 210 306 210 c 128,-1,32
 291 210 291 210 280 199 c 128,-1,33
 269 188 269 188 269 173 c 128,-1,34
 269 158 269 158 280 146.5 c 128,-1,27
 291 135 291 135 306 135 c 128,-1,28
EndSplineSet
EndChar

StartChar: Japan1.914
Encoding: 12425 12425 916
Width: 1000
GlyphClass: 2
Flags: W
LayerCount: 2
Fore
SplineSet
852 574 m 1,0,-1
 113 597 l 1,1,-1
 113 788 l 1,2,-1
 852 765 l 1,3,-1
 852 574 l 1,0,-1
324 150 m 1,4,-1
 354 -69 l 1,5,6
 409 -67 409 -67 471.5 -59 c 128,-1,7
 534 -51 534 -51 616.5 -33.5 c 128,-1,8
 699 -16 699 -16 772 18 c 128,-1,9
 845 52 845 52 886 99 c 0,10,11
 960 186 960 186 944.5 296 c 128,-1,12
 929 406 929 406 839 460 c 0,13,14
 780 496 780 496 681 505 c 128,-1,15
 582 514 582 514 495.5 504.5 c 128,-1,16
 409 495 409 495 329 476 c 1,17,-1
 329 551 l 1,18,-1
 113 551 l 1,19,-1
 113 204 l 1,20,21
 220 235 220 235 265 247 c 128,-1,22
 310 259 310 259 399 276 c 128,-1,23
 488 293 488 293 565 297 c 0,24,25
 606 299 606 299 637 293.5 c 128,-1,26
 668 288 668 288 680 276 c 128,-1,27
 692 264 692 264 689 250 c 128,-1,28
 686 236 686 236 658.5 219.5 c 128,-1,29
 631 203 631 203 583 190 c 0,30,31
 453 155 453 155 324 150 c 1,4,-1
EndSplineSet
EndChar

StartChar: Japan1.915
Encoding: 12426 12426 917
Width: 1000
GlyphClass: 2
Flags: W
LayerCount: 2
Fore
SplineSet
907 766 m 1,0,-1
 907 463 l 2,1,2
 907 414 907 414 907 391 c 128,-1,3
 907 368 907 368 905 323 c 128,-1,4
 903 278 903 278 900 254 c 128,-1,5
 897 230 897 230 890 192 c 128,-1,6
 883 154 883 154 873.5 131 c 128,-1,7
 864 108 864 108 849 78 c 128,-1,8
 834 48 834 48 814.5 28 c 128,-1,9
 795 8 795 8 768.5 -12 c 128,-1,10
 742 -32 742 -32 710 -47 c 0,11,12
 562 -114 562 -114 341 -23 c 1,13,-1
 403 228 l 1,14,15
 541 153 541 153 601 180 c 0,16,17
 635 196 635 196 644 253.5 c 128,-1,18
 653 311 653 311 653 462 c 2,19,-1
 653 766 l 1,20,-1
 907 766 l 1,0,-1
352 717 m 1,21,-1
 95 717 l 1,22,-1
 95 271 l 1,23,-1
 352 271 l 1,24,-1
 352 717 l 1,21,-1
EndSplineSet
EndChar

StartChar: Japan1.916
Encoding: 12427 12427 918
Width: 1000
GlyphClass: 2
Flags: W
LayerCount: 2
Fore
SplineSet
431 780 m 1,0,-1
 415 618 l 1,1,2
 547 659 547 659 649.5 646 c 128,-1,3
 752 633 752 633 819.5 587 c 128,-1,4
 887 541 887 541 920 468 c 0,5,6
 966 373 966 373 935.5 256.5 c 128,-1,7
 905 140 905 140 806 61 c 0,8,9
 750 17 750 17 679.5 -14.5 c 128,-1,10
 609 -46 609 -46 537.5 -61 c 128,-1,11
 466 -76 466 -76 398.5 -72 c 128,-1,12
 331 -68 331 -68 279.5 -45 c 128,-1,13
 228 -22 228 -22 199 27 c 128,-1,14
 170 76 170 76 174 145 c 0,15,16
 179 196 179 196 208.5 235 c 128,-1,17
 238 274 238 274 279.5 294.5 c 128,-1,18
 321 315 321 315 370 320 c 128,-1,19
 419 325 419 325 463 313 c 128,-1,20
 507 301 507 301 541 268 c 128,-1,21
 575 235 575 235 586 187 c 1,22,23
 627 202 627 202 657.5 232 c 128,-1,24
 688 262 688 262 697.5 295.5 c 128,-1,25
 707 329 707 329 698.5 359.5 c 128,-1,26
 690 390 690 390 651 409.5 c 128,-1,27
 612 429 612 429 549 428 c 0,28,29
 407 425 407 425 168 312 c 1,30,-1
 200 570 l 1,31,-1
 42 570 l 1,32,-1
 42 780 l 1,33,-1
 431 780 l 1,0,-1
398 97 m 0,34,35
 409 97 409 97 416.5 105 c 128,-1,36
 424 113 424 113 424 124 c 128,-1,37
 424 135 424 135 416.5 142.5 c 128,-1,38
 409 150 409 150 398 150 c 0,39,40
 386 150 386 150 378.5 142.5 c 128,-1,41
 371 135 371 135 371 124 c 128,-1,42
 371 113 371 113 378.5 105 c 128,-1,43
 386 97 386 97 398 97 c 0,34,35
EndSplineSet
EndChar

StartChar: Japan1.917
Encoding: 12428 12428 919
Width: 1000
GlyphClass: 2
Flags: W
LayerCount: 2
Fore
SplineSet
972 225 m 1,0,-1
 996 -6 l 1,1,2
 829 -70 829 -70 722.5 -6 c 128,-1,3
 616 58 616 58 616 206 c 2,4,-1
 616 469 l 1,5,6
 518 418 518 418 432 336 c 1,7,-1
 432 -45 l 1,8,-1
 205 -45 l 1,9,-1
 205 141 l 1,10,-1
 135 64 l 1,11,-1
 10 234 l 1,12,13
 105 341 105 341 205 427 c 1,14,-1
 205 458 l 1,15,-1
 73 470 l 1,16,-1
 73 666 l 1,17,-1
 205 654 l 1,18,-1
 205 780 l 1,19,-1
 432 780 l 1,20,-1
 432 592 l 1,21,22
 636 745 636 745 840 791 c 1,23,-1
 840 222 l 2,24,25
 840 199 840 199 852 190.5 c 128,-1,26
 864 182 864 182 884.5 186.5 c 128,-1,27
 905 191 905 191 926.5 200.5 c 128,-1,28
 948 210 948 210 972 225 c 1,0,-1
EndSplineSet
EndChar

StartChar: Japan1.918
Encoding: 12429 12429 920
Width: 1000
GlyphClass: 2
Flags: W
LayerCount: 2
Fore
SplineSet
338 -61 m 1,0,-1
 338 182 l 1,1,2
 389 184 389 184 447.5 194.5 c 128,-1,3
 506 205 506 205 564.5 224 c 128,-1,4
 623 243 623 243 665 276 c 128,-1,5
 707 309 707 309 715 349 c 0,6,7
 722 388 722 388 687.5 412.5 c 128,-1,8
 653 437 653 437 581 434 c 0,9,10
 420 427 420 427 188 308 c 1,11,-1
 220 569 l 1,12,-1
 47 569 l 1,13,-1
 47 785 l 1,14,-1
 462 785 l 1,15,-1
 446 625 l 1,16,17
 558 658 558 658 635 656 c 0,18,19
 719 654 719 654 788 618.5 c 128,-1,20
 857 583 857 583 899 529 c 128,-1,21
 941 475 941 475 955 405.5 c 128,-1,22
 969 336 969 336 952.5 268 c 128,-1,23
 936 200 936 200 878 134 c 128,-1,24
 820 68 820 68 727 24 c 0,25,26
 634 -18 634 -18 526 -39.5 c 128,-1,27
 418 -61 418 -61 338 -61 c 1,0,-1
EndSplineSet
EndChar

StartChar: Japan1.919
Encoding: 12430 12430 921
Width: 1000
GlyphClass: 2
Flags: W
LayerCount: 2
Fore
SplineSet
452 665 m 1,0,-1
 452 565 l 1,1,2
 583 630 583 630 699 599 c 0,3,4
 762 582 762 582 807.5 540.5 c 128,-1,5
 853 499 853 499 876 439.5 c 128,-1,6
 899 380 899 380 900 309 c 128,-1,7
 901 238 901 238 873.5 156.5 c 128,-1,8
 846 75 846 75 792 -5 c 1,9,-1
 570 33 l 1,10,11
 643 113 643 113 676 199.5 c 128,-1,12
 709 286 709 286 697.5 344.5 c 128,-1,13
 686 403 686 403 638 416 c 0,14,15
 564 437 564 437 452 345 c 1,16,-1
 452 -1 l 1,17,-1
 262 -1 l 1,18,-1
 262 137 l 1,19,20
 225 86 225 86 218 75 c 1,21,-1
 108 247 l 1,22,23
 120 263 120 263 139.5 284.5 c 128,-1,24
 159 306 159 306 174.5 322 c 128,-1,25
 190 338 190 338 216.5 364.5 c 128,-1,26
 243 391 243 391 255 403 c 1,27,-1
 165 409 l 1,28,-1
 165 582 l 1,29,-1
 262 572 l 1,30,-1
 262 665 l 1,31,-1
 452 665 l 1,0,-1
EndSplineSet
EndChar

StartChar: Japan1.920
Encoding: 12431 12431 922
Width: 1000
GlyphClass: 2
Flags: W
LayerCount: 2
Fore
SplineSet
433 784 m 1,0,-1
 433 620 l 1,1,2
 573 697 573 697 684.5 683.5 c 128,-1,3
 796 670 796 670 868.5 605 c 128,-1,4
 941 540 941 540 967 445 c 0,5,6
 998 332 998 332 965 196.5 c 128,-1,7
 932 61 932 61 844 -66 c 1,8,-1
 590 -2 l 1,9,10
 690 104 690 104 728 205.5 c 128,-1,11
 766 307 766 307 746 381 c 0,12,13
 728 446 728 446 678.5 463 c 128,-1,14
 629 480 629 480 565 454.5 c 128,-1,15
 501 429 501 429 433 370 c 1,16,-1
 433 -38 l 1,17,-1
 213 -38 l 1,18,-1
 213 151 l 1,19,20
 185 116 185 116 143 54 c 1,21,-1
 6 241 l 1,22,23
 65 320 65 320 217 466 c 1,24,-1
 80 478 l 1,25,-1
 80 670 l 1,26,-1
 213 658 l 1,27,-1
 213 784 l 1,28,-1
 433 784 l 1,0,-1
EndSplineSet
EndChar

StartChar: Japan1.921
Encoding: 12432 12432 923
Width: 1000
GlyphClass: 2
Flags: W
LayerCount: 2
Fore
SplineSet
120 778 m 1,0,-1
 618 778 l 1,1,2
 580 603 580 603 574 578 c 1,3,4
 784 572 784 572 883.5 469 c 128,-1,5
 983 366 983 366 973 203 c 0,6,7
 965 76 965 76 895 7.5 c 128,-1,8
 825 -61 825 -61 727 -61 c 0,9,10
 632 -61 632 -61 573 -16.5 c 128,-1,11
 514 28 514 28 499 95 c 0,12,13
 479 187 479 187 543.5 265 c 128,-1,14
 608 343 608 343 725 338 c 1,15,16
 660 396 660 396 527 386 c 1,17,18
 475 191 475 191 433 103 c 0,19,20
 395 23 395 23 328 -16 c 128,-1,21
 261 -55 261 -55 187 -39 c 0,22,23
 117 -25 117 -25 72 28.5 c 128,-1,24
 27 82 27 82 25 153 c 0,25,26
 22 269 22 269 124.5 386.5 c 128,-1,27
 227 504 227 504 371 551 c 1,28,29
 372 557 372 557 374.5 572 c 128,-1,30
 377 587 377 587 379 593 c 1,31,-1
 120 593 l 1,32,-1
 120 778 l 1,0,-1
260 184 m 0,33,34
 275 215 275 215 300 292 c 1,35,36
 218 228 218 228 211 175 c 0,37,38
 208 149 208 149 225 149 c 0,39,40
 243 149 243 149 260 184 c 0,33,34
728 115 m 128,-1,42
 739 115 739 115 747 123 c 128,-1,43
 755 131 755 131 755 142 c 0,44,45
 755 154 755 154 747 162 c 128,-1,46
 739 170 739 170 728 170 c 128,-1,47
 717 170 717 170 708.5 162 c 128,-1,48
 700 154 700 154 700 142 c 0,49,50
 700 131 700 131 708.5 123 c 128,-1,41
 717 115 717 115 728 115 c 128,-1,42
EndSplineSet
EndChar

StartChar: Japan1.922
Encoding: 12433 12433 924
Width: 1000
GlyphClass: 2
Flags: W
LayerCount: 2
Fore
SplineSet
664 187 m 1,0,-1
 842 246 l 1,1,2
 948 105 948 105 989 -41 c 1,3,-1
 804 -63 l 1,4,5
 794 -33 794 -33 776 4 c 1,6,7
 676 -39 676 -39 603 -51.5 c 128,-1,8
 530 -64 530 -64 488 -52.5 c 128,-1,9
 446 -41 446 -41 416 -22.5 c 128,-1,10
 386 -4 386 -4 350.5 13.5 c 128,-1,11
 315 31 315 31 275 30 c 0,12,13
 264 30 264 30 251.5 27.5 c 128,-1,14
 239 25 239 25 222 18 c 128,-1,15
 205 11 205 11 194 6.5 c 128,-1,16
 183 2 183 2 157 -9.5 c 128,-1,17
 131 -21 131 -21 119 -26 c 2,18,-1
 15 -71 l 1,19,-1
 15 127 l 1,20,21
 156 195 156 195 224 283 c 1,22,23
 193 305 193 305 168 331 c 1,24,-1
 72 285 l 1,25,-1
 8 445 l 1,26,-1
 353 595 l 1,27,-1
 149 595 l 1,28,-1
 149 766 l 1,29,-1
 827 766 l 1,30,-1
 827 639 l 1,31,-1
 717 589 l 1,32,33
 844 559 844 559 887 475 c 0,34,35
 926 399 926 399 875 325 c 0,36,37
 811 233 811 233 647 209 c 0,38,39
 597 201 597 201 540 201 c 0,40,41
 464 201 464 201 387 217 c 1,42,-1
 355 182 l 1,43,44
 393 178 393 178 425.5 164 c 128,-1,45
 458 150 458 150 478 138 c 128,-1,46
 498 126 498 126 524.5 118.5 c 128,-1,47
 551 111 551 111 591 119 c 128,-1,48
 631 127 631 127 689 155 c 1,49,-1
 664 187 l 1,0,-1
503 372 m 2,50,-1
 503 365 l 1,51,52
 534 362 534 362 574.5 364.5 c 128,-1,53
 615 367 615 367 653 380 c 128,-1,54
 691 393 691 393 690 415 c 128,-1,55
 689 437 689 437 644.5 447.5 c 128,-1,56
 600 458 600 458 553.5 456 c 128,-1,57
 507 454 507 454 478 452 c 1,58,59
 503 416 503 416 503 372 c 2,50,-1
337 380 m 128,-1,61
 343 380 343 380 347 384.5 c 128,-1,62
 351 389 351 389 351 394 c 0,63,64
 351 409 351 409 337 409 c 128,-1,65
 323 409 323 409 323 394 c 0,66,67
 323 389 323 389 327 384.5 c 128,-1,60
 331 380 331 380 337 380 c 128,-1,61
EndSplineSet
EndChar

StartChar: Japan1.923
Encoding: 12434 12434 925
Width: 1000
GlyphClass: 2
Flags: W
LayerCount: 2
Fore
SplineSet
547 555 m 1,0,-1
 547 517 l 1,1,2
 762 568 762 568 913 568 c 1,3,-1
 913 334 l 1,4,5
 756 334 756 334 623 306 c 1,6,-1
 661 244 l 1,7,-1
 460 166 l 1,8,-1
 421 236 l 1,9,10
 383 212 383 212 378 191 c 0,11,12
 373 172 373 172 397 160 c 128,-1,13
 421 148 421 148 471 145.5 c 128,-1,14
 521 143 521 143 568.5 143.5 c 128,-1,15
 616 144 616 144 682 149.5 c 128,-1,16
 748 155 748 155 777.5 158 c 128,-1,17
 807 161 807 161 846 165 c 1,18,-1
 846 -62 l 1,19,20
 776 -71 776 -71 707.5 -75 c 128,-1,21
 639 -79 639 -79 554.5 -78.5 c 128,-1,22
 470 -78 470 -78 399 -65 c 128,-1,23
 328 -52 328 -52 264.5 -28 c 128,-1,24
 201 -4 201 -4 161 41 c 128,-1,25
 121 86 121 86 112 148 c 0,26,27
 87 321 87 321 307 435 c 1,28,-1
 307 526 l 1,29,-1
 123 505 l 1,30,-1
 106 696 l 1,31,-1
 307 719 l 1,32,-1
 307 782 l 1,33,-1
 547 782 l 1,34,-1
 547 747 l 1,35,-1
 703 765 l 1,36,-1
 720 575 l 1,37,-1
 547 555 l 1,0,-1
EndSplineSet
EndChar

StartChar: Japan1.924
Encoding: 12435 12435 926
Width: 1000
GlyphClass: 2
Flags: W
LayerCount: 2
Fore
SplineSet
921 281 m 1,0,-1
 992 42 l 1,1,2
 908 -14 908 -14 812.5 -26 c 128,-1,3
 717 -38 717 -38 625 -2 c 0,4,5
 550 29 550 29 511.5 87 c 128,-1,6
 473 145 473 145 464 253 c 1,7,-1
 346 231 l 1,8,-1
 281 -32 l 1,9,-1
 31 -32 l 1,10,-1
 236 785 l 1,11,-1
 486 785 l 1,12,-1
 409 477 l 1,13,-1
 661 522 l 1,14,15
 671 301 671 301 699 263 c 0,16,17
 770 166 770 166 921 281 c 1,0,-1
EndSplineSet
EndChar

StartChar: Japan1.925
Encoding: 12449 12449 927
Width: 1000
GlyphClass: 2
Flags: W
LayerCount: 2
Fore
SplineSet
596 406 m 1,0,-1
 157 406 l 1,1,-1
 157 609 l 1,2,-1
 868 609 l 1,3,-1
 731 135 l 1,4,-1
 517 150 l 1,5,-1
 596 406 l 1,0,-1
187 -40 m 1,6,-1
 293 298 l 1,7,-1
 513 298 l 1,8,-1
 402 -55 l 1,9,-1
 187 -40 l 1,6,-1
EndSplineSet
EndChar

StartChar: Japan1.926
Encoding: 12450 12450 928
Width: 1000
GlyphClass: 2
Flags: W
LayerCount: 2
Fore
SplineSet
656 527 m 1,0,-1
 98 527 l 1,1,-1
 98 751 l 1,2,-1
 978 751 l 1,3,-1
 796 179 l 1,4,-1
 541 195 l 1,5,-1
 656 527 l 1,0,-1
128 -26 m 1,6,-1
 281 419 l 1,7,-1
 543 419 l 1,8,-1
 384 -44 l 1,9,-1
 128 -26 l 1,6,-1
EndSplineSet
EndChar

StartChar: Japan1.927
Encoding: 12451 12451 929
Width: 1000
GlyphClass: 2
Flags: W
LayerCount: 2
Fore
SplineSet
631 347 m 1,0,-1
 631 -49 l 1,1,-1
 407 -49 l 1,2,-1
 407 294 l 1,3,-1
 131 228 l 1,4,-1
 131 458 l 1,5,-1
 838 627 l 1,6,-1
 855 401 l 1,7,-1
 631 347 l 1,0,-1
EndSplineSet
EndChar

StartChar: Japan1.928
Encoding: 12452 12452 930
Width: 1000
GlyphClass: 2
Flags: W
LayerCount: 2
Fore
SplineSet
971 530 m 1,0,-1
 671 458 l 1,1,-1
 671 -37 l 1,2,-1
 409 -37 l 1,3,-1
 409 399 l 1,4,-1
 48 311 l 1,5,-1
 48 564 l 1,6,-1
 950 778 l 1,7,-1
 971 530 l 1,0,-1
EndSplineSet
EndChar

StartChar: Japan1.929
Encoding: 12453 12453 931
Width: 1000
GlyphClass: 2
Flags: W
LayerCount: 2
Fore
SplineSet
901 528 m 1,0,-1
 705 -50 l 1,1,-1
 475 -34 l 1,2,-1
 610 343 l 1,3,-1
 361 343 l 1,4,-1
 361 226 l 1,5,-1
 142 226 l 1,6,-1
 142 528 l 1,7,-1
 390 528 l 1,8,-1
 390 612 l 1,9,-1
 601 612 l 1,10,-1
 601 528 l 1,11,-1
 901 528 l 1,0,-1
EndSplineSet
EndChar

StartChar: Japan1.930
Encoding: 12454 12454 932
Width: 1000
GlyphClass: 2
Flags: W
LayerCount: 2
Fore
SplineSet
985 659 m 1,0,-1
 734 -44 l 1,1,-1
 470 -25 l 1,2,-1
 643 453 l 1,3,-1
 318 453 l 1,4,-1
 318 297 l 1,5,-1
 65 297 l 1,6,-1
 65 659 l 1,7,-1
 377 659 l 1,8,-1
 377 781 l 1,9,-1
 611 781 l 1,10,-1
 611 659 l 1,11,-1
 985 659 l 1,0,-1
EndSplineSet
EndChar

StartChar: Japan1.931
Encoding: 12455 12455 933
Width: 1000
GlyphClass: 2
Flags: W
LayerCount: 2
Fore
SplineSet
862 170 m 1,0,-1
 862 -32 l 1,1,-1
 161 -32 l 1,2,-1
 161 170 l 1,3,-1
 401 170 l 1,4,-1
 401 394 l 1,5,-1
 209 394 l 1,6,-1
 209 597 l 1,7,-1
 826 597 l 1,8,-1
 826 394 l 1,9,-1
 621 394 l 1,10,-1
 621 170 l 1,11,-1
 862 170 l 1,0,-1
EndSplineSet
EndChar

StartChar: Japan1.932
Encoding: 12456 12456 934
Width: 1000
GlyphClass: 2
Flags: W
LayerCount: 2
Fore
SplineSet
946 203 m 1,0,-1
 946 -21 l 1,1,-1
 65 -21 l 1,2,-1
 65 203 l 1,3,-1
 383 203 l 1,4,-1
 383 505 l 1,5,-1
 114 505 l 1,6,-1
 114 729 l 1,7,-1
 898 729 l 1,8,-1
 898 505 l 1,9,-1
 628 505 l 1,10,-1
 628 203 l 1,11,-1
 946 203 l 1,0,-1
EndSplineSet
EndChar

StartChar: Japan1.933
Encoding: 12457 12457 935
Width: 1000
GlyphClass: 2
Flags: W
LayerCount: 2
Fore
SplineSet
875 338 m 1,0,-1
 779 338 l 1,1,-1
 779 -35 l 1,2,-1
 566 -35 l 1,3,-1
 566 338 l 1,4,-1
 516 338 l 1,5,-1
 407 -52 l 1,6,-1
 194 -35 l 1,7,-1
 298 338 l 1,8,-1
 171 338 l 1,9,-1
 171 539 l 1,10,-1
 566 539 l 1,11,-1
 566 625 l 1,12,-1
 779 625 l 1,13,-1
 779 539 l 1,14,-1
 875 539 l 1,15,-1
 875 338 l 1,0,-1
EndSplineSet
EndChar

StartChar: Japan1.934
Encoding: 12458 12458 936
Width: 1000
GlyphClass: 2
Flags: W
LayerCount: 2
Fore
SplineSet
951 664 m 1,0,-1
 951 442 l 1,1,-1
 818 442 l 1,2,-1
 818 -35 l 1,3,-1
 580 -35 l 1,4,-1
 580 442 l 1,5,-1
 498 442 l 1,6,-1
 357 -41 l 1,7,-1
 109 -23 l 1,8,-1
 256 442 l 1,9,-1
 84 442 l 1,10,-1
 84 664 l 1,11,-1
 580 664 l 1,12,-1
 580 782 l 1,13,-1
 818 782 l 1,14,-1
 818 664 l 1,15,-1
 951 664 l 1,0,-1
EndSplineSet
EndChar

StartChar: Japan1.935
Encoding: 12459 12459 937
Width: 1000
GlyphClass: 2
Flags: W
LayerCount: 2
Fore
SplineSet
957 609 m 1,0,-1
 826 -36 l 1,1,-1
 575 -19 l 1,2,-1
 661 387 l 1,3,-1
 481 387 l 1,4,-1
 380 -38 l 1,5,-1
 134 -20 l 1,6,-1
 231 387 l 1,7,-1
 65 387 l 1,8,-1
 65 609 l 1,9,-1
 284 609 l 1,10,-1
 324 776 l 1,11,-1
 574 776 l 1,12,-1
 533 609 l 1,13,-1
 957 609 l 1,0,-1
EndSplineSet
EndChar

StartChar: Japan1.936
Encoding: 12460 12460 938
Width: 1000
GlyphClass: 2
Flags: W
LayerCount: 2
Fore
SplineSet
828 645 m 5,0,-1
 729 645 l 5,1,-1
 729 796 l 5,2,-1
 828 796 l 5,3,-1
 828 645 l 5,0,-1
963 645 m 5,4,-1
 865 645 l 5,5,-1
 865 796 l 5,6,-1
 963 796 l 5,7,-1
 963 645 l 5,4,-1
833 -36 m 1,8,-1
 586 -19 l 1,9,-1
 672 388 l 1,10,-1
 491 388 l 1,11,-1
 390 -37 l 1,12,-1
 144 -20 l 1,13,-1
 241 388 l 1,14,-1
 75 388 l 1,15,-1
 75 610 l 1,16,-1
 294 610 l 1,17,-1
 334 777 l 1,18,-1
 584 777 l 1,19,-1
 543 610 l 1,20,-1
 964 610 l 1,21,-1
 833 -36 l 1,8,-1
EndSplineSet
EndChar

StartChar: Japan1.937
Encoding: 12461 12461 939
Width: 1000
GlyphClass: 2
Flags: W
LayerCount: 2
Fore
SplineSet
732 172 m 1,0,-1
 779 -29 l 1,1,-1
 531 -59 l 1,2,-1
 484 148 l 1,3,-1
 98 107 l 1,4,-1
 76 325 l 1,5,-1
 437 361 l 1,6,-1
 423 427 l 1,7,-1
 71 390 l 1,8,-1
 47 606 l 1,9,-1
 377 641 l 1,10,-1
 346 781 l 1,11,-1
 594 803 l 1,12,-1
 626 665 l 1,13,-1
 923 694 l 1,14,-1
 944 478 l 1,15,-1
 673 451 l 1,16,-1
 686 386 l 1,17,-1
 949 411 l 1,18,-1
 973 195 l 1,19,-1
 732 172 l 1,0,-1
EndSplineSet
EndChar

StartChar: Japan1.938
Encoding: 12462 12462 940
Width: 1000
GlyphClass: 2
Flags: W
LayerCount: 2
Fore
SplineSet
826 701 m 1,0,-1
 727 701 l 1,1,-1
 727 855 l 1,2,-1
 826 855 l 1,3,-1
 826 701 l 1,0,-1
964 701 m 1,4,-1
 865 701 l 1,5,-1
 865 855 l 1,6,-1
 964 855 l 1,7,-1
 964 701 l 1,4,-1
968 196 m 1,8,-1
 944 413 l 1,9,-1
 681 386 l 1,10,-1
 668 452 l 1,11,-1
 939 479 l 1,12,-1
 921 666 l 1,13,-1
 621 666 l 1,14,-1
 588 804 l 1,15,-1
 340 781 l 1,16,-1
 371 640 l 1,17,-1
 41 607 l 1,18,-1
 65 390 l 1,19,-1
 417 426 l 1,20,-1
 431 362 l 1,21,-1
 70 324 l 1,22,-1
 92 108 l 1,23,-1
 478 148 l 1,24,-1
 525 -60 l 1,25,-1
 775 -28 l 1,26,-1
 727 173 l 1,27,-1
 968 196 l 1,8,-1
EndSplineSet
EndChar

StartChar: Japan1.939
Encoding: 12463 12463 941
Width: 1000
GlyphClass: 2
Flags: W
LayerCount: 2
Fore
SplineSet
639 532 m 1,0,-1
 381 532 l 1,1,-1
 262 276 l 1,2,-1
 6 294 l 1,3,-1
 213 740 l 1,4,-1
 991 740 l 1,5,-1
 664 -41 l 1,6,-1
 402 -22 l 1,7,-1
 639 532 l 1,0,-1
EndSplineSet
EndChar

StartChar: Japan1.940
Encoding: 12464 12464 942
Width: 1000
GlyphClass: 2
Flags: W
LayerCount: 2
Fore
SplineSet
696 661 m 1,0,-1
 695 741 l 1,1,-1
 221 741 l 1,2,-1
 14 295 l 1,3,-1
 270 278 l 1,4,-1
 390 533 l 1,5,-1
 653 533 l 1,6,-1
 414 -21 l 1,7,-1
 670 -40 l 1,8,-1
 963 661 l 1,9,-1
 696 661 l 1,0,-1
833 691 m 1,10,-1
 734 691 l 1,11,-1
 734 843 l 1,12,-1
 833 843 l 1,13,-1
 833 691 l 1,10,-1
968 691 m 1,14,-1
 870 691 l 1,15,-1
 870 843 l 1,16,-1
 968 843 l 1,17,-1
 968 691 l 1,14,-1
EndSplineSet
EndChar

StartChar: Japan1.941
Encoding: 12465 12465 943
Width: 1000
GlyphClass: 2
Flags: W
LayerCount: 2
Fore
SplineSet
975 454 m 1,0,-1
 781 454 l 1,1,-1
 588 -43 l 1,2,-1
 333 -25 l 1,3,-1
 524 454 l 1,4,-1
 352 454 l 1,5,-1
 249 218 l 1,6,-1
 2 236 l 1,7,-1
 240 781 l 1,8,-1
 495 781 l 1,9,-1
 442 660 l 1,10,-1
 975 660 l 1,11,-1
 975 454 l 1,0,-1
EndSplineSet
EndChar

StartChar: Japan1.942
Encoding: 12466 12466 944
Width: 1000
GlyphClass: 2
Flags: W
LayerCount: 2
Fore
SplineSet
817 697 m 1,0,-1
 718 697 l 1,1,-1
 718 848 l 1,2,-1
 817 848 l 1,3,-1
 817 697 l 1,0,-1
953 697 m 1,4,-1
 855 697 l 1,5,-1
 855 848 l 1,6,-1
 953 848 l 1,7,-1
 953 697 l 1,4,-1
786 455 m 1,8,-1
 593 -43 l 1,9,-1
 338 -25 l 1,10,-1
 529 455 l 1,11,-1
 357 455 l 1,12,-1
 254 218 l 1,13,-1
 7 235 l 1,14,-1
 245 781 l 1,15,-1
 500 781 l 1,16,-1
 447 661 l 1,17,-1
 980 661 l 1,18,-1
 980 455 l 1,19,-1
 786 455 l 1,8,-1
EndSplineSet
EndChar

StartChar: Japan1.943
Encoding: 12467 12467 945
Width: 1000
GlyphClass: 2
Flags: W
LayerCount: 2
Fore
SplineSet
910 736 m 1,0,-1
 910 -29 l 1,1,-1
 111 -29 l 1,2,-1
 111 196 l 1,3,-1
 661 196 l 1,4,-1
 661 512 l 1,5,-1
 107 512 l 1,6,-1
 107 736 l 1,7,-1
 910 736 l 1,0,-1
EndSplineSet
EndChar

StartChar: Japan1.944
Encoding: 12468 12468 946
Width: 1000
GlyphClass: 2
Flags: W
LayerCount: 2
Fore
SplineSet
814 689 m 1,0,-1
 715 689 l 1,1,-1
 715 841 l 1,2,-1
 814 841 l 1,3,-1
 814 689 l 1,0,-1
949 689 m 1,4,-1
 851 689 l 1,5,-1
 851 841 l 1,6,-1
 949 841 l 1,7,-1
 949 689 l 1,4,-1
680 658 m 1,8,-1
 680 736 l 1,9,-1
 118 736 l 1,10,-1
 118 512 l 1,11,-1
 668 512 l 1,12,-1
 668 196 l 1,13,-1
 121 196 l 1,14,-1
 121 -29 l 1,15,-1
 917 -29 l 1,16,-1
 917 658 l 1,17,-1
 680 658 l 1,8,-1
EndSplineSet
EndChar

StartChar: Japan1.945
Encoding: 12469 12469 947
Width: 1000
GlyphClass: 2
Flags: W
LayerCount: 2
Fore
SplineSet
972 406 m 1,0,-1
 820 406 l 1,1,-1
 722 -43 l 1,2,-1
 476 -25 l 1,3,-1
 575 406 l 1,4,-1
 395 406 l 1,5,-1
 395 181 l 1,6,-1
 156 181 l 1,7,-1
 156 406 l 1,8,-1
 32 406 l 1,9,-1
 32 615 l 1,10,-1
 156 615 l 1,11,-1
 156 772 l 1,12,-1
 395 772 l 1,13,-1
 395 615 l 1,14,-1
 621 615 l 1,15,-1
 658 780 l 1,16,-1
 899 763 l 1,17,-1
 866 615 l 1,18,-1
 972 615 l 1,19,-1
 972 406 l 1,0,-1
EndSplineSet
EndChar

StartChar: Japan1.946
Encoding: 12470 12470 948
Width: 1000
GlyphClass: 2
Flags: W
LayerCount: 2
Fore
SplineSet
829 695 m 1,0,-1
 730 695 l 1,1,-1
 730 848 l 1,2,-1
 829 848 l 1,3,-1
 829 695 l 1,0,-1
967 695 m 1,4,-1
 868 695 l 1,5,-1
 868 848 l 1,6,-1
 967 848 l 1,7,-1
 967 695 l 1,4,-1
881 664 m 1,8,-1
 694 664 l 1,9,-1
 694 779 l 1,10,-1
 663 781 l 1,11,-1
 626 617 l 1,12,-1
 400 617 l 1,13,-1
 400 774 l 1,14,-1
 161 774 l 1,15,-1
 161 617 l 1,16,-1
 37 617 l 1,17,-1
 37 408 l 1,18,-1
 161 408 l 1,19,-1
 161 181 l 1,20,-1
 400 181 l 1,21,-1
 400 408 l 1,22,-1
 580 408 l 1,23,-1
 481 -24 l 1,24,-1
 727 -42 l 1,25,-1
 826 408 l 1,26,-1
 978 408 l 1,27,-1
 978 617 l 1,28,-1
 872 617 l 1,29,-1
 881 664 l 1,8,-1
EndSplineSet
EndChar

StartChar: Japan1.947
Encoding: 12471 12471 949
Width: 1000
GlyphClass: 2
Flags: W
LayerCount: 2
Fore
SplineSet
499 552 m 1,0,-1
 69 552 l 1,1,-1
 69 763 l 1,2,-1
 499 763 l 1,3,-1
 499 552 l 1,0,-1
629 -40 m 1,4,-1
 999 567 l 1,5,-1
 705 567 l 1,6,-1
 348 -19 l 1,7,-1
 629 -40 l 1,4,-1
499 285 m 1,8,-1
 69 285 l 1,9,-1
 69 496 l 1,10,-1
 499 496 l 1,11,-1
 499 285 l 1,8,-1
EndSplineSet
EndChar

StartChar: Japan1.948
Encoding: 12472 12472 950
Width: 1000
GlyphClass: 2
Flags: W
LayerCount: 2
Fore
SplineSet
52 552 m 1,0,-1
 52 763 l 1,1,-1
 475 763 l 1,2,-1
 475 552 l 1,3,-1
 52 552 l 1,0,-1
796 602 m 1,4,-1
 698 602 l 1,5,-1
 698 753 l 1,6,-1
 796 753 l 1,7,-1
 796 602 l 1,4,-1
933 602 m 1,8,-1
 835 602 l 1,9,-1
 835 753 l 1,10,-1
 933 753 l 1,11,-1
 933 602 l 1,8,-1
983 567 m 1,12,-1
 689 567 l 1,13,-1
 332 -19 l 1,14,-1
 613 -40 l 1,15,-1
 983 567 l 1,12,-1
52 285 m 1,16,-1
 52 496 l 1,17,-1
 475 496 l 1,18,-1
 475 285 l 1,19,-1
 52 285 l 1,16,-1
EndSplineSet
EndChar

StartChar: Japan1.949
Encoding: 12473 12473 951
Width: 1000
GlyphClass: 2
Flags: W
LayerCount: 2
Fore
SplineSet
963 170 m 1,0,-1
 833 -37 l 1,1,-1
 505 184 l 1,2,-1
 334 -33 l 1,3,-1
 53 -2 l 1,4,-1
 479 538 l 1,5,-1
 98 538 l 1,6,-1
 98 749 l 1,7,-1
 950 749 l 1,8,-1
 656 377 l 1,9,-1
 963 170 l 1,0,-1
EndSplineSet
EndChar

StartChar: Japan1.950
Encoding: 12474 12474 952
Width: 1000
GlyphClass: 2
Flags: W
LayerCount: 2
Fore
SplineSet
826 698 m 1,0,-1
 728 698 l 1,1,-1
 728 850 l 1,2,-1
 826 850 l 1,3,-1
 826 698 l 1,0,-1
962 698 m 1,4,-1
 864 698 l 1,5,-1
 864 850 l 1,6,-1
 962 850 l 1,7,-1
 962 698 l 1,4,-1
885 667 m 1,8,-1
 692 667 l 1,9,-1
 692 750 l 1,10,-1
 107 750 l 1,11,-1
 107 539 l 1,12,-1
 482 539 l 1,13,-1
 64 -1 l 1,14,-1
 346 -32 l 1,15,-1
 511 183 l 1,16,-1
 846 -39 l 1,17,-1
 972 171 l 1,18,-1
 661 378 l 1,19,-1
 885 667 l 1,8,-1
EndSplineSet
EndChar

StartChar: Japan1.951
Encoding: 12475 12475 953
Width: 1000
GlyphClass: 2
Flags: W
LayerCount: 2
Fore
SplineSet
426 183 m 1,0,-1
 821 183 l 1,1,-1
 821 -26 l 1,2,-1
 190 -26 l 1,3,-1
 190 453 l 1,4,-1
 48 453 l 1,5,-1
 48 658 l 1,6,-1
 190 658 l 1,7,-1
 190 773 l 1,8,-1
 426 773 l 1,9,-1
 426 658 l 1,10,-1
 968 658 l 1,11,-1
 824 248 l 1,12,-1
 589 256 l 1,13,-1
 658 453 l 1,14,-1
 426 453 l 1,15,-1
 426 183 l 1,0,-1
EndSplineSet
EndChar

StartChar: Japan1.952
Encoding: 12476 12476 954
Width: 1000
GlyphClass: 2
Flags: W
LayerCount: 2
Fore
SplineSet
835 693 m 1,0,-1
 736 693 l 1,1,-1
 736 844 l 1,2,-1
 835 844 l 1,3,-1
 835 693 l 1,0,-1
970 693 m 1,4,-1
 872 693 l 1,5,-1
 872 844 l 1,6,-1
 970 844 l 1,7,-1
 970 693 l 1,4,-1
831 183 m 1,8,-1
 831 -26 l 1,9,-1
 195 -26 l 1,10,-1
 195 453 l 1,11,-1
 53 453 l 1,12,-1
 53 659 l 1,13,-1
 195 659 l 1,14,-1
 195 774 l 1,15,-1
 431 774 l 1,16,-1
 431 659 l 1,17,-1
 974 659 l 1,18,-1
 830 247 l 1,19,-1
 594 256 l 1,20,-1
 663 453 l 1,21,-1
 431 453 l 1,22,-1
 431 183 l 1,23,-1
 831 183 l 1,8,-1
EndSplineSet
EndChar

StartChar: Japan1.953
Encoding: 12477 12477 955
Width: 1000
GlyphClass: 2
Flags: W
LayerCount: 2
Fore
SplineSet
153 296 m 1,0,-1
 49 741 l 1,1,-1
 305 741 l 1,2,-1
 405 315 l 1,3,-1
 153 296 l 1,0,-1
337 -28 m 1,4,-1
 699 694 l 1,5,-1
 980 694 l 1,6,-1
 608 -47 l 1,7,-1
 337 -28 l 1,4,-1
EndSplineSet
EndChar

StartChar: Japan1.954
Encoding: 12478 12478 956
Width: 1000
GlyphClass: 2
Flags: W
LayerCount: 2
Fore
SplineSet
805 694 m 1,0,-1
 706 694 l 1,1,-1
 706 846 l 1,2,-1
 805 846 l 1,3,-1
 805 694 l 1,0,-1
940 694 m 1,4,-1
 842 694 l 1,5,-1
 842 846 l 1,6,-1
 940 846 l 1,7,-1
 940 694 l 1,4,-1
310 741 m 1,8,-1
 54 741 l 1,9,-1
 158 296 l 1,10,-1
 410 315 l 1,11,-1
 310 741 l 1,8,-1
689 663 m 1,12,-1
 342 -28 l 1,13,-1
 613 -47 l 1,14,-1
 970 663 l 1,15,-1
 689 663 l 1,12,-1
EndSplineSet
EndChar

StartChar: Japan1.955
Encoding: 12479 12479 957
Width: 1000
GlyphClass: 2
Flags: W
LayerCount: 2
Fore
SplineSet
999 750 m 1,0,-1
 671 -38 l 1,1,-1
 419 -20 l 1,2,-1
 529 235 l 1,3,-1
 382 247 l 1,4,-1
 390 453 l 1,5,-1
 610 428 l 1,6,-1
 664 552 l 1,7,-1
 375 552 l 1,8,-1
 247 261 l 1,9,-1
 2 278 l 1,10,-1
 208 750 l 1,11,-1
 999 750 l 1,0,-1
EndSplineSet
EndChar

StartChar: Japan1.956
Encoding: 12480 12480 958
Width: 1000
GlyphClass: 2
Flags: W
LayerCount: 2
Fore
SplineSet
693 661 m 1,0,-1
 692 752 l 1,1,-1
 214 752 l 1,2,-1
 8 279 l 1,3,-1
 254 262 l 1,4,-1
 381 554 l 1,5,-1
 670 554 l 1,6,-1
 616 429 l 1,7,-1
 396 455 l 1,8,-1
 389 248 l 1,9,-1
 535 236 l 1,10,-1
 426 -19 l 1,11,-1
 678 -37 l 1,12,-1
 971 661 l 1,13,-1
 693 661 l 1,0,-1
829 692 m 1,14,-1
 731 692 l 1,15,-1
 731 844 l 1,16,-1
 829 844 l 1,17,-1
 829 692 l 1,14,-1
965 692 m 1,18,-1
 867 692 l 1,19,-1
 867 844 l 1,20,-1
 965 844 l 1,21,-1
 965 692 l 1,18,-1
EndSplineSet
EndChar

StartChar: Japan1.957
Encoding: 12481 12481 959
Width: 1000
GlyphClass: 2
Flags: W
LayerCount: 2
Fore
SplineSet
961 250 m 1,0,-1
 636 250 l 1,1,-1
 583 -54 l 1,2,-1
 332 -36 l 1,3,-1
 382 250 l 1,4,-1
 38 250 l 1,5,-1
 38 458 l 1,6,-1
 419 458 l 1,7,-1
 434 554 l 1,8,-1
 178 532 l 1,9,-1
 178 740 l 1,10,-1
 899 799 l 1,11,-1
 899 591 l 1,12,-1
 692 574 l 1,13,-1
 672 458 l 1,14,-1
 961 458 l 1,15,-1
 961 250 l 1,0,-1
EndSplineSet
EndChar

StartChar: Japan1.958
Encoding: 12482 12482 960
Width: 1000
GlyphClass: 2
Flags: W
LayerCount: 2
Fore
SplineSet
825 695 m 1,0,-1
 726 695 l 1,1,-1
 726 848 l 1,2,-1
 825 848 l 1,3,-1
 825 695 l 1,0,-1
963 695 m 1,4,-1
 864 695 l 1,5,-1
 864 848 l 1,6,-1
 963 848 l 1,7,-1
 963 695 l 1,4,-1
700 574 m 1,8,-1
 896 589 l 1,9,-1
 896 665 l 1,10,-1
 690 665 l 1,11,-1
 690 783 l 1,12,-1
 178 739 l 1,13,-1
 178 530 l 1,14,-1
 442 555 l 1,15,-1
 427 459 l 1,16,-1
 50 459 l 1,17,-1
 50 251 l 1,18,-1
 390 251 l 1,19,-1
 340 -35 l 1,20,-1
 591 -54 l 1,21,-1
 644 251 l 1,22,-1
 961 251 l 1,23,-1
 961 459 l 1,24,-1
 680 459 l 1,25,-1
 700 574 l 1,8,-1
EndSplineSet
EndChar

StartChar: Japan1.959
Encoding: 12483 12483 961
Width: 1000
GlyphClass: 2
Flags: W
LayerCount: 2
Fore
SplineSet
341 278 m 1,0,-1
 139 278 l 1,1,-1
 139 593 l 1,2,-1
 341 593 l 1,3,-1
 341 278 l 1,0,-1
581 278 m 1,4,-1
 378 278 l 1,5,-1
 378 593 l 1,6,-1
 581 593 l 1,7,-1
 581 278 l 1,4,-1
695 -47 m 1,8,-1
 942 474 l 1,9,-1
 694 474 l 1,10,-1
 456 -29 l 1,11,-1
 695 -47 l 1,8,-1
EndSplineSet
EndChar

StartChar: Japan1.960
Encoding: 12484 12484 962
Width: 1000
GlyphClass: 2
Flags: W
LayerCount: 2
Fore
SplineSet
283 346 m 1,0,-1
 57 346 l 1,1,-1
 57 742 l 1,2,-1
 283 742 l 1,3,-1
 283 346 l 1,0,-1
563 346 m 1,4,-1
 338 346 l 1,5,-1
 338 742 l 1,6,-1
 563 742 l 1,7,-1
 563 346 l 1,4,-1
679 -44 m 1,8,-1
 985 599 l 1,9,-1
 714 599 l 1,10,-1
 418 -24 l 1,11,-1
 679 -44 l 1,8,-1
EndSplineSet
EndChar

StartChar: Japan1.961
Encoding: 12485 12485 963
Width: 1000
GlyphClass: 2
Flags: W
LayerCount: 2
Fore
SplineSet
806 632 m 1,0,-1
 708 632 l 1,1,-1
 708 784 l 1,2,-1
 806 784 l 1,3,-1
 806 632 l 1,0,-1
942 632 m 1,4,-1
 843 632 l 1,5,-1
 843 784 l 1,6,-1
 942 784 l 1,7,-1
 942 632 l 1,4,-1
49 346 m 1,8,-1
 49 742 l 1,9,-1
 275 742 l 1,10,-1
 275 346 l 1,11,-1
 49 346 l 1,8,-1
330 346 m 1,12,-1
 330 742 l 1,13,-1
 555 742 l 1,14,-1
 555 346 l 1,15,-1
 330 346 l 1,12,-1
977 599 m 1,16,-1
 706 599 l 1,17,-1
 410 -24 l 1,18,-1
 671 -44 l 1,19,-1
 977 599 l 1,16,-1
EndSplineSet
EndChar

StartChar: Japan1.962
Encoding: 12486 12486 964
Width: 1000
GlyphClass: 2
Flags: W
LayerCount: 2
Fore
SplineSet
881 570 m 1,0,-1
 133 570 l 1,1,-1
 133 771 l 1,2,-1
 881 771 l 1,3,-1
 881 570 l 1,0,-1
949 300 m 1,4,-1
 632 300 l 1,5,-1
 560 -41 l 1,6,-1
 302 -22 l 1,7,-1
 374 300 l 1,8,-1
 48 300 l 1,9,-1
 48 495 l 1,10,-1
 949 495 l 1,11,-1
 949 300 l 1,4,-1
EndSplineSet
EndChar

StartChar: Japan1.963
Encoding: 12487 12487 965
Width: 1000
GlyphClass: 2
Flags: W
LayerCount: 2
Fore
SplineSet
822 694 m 1,0,-1
 724 694 l 1,1,-1
 724 845 l 1,2,-1
 822 845 l 1,3,-1
 822 694 l 1,0,-1
958 694 m 1,4,-1
 860 694 l 1,5,-1
 860 845 l 1,6,-1
 958 845 l 1,7,-1
 958 694 l 1,4,-1
889 663 m 1,8,-1
 688 663 l 1,9,-1
 688 772 l 1,10,-1
 141 772 l 1,11,-1
 141 571 l 1,12,-1
 889 571 l 1,13,-1
 889 663 l 1,8,-1
56 300 m 1,14,-1
 383 300 l 1,15,-1
 310 -22 l 1,16,-1
 568 -41 l 1,17,-1
 640 300 l 1,18,-1
 957 300 l 1,19,-1
 957 496 l 1,20,-1
 56 496 l 1,21,-1
 56 300 l 1,14,-1
EndSplineSet
EndChar

StartChar: Japan1.964
Encoding: 12488 12488 966
Width: 1000
GlyphClass: 2
Flags: W
LayerCount: 2
Fore
SplineSet
940 258 m 1,0,-1
 402 300 l 1,1,-1
 402 -36 l 1,2,-1
 145 -36 l 1,3,-1
 145 779 l 1,4,-1
 402 779 l 1,5,-1
 402 527 l 1,6,-1
 940 488 l 1,7,-1
 940 258 l 1,0,-1
EndSplineSet
EndChar

StartChar: Japan1.965
Encoding: 12489 12489 967
Width: 1000
GlyphClass: 2
Flags: W
LayerCount: 2
Fore
SplineSet
406 299 m 1,0,-1
 406 -37 l 1,1,-1
 149 -37 l 1,2,-1
 149 778 l 1,3,-1
 406 778 l 1,4,-1
 406 526 l 1,5,-1
 944 487 l 1,6,-1
 944 257 l 1,7,-1
 406 299 l 1,0,-1
656 556 m 1,8,-1
 556 556 l 1,9,-1
 556 711 l 1,10,-1
 656 711 l 1,11,-1
 656 556 l 1,8,-1
795 556 m 1,12,-1
 694 556 l 1,13,-1
 694 711 l 1,14,-1
 795 711 l 1,15,-1
 795 556 l 1,12,-1
EndSplineSet
EndChar

StartChar: Japan1.966
Encoding: 12490 12490 968
Width: 1000
GlyphClass: 2
Flags: W
LayerCount: 2
Fore
SplineSet
961 336 m 1,0,-1
 626 336 l 1,1,-1
 534 -48 l 1,2,-1
 271 -29 l 1,3,-1
 361 336 l 1,4,-1
 39 336 l 1,5,-1
 39 570 l 1,6,-1
 419 570 l 1,7,-1
 472 788 l 1,8,-1
 738 788 l 1,9,-1
 686 570 l 1,10,-1
 961 570 l 1,11,-1
 961 336 l 1,0,-1
EndSplineSet
EndChar

StartChar: Japan1.967
Encoding: 12491 12491 969
Width: 1000
GlyphClass: 2
Flags: W
LayerCount: 2
Fore
SplineSet
859 501 m 1,0,-1
 136 501 l 1,1,-1
 136 734 l 1,2,-1
 859 734 l 1,3,-1
 859 501 l 1,0,-1
944 -25 m 1,4,-1
 55 -25 l 1,5,-1
 55 208 l 1,6,-1
 944 208 l 1,7,-1
 944 -25 l 1,4,-1
EndSplineSet
EndChar

StartChar: Japan1.968
Encoding: 12492 12492 970
Width: 1000
GlyphClass: 2
Flags: W
LayerCount: 2
Fore
SplineSet
674 320 m 1,0,-1
 927 206 l 1,1,-1
 840 -4 l 1,2,-1
 545 132 l 1,3,-1
 430 -41 l 1,4,-1
 168 -20 l 1,5,-1
 335 225 l 1,6,-1
 159 304 l 1,7,-1
 252 509 l 1,8,-1
 463 414 l 1,9,-1
 554 548 l 1,10,-1
 92 548 l 1,11,-1
 92 753 l 1,12,-1
 973 753 l 1,13,-1
 674 320 l 1,0,-1
EndSplineSet
EndChar

StartChar: Japan1.969
Encoding: 12493 12493 971
Width: 1000
GlyphClass: 2
Flags: W
LayerCount: 2
Fore
SplineSet
854 0 m 1,0,-1
 611 169 l 1,1,-1
 611 -42 l 1,2,-1
 384 -42 l 1,3,-1
 384 183 l 1,4,-1
 50 -14 l 1,5,-1
 50 238 l 1,6,-1
 467 471 l 1,7,-1
 90 471 l 1,8,-1
 90 680 l 1,9,-1
 384 680 l 1,10,-1
 384 786 l 1,11,-1
 611 786 l 1,12,-1
 611 680 l 1,13,-1
 900 680 l 1,14,-1
 900 489 l 1,15,-1
 703 372 l 1,16,-1
 975 196 l 1,17,-1
 854 0 l 1,0,-1
EndSplineSet
EndChar

StartChar: Japan1.970
Encoding: 12494 12494 972
Width: 1000
GlyphClass: 2
Flags: W
LayerCount: 2
Fore
SplineSet
964 762 m 1,0,-1
 345 -33 l 1,1,-1
 40 -10 l 1,2,-1
 643 762 l 1,3,-1
 964 762 l 1,0,-1
EndSplineSet
EndChar

StartChar: Japan1.971
Encoding: 12495 12495 973
Width: 1000
GlyphClass: 2
Flags: W
LayerCount: 2
Fore
SplineSet
19 -16 m 1,0,-1
 206 754 l 1,1,-1
 456 735 l 1,2,-1
 269 -35 l 1,3,-1
 19 -16 l 1,0,-1
724 -35 m 1,4,-1
 550 735 l 1,5,-1
 799 749 l 1,6,-1
 975 -17 l 1,7,-1
 724 -35 l 1,4,-1
EndSplineSet
EndChar

StartChar: Japan1.972
Encoding: 12496 12496 974
Width: 1000
GlyphClass: 2
Flags: W
LayerCount: 2
Fore
SplineSet
804 692 m 1,0,-1
 706 692 l 1,1,-1
 706 844 l 1,2,-1
 804 844 l 1,3,-1
 804 692 l 1,0,-1
940 692 m 1,4,-1
 842 692 l 1,5,-1
 842 844 l 1,6,-1
 940 844 l 1,7,-1
 940 692 l 1,4,-1
29 -15 m 1,8,-1
 279 -34 l 1,9,-1
 462 737 l 1,10,-1
 212 756 l 1,11,-1
 29 -15 l 1,8,-1
670 661 m 1,12,-1
 670 743 l 1,13,-1
 560 737 l 1,14,-1
 734 -34 l 1,15,-1
 985 -16 l 1,16,-1
 828 661 l 1,17,-1
 670 661 l 1,12,-1
EndSplineSet
EndChar

StartChar: Japan1.973
Encoding: 12497 12497 975
Width: 1000
GlyphClass: 2
Flags: W
LayerCount: 2
Fore
SplineSet
811 608 m 0,0,1
 760 608 760 608 723.5 644 c 128,-1,2
 687 680 687 680 687 731 c 0,3,4
 687 783 687 783 723.5 819.5 c 128,-1,5
 760 856 760 856 811 856 c 0,6,7
 863 856 863 856 899.5 819.5 c 128,-1,8
 936 783 936 783 936 731 c 0,9,10
 936 680 936 680 899.5 644 c 128,-1,11
 863 608 863 608 811 608 c 0,0,1
811 787 m 128,-1,13
 788 787 788 787 771.5 771 c 128,-1,14
 755 755 755 755 755 731 c 0,15,16
 755 709 755 709 771.5 693 c 128,-1,17
 788 677 788 677 811 677 c 128,-1,18
 834 677 834 677 850.5 693 c 128,-1,19
 867 709 867 709 867 731 c 0,20,21
 867 755 867 755 850.5 771 c 128,-1,12
 834 787 834 787 811 787 c 128,-1,13
12 -15 m 1,22,-1
 263 -34 l 1,23,-1
 450 737 l 1,24,-1
 200 756 l 1,25,-1
 12 -15 l 1,22,-1
969 -16 m 1,26,-1
 829 580 l 1,27,28
 823 579 823 579 811 579 c 0,29,30
 747 579 747 579 702 623.5 c 128,-1,31
 657 668 657 668 657 731 c 0,32,33
 657 733 657 733 657.5 737 c 128,-1,34
 658 741 658 741 658 743 c 2,35,-1
 544 737 l 1,36,-1
 718 -34 l 1,37,-1
 969 -16 l 1,26,-1
EndSplineSet
EndChar

StartChar: Japan1.974
Encoding: 12498 12498 976
Width: 1000
GlyphClass: 2
Flags: W
LayerCount: 2
Fore
SplineSet
897 196 m 1,0,-1
 897 -24 l 1,1,-1
 100 -24 l 1,2,-1
 100 764 l 1,3,-1
 345 764 l 1,4,-1
 345 536 l 1,5,-1
 877 679 l 1,6,-1
 903 452 l 1,7,-1
 345 303 l 1,8,-1
 345 196 l 1,9,-1
 897 196 l 1,0,-1
EndSplineSet
EndChar

StartChar: Japan1.975
Encoding: 12499 12499 977
Width: 1000
GlyphClass: 2
Flags: W
LayerCount: 2
Fore
SplineSet
820 684 m 1,0,-1
 722 684 l 1,1,-1
 722 836 l 1,2,-1
 820 836 l 1,3,-1
 820 684 l 1,0,-1
956 684 m 1,4,-1
 858 684 l 1,5,-1
 858 836 l 1,6,-1
 956 836 l 1,7,-1
 956 684 l 1,4,-1
907 -23 m 1,8,-1
 111 -23 l 1,9,-1
 111 765 l 1,10,-1
 356 765 l 1,11,-1
 356 536 l 1,12,-1
 887 652 l 1,13,-1
 913 426 l 1,14,-1
 356 304 l 1,15,-1
 356 196 l 1,16,-1
 907 196 l 1,17,-1
 907 -23 l 1,8,-1
EndSplineSet
EndChar

StartChar: Japan1.976
Encoding: 12500 12500 978
Width: 1000
GlyphClass: 2
Flags: W
LayerCount: 2
Fore
SplineSet
854 592 m 0,0,1
 802 592 802 592 765.5 628.5 c 128,-1,2
 729 665 729 665 729 717 c 0,3,4
 729 768 729 768 765.5 804.5 c 128,-1,5
 802 841 802 841 854 841 c 0,6,7
 905 841 905 841 941.5 804.5 c 128,-1,8
 978 768 978 768 978 717 c 0,9,10
 978 665 978 665 941.5 628.5 c 128,-1,11
 905 592 905 592 854 592 c 0,0,1
854 773 m 128,-1,13
 831 773 831 773 814.5 756.5 c 128,-1,14
 798 740 798 740 798 717 c 128,-1,15
 798 694 798 694 814.5 677.5 c 128,-1,16
 831 661 831 661 854 661 c 128,-1,17
 877 661 877 661 893.5 677.5 c 128,-1,18
 910 694 910 694 910 717 c 128,-1,19
 910 740 910 740 893.5 756.5 c 128,-1,12
 877 773 877 773 854 773 c 128,-1,13
356 304 m 1,20,-1
 913 458 l 1,21,-1
 901 571 l 1,22,23
 880 564 880 564 854 564 c 0,24,25
 812 564 812 564 777.5 584 c 128,-1,26
 743 604 743 604 722 638 c 1,27,-1
 356 536 l 1,28,-1
 356 765 l 1,29,-1
 111 765 l 1,30,-1
 111 -23 l 1,31,-1
 907 -23 l 1,32,-1
 907 196 l 1,33,-1
 356 196 l 1,34,-1
 356 304 l 1,20,-1
EndSplineSet
EndChar

StartChar: Japan1.977
Encoding: 12501 12501 979
Width: 1000
GlyphClass: 2
Flags: W
LayerCount: 2
Fore
SplineSet
575 522 m 1,0,-1
 65 522 l 1,1,-1
 65 750 l 1,2,-1
 972 750 l 1,3,-1
 544 -39 l 1,4,-1
 275 -17 l 1,5,-1
 575 522 l 1,0,-1
EndSplineSet
EndChar

StartChar: Japan1.978
Encoding: 12502 12502 980
Width: 1000
GlyphClass: 2
Flags: W
LayerCount: 2
Fore
SplineSet
816 693 m 1,0,-1
 718 693 l 1,1,-1
 718 845 l 1,2,-1
 816 845 l 1,3,-1
 816 693 l 1,0,-1
952 693 m 1,4,-1
 854 693 l 1,5,-1
 854 845 l 1,6,-1
 952 845 l 1,7,-1
 952 693 l 1,4,-1
683 662 m 1,8,-1
 683 751 l 1,9,-1
 71 751 l 1,10,-1
 71 523 l 1,11,-1
 577 523 l 1,12,-1
 281 -16 l 1,13,-1
 550 -38 l 1,14,-1
 928 662 l 1,15,-1
 683 662 l 1,8,-1
EndSplineSet
EndChar

StartChar: Japan1.979
Encoding: 12503 12503 981
Width: 1000
GlyphClass: 2
Flags: W
LayerCount: 2
Fore
SplineSet
843 592 m 0,0,1
 792 592 792 592 755.5 628.5 c 128,-1,2
 719 665 719 665 719 717 c 0,3,4
 719 768 719 768 755.5 804 c 128,-1,5
 792 840 792 840 843 840 c 0,6,7
 895 840 895 840 931.5 804 c 128,-1,8
 968 768 968 768 968 717 c 0,9,10
 968 665 968 665 931.5 628.5 c 128,-1,11
 895 592 895 592 843 592 c 0,0,1
843 771 m 0,12,13
 820 771 820 771 804 755 c 128,-1,14
 788 739 788 739 788 717 c 0,15,16
 788 693 788 693 804 677 c 128,-1,17
 820 661 820 661 843 661 c 0,18,19
 867 661 867 661 883 677 c 128,-1,20
 899 693 899 693 899 717 c 0,21,22
 899 740 899 740 883 755.5 c 128,-1,23
 867 771 867 771 843 771 c 0,12,13
528 -38 m 1,24,-1
 854 564 l 2,25,26
 851 563 851 563 843 563 c 0,27,28
 780 563 780 563 735 608 c 128,-1,29
 690 653 690 653 690 717 c 0,30,31
 690 736 690 736 694 751 c 1,32,-1
 49 751 l 1,33,-1
 49 522 l 1,34,-1
 555 522 l 1,35,-1
 259 -16 l 1,36,-1
 528 -38 l 1,24,-1
EndSplineSet
EndChar

StartChar: Japan1.980
Encoding: 12504 12504 982
Width: 1000
GlyphClass: 2
Flags: W
LayerCount: 2
Fore
SplineSet
735 -30 m 1,0,-1
 428 502 l 1,1,-1
 281 98 l 1,2,-1
 15 118 l 1,3,-1
 264 746 l 1,4,-1
 569 746 l 1,5,-1
 998 52 l 1,6,-1
 735 -30 l 1,0,-1
EndSplineSet
EndChar

StartChar: Japan1.981
Encoding: 12505 12505 983
Width: 1000
GlyphClass: 2
Flags: W
LayerCount: 2
Fore
SplineSet
425 502 m 1,0,-1
 422 502 l 1,1,-1
 275 97 l 1,2,-1
 10 117 l 1,3,-1
 259 746 l 1,4,-1
 564 746 l 1,5,-1
 989 51 l 1,6,-1
 730 -31 l 1,7,-1
 425 502 l 1,0,-1
814 566 m 1,8,-1
 716 566 l 1,9,-1
 716 717 l 1,10,-1
 814 717 l 1,11,-1
 814 566 l 1,8,-1
950 566 m 1,12,-1
 851 566 l 1,13,-1
 851 717 l 1,14,-1
 950 717 l 1,15,-1
 950 566 l 1,12,-1
EndSplineSet
EndChar

StartChar: Japan1.982
Encoding: 12506 12506 984
Width: 1000
GlyphClass: 2
Flags: W
LayerCount: 2
Fore
SplineSet
425 502 m 1,0,-1
 422 502 l 1,1,-1
 275 97 l 1,2,-1
 10 117 l 1,3,-1
 259 746 l 1,4,-1
 564 746 l 1,5,-1
 989 51 l 1,6,-1
 730 -31 l 1,7,-1
 425 502 l 1,0,-1
849 489 m 0,8,9
 797 489 797 489 760.5 525.5 c 128,-1,10
 724 562 724 562 724 614 c 0,11,12
 724 665 724 665 760.5 701.5 c 128,-1,13
 797 738 797 738 849 738 c 0,14,15
 899 738 899 738 935.5 701.5 c 128,-1,16
 972 665 972 665 972 614 c 0,17,18
 972 562 972 562 935.5 525.5 c 128,-1,19
 899 489 899 489 849 489 c 0,8,9
849 670 m 0,20,21
 825 670 825 670 809 653.5 c 128,-1,22
 793 637 793 637 793 614 c 128,-1,23
 793 591 793 591 809 574.5 c 128,-1,24
 825 558 825 558 849 558 c 0,25,26
 872 558 872 558 888 574.5 c 128,-1,27
 904 591 904 591 904 614 c 128,-1,28
 904 637 904 637 887.5 653.5 c 128,-1,29
 871 670 871 670 849 670 c 0,20,21
EndSplineSet
EndChar

StartChar: Japan1.983
Encoding: 12507 12507 985
Width: 1000
GlyphClass: 2
Flags: W
LayerCount: 2
Fore
SplineSet
629 473 m 1,0,-1
 629 -31 l 1,1,-1
 385 -31 l 1,2,-1
 385 473 l 1,3,-1
 69 473 l 1,4,-1
 69 679 l 1,5,-1
 385 679 l 1,6,-1
 385 781 l 1,7,-1
 629 781 l 1,8,-1
 629 679 l 1,9,-1
 924 679 l 1,10,-1
 924 473 l 1,11,-1
 629 473 l 1,0,-1
132 381 m 1,12,-1
 339 366 l 1,13,-1
 265 -1 l 1,14,-1
 58 13 l 1,15,-1
 132 381 l 1,12,-1
956 13 m 1,16,-1
 748 -1 l 1,17,-1
 675 366 l 1,18,-1
 881 381 l 1,19,-1
 956 13 l 1,16,-1
EndSplineSet
EndChar

StartChar: Japan1.984
Encoding: 12508 12508 986
Width: 1000
GlyphClass: 2
Flags: W
LayerCount: 2
Fore
SplineSet
820 691 m 1,0,-1
 722 691 l 1,1,-1
 722 843 l 1,2,-1
 820 843 l 1,3,-1
 820 691 l 1,0,-1
956 691 m 1,4,-1
 858 691 l 1,5,-1
 858 843 l 1,6,-1
 956 843 l 1,7,-1
 956 691 l 1,4,-1
639 -31 m 1,8,-1
 395 -31 l 1,9,-1
 395 445 l 1,10,-1
 79 445 l 1,11,-1
 79 651 l 1,12,-1
 395 651 l 1,13,-1
 395 780 l 1,14,-1
 639 780 l 1,15,-1
 639 651 l 1,16,-1
 934 651 l 1,17,-1
 934 445 l 1,18,-1
 639 445 l 1,19,-1
 639 -31 l 1,8,-1
349 366 m 1,20,-1
 275 -2 l 1,21,-1
 68 13 l 1,22,-1
 142 381 l 1,23,-1
 349 366 l 1,20,-1
758 -2 m 1,24,-1
 685 366 l 1,25,-1
 891 381 l 1,26,-1
 966 13 l 1,27,-1
 758 -2 l 1,24,-1
EndSplineSet
EndChar

StartChar: Japan1.985
Encoding: 12509 12509 987
Width: 1000
GlyphClass: 2
Flags: W
LayerCount: 2
Fore
SplineSet
837 620 m 0,0,1
 786 620 786 620 749.5 656.5 c 128,-1,2
 713 693 713 693 713 744 c 0,3,4
 713 796 713 796 749.5 832.5 c 128,-1,5
 786 869 786 869 837 869 c 0,6,7
 889 869 889 869 925.5 832.5 c 128,-1,8
 962 796 962 796 962 744 c 0,9,10
 962 693 962 693 925.5 656.5 c 128,-1,11
 889 620 889 620 837 620 c 0,0,1
837 799 m 128,-1,13
 814 799 814 799 797.5 783 c 128,-1,14
 781 767 781 767 781 744 c 128,-1,15
 781 721 781 721 797.5 704.5 c 128,-1,16
 814 688 814 688 837 688 c 128,-1,17
 860 688 860 688 876.5 704.5 c 128,-1,18
 893 721 893 721 893 744 c 128,-1,19
 893 767 893 767 876.5 783 c 128,-1,12
 860 799 860 799 837 799 c 128,-1,13
919 456 m 1,20,-1
 919 614 l 1,21,22
 881 590 881 590 837 590 c 0,23,24
 753 590 753 590 708 662 c 1,25,-1
 624 662 l 1,26,-1
 624 781 l 1,27,-1
 380 781 l 1,28,-1
 380 662 l 1,29,-1
 62 662 l 1,30,-1
 62 456 l 1,31,-1
 380 456 l 1,32,-1
 380 -31 l 1,33,-1
 624 -31 l 1,34,-1
 624 456 l 1,35,-1
 919 456 l 1,20,-1
51 13 m 1,36,-1
 259 -1 l 1,37,-1
 334 366 l 1,38,-1
 126 381 l 1,39,-1
 51 13 l 1,36,-1
669 366 m 1,40,-1
 742 -1 l 1,41,-1
 950 13 l 1,42,-1
 875 381 l 1,43,-1
 669 366 l 1,40,-1
EndSplineSet
EndChar

StartChar: Japan1.986
Encoding: 12510 12510 988
Width: 1000
GlyphClass: 2
Flags: W
LayerCount: 2
Fore
SplineSet
987 746 m 1,0,-1
 594 113 l 1,1,-1
 682 -32 l 1,2,-1
 419 -32 l 1,3,-1
 146 418 l 1,4,-1
 409 418 l 1,5,-1
 460 335 l 1,6,-1
 590 539 l 1,7,-1
 43 539 l 1,8,-1
 43 746 l 1,9,-1
 987 746 l 1,0,-1
EndSplineSet
EndChar

StartChar: Japan1.987
Encoding: 12511 12511 989
Width: 1000
GlyphClass: 2
Flags: W
LayerCount: 2
Fore
SplineSet
907 713 m 1,0,-1
 907 506 l 1,1,-1
 109 573 l 1,2,-1
 109 779 l 1,3,-1
 907 713 l 1,0,-1
907 429 m 1,4,-1
 907 221 l 1,5,-1
 114 287 l 1,6,-1
 114 494 l 1,7,-1
 907 429 l 1,4,-1
907 143 m 1,8,-1
 907 -63 l 1,9,-1
 114 3 l 1,10,-1
 114 210 l 1,11,-1
 907 143 l 1,8,-1
EndSplineSet
EndChar

StartChar: Japan1.988
Encoding: 12512 12512 990
Width: 1000
GlyphClass: 2
Flags: W
LayerCount: 2
Fore
SplineSet
924 455 m 1,0,-1
 924 -18 l 1,1,-1
 26 -18 l 1,2,-1
 321 757 l 1,3,-1
 575 757 l 1,4,-1
 355 189 l 1,5,-1
 694 189 l 1,6,-1
 694 455 l 1,7,-1
 924 455 l 1,0,-1
EndSplineSet
EndChar

StartChar: Japan1.989
Encoding: 12513 12513 991
Width: 1000
GlyphClass: 2
Flags: W
LayerCount: 2
Fore
SplineSet
676 390 m 1,0,-1
 916 254 l 1,1,-1
 802 49 l 1,2,-1
 528 203 l 1,3,-1
 335 -37 l 1,4,-1
 35 -15 l 1,5,-1
 312 323 l 1,6,-1
 67 462 l 1,7,-1
 191 666 l 1,8,-1
 462 510 l 1,9,-1
 666 772 l 1,10,-1
 977 772 l 1,11,-1
 676 390 l 1,0,-1
EndSplineSet
EndChar

StartChar: Japan1.990
Encoding: 12514 12514 992
Width: 1000
GlyphClass: 2
Flags: W
LayerCount: 2
Fore
SplineSet
511 285 m 1,0,-1
 511 180 l 1,1,-1
 891 180 l 1,2,-1
 891 -16 l 1,3,-1
 269 -16 l 1,4,-1
 269 285 l 1,5,-1
 74 285 l 1,6,-1
 74 476 l 1,7,-1
 269 476 l 1,8,-1
 269 566 l 1,9,-1
 74 566 l 1,10,-1
 74 757 l 1,11,-1
 891 757 l 1,12,-1
 891 566 l 1,13,-1
 511 566 l 1,14,-1
 511 476 l 1,15,-1
 932 476 l 1,16,-1
 932 285 l 1,17,-1
 511 285 l 1,0,-1
EndSplineSet
EndChar

StartChar: Japan1.991
Encoding: 12515 12515 993
Width: 1000
GlyphClass: 2
Flags: W
LayerCount: 2
Fore
SplineSet
901 519 m 1,0,-1
 745 110 l 1,1,-1
 535 126 l 1,2,-1
 614 334 l 1,3,-1
 488 334 l 1,4,-1
 524 -40 l 1,5,-1
 303 -40 l 1,6,-1
 267 334 l 1,7,-1
 128 334 l 1,8,-1
 128 519 l 1,9,-1
 249 519 l 1,10,-1
 241 596 l 1,11,-1
 461 596 l 1,12,-1
 469 519 l 1,13,-1
 901 519 l 1,0,-1
EndSplineSet
EndChar

StartChar: Japan1.992
Encoding: 12516 12516 994
Width: 1000
GlyphClass: 2
Flags: W
LayerCount: 2
Fore
SplineSet
972 644 m 1,0,-1
 785 153 l 1,1,-1
 551 171 l 1,2,-1
 654 440 l 1,3,-1
 465 440 l 1,4,-1
 511 -32 l 1,5,-1
 260 -32 l 1,6,-1
 220 440 l 1,7,-1
 36 440 l 1,8,-1
 36 644 l 1,9,-1
 200 644 l 1,10,-1
 186 777 l 1,11,-1
 431 777 l 1,12,-1
 445 644 l 1,13,-1
 972 644 l 1,0,-1
EndSplineSet
EndChar

StartChar: Japan1.993
Encoding: 12517 12517 995
Width: 1000
GlyphClass: 2
Flags: W
LayerCount: 2
Fore
SplineSet
867 172 m 1,0,-1
 867 -31 l 1,1,-1
 132 -31 l 1,2,-1
 132 172 l 1,3,-1
 495 172 l 1,4,-1
 530 391 l 1,5,-1
 205 391 l 1,6,-1
 205 594 l 1,7,-1
 784 594 l 1,8,-1
 718 172 l 1,9,-1
 867 172 l 1,0,-1
EndSplineSet
EndChar

StartChar: Japan1.994
Encoding: 12518 12518 996
Width: 1000
GlyphClass: 2
Flags: W
LayerCount: 2
Fore
SplineSet
951 212 m 1,0,-1
 951 -12 l 1,1,-1
 41 -12 l 1,2,-1
 41 212 l 1,3,-1
 502 212 l 1,4,-1
 549 508 l 1,5,-1
 132 508 l 1,6,-1
 132 733 l 1,7,-1
 832 733 l 1,8,-1
 749 212 l 1,9,-1
 951 212 l 1,0,-1
EndSplineSet
EndChar

StartChar: Japan1.995
Encoding: 12519 12519 997
Width: 1000
GlyphClass: 2
Flags: W
LayerCount: 2
Fore
SplineSet
833 606 m 1,0,-1
 833 -47 l 1,1,-1
 170 -47 l 1,2,-1
 170 130 l 1,3,-1
 631 130 l 1,4,-1
 631 192 l 1,5,-1
 183 192 l 1,6,-1
 183 361 l 1,7,-1
 631 361 l 1,8,-1
 631 429 l 1,9,-1
 170 429 l 1,10,-1
 170 606 l 1,11,-1
 833 606 l 1,0,-1
EndSplineSet
EndChar

StartChar: Japan1.996
Encoding: 12520 12520 998
Width: 1000
GlyphClass: 2
Flags: W
LayerCount: 2
Fore
SplineSet
888 744 m 1,0,-1
 888 -20 l 1,1,-1
 81 -20 l 1,2,-1
 81 179 l 1,3,-1
 653 179 l 1,4,-1
 653 268 l 1,5,-1
 97 268 l 1,6,-1
 97 455 l 1,7,-1
 653 455 l 1,8,-1
 653 545 l 1,9,-1
 81 545 l 1,10,-1
 81 744 l 1,11,-1
 888 744 l 1,0,-1
EndSplineSet
EndChar

StartChar: Japan1.997
Encoding: 12521 12521 999
Width: 1000
GlyphClass: 2
Flags: W
LayerCount: 2
Fore
SplineSet
887 575 m 1,0,-1
 109 575 l 1,1,-1
 109 776 l 1,2,-1
 887 776 l 1,3,-1
 887 575 l 1,0,-1
50 510 m 1,4,-1
 50 305 l 1,5,-1
 565 305 l 1,6,-1
 357 -31 l 1,7,-1
 626 -49 l 1,8,-1
 959 510 l 1,9,-1
 50 510 l 1,4,-1
EndSplineSet
EndChar

StartChar: Japan1.998
Encoding: 12522 12522 1000
Width: 1000
GlyphClass: 2
Flags: W
LayerCount: 2
Fore
SplineSet
956 756 m 1,0,-1
 746 -43 l 1,1,-1
 479 -28 l 1,2,-1
 690 756 l 1,3,-1
 956 756 l 1,0,-1
343 751 m 1,4,-1
 84 751 l 1,5,-1
 84 273 l 1,6,-1
 343 273 l 1,7,-1
 343 751 l 1,4,-1
EndSplineSet
EndChar

StartChar: Japan1.999
Encoding: 12523 12523 1001
Width: 1000
GlyphClass: 2
Flags: W
LayerCount: 2
Fore
SplineSet
423 755 m 1,0,-1
 286 -35 l 1,1,-1
 37 -20 l 1,2,-1
 173 755 l 1,3,-1
 423 755 l 1,0,-1
950 199 m 1,4,-1
 950 -26 l 1,5,-1
 490 -26 l 1,6,-1
 490 755 l 1,7,-1
 734 755 l 1,8,-1
 734 199 l 1,9,-1
 950 199 l 1,4,-1
EndSplineSet
EndChar

StartChar: Japan1.1000
Encoding: 12524 12524 1002
Width: 1000
GlyphClass: 2
Flags: W
LayerCount: 2
Fore
SplineSet
926 298 m 1,0,-1
 115 -55 l 1,1,-1
 115 766 l 1,2,-1
 364 766 l 1,3,-1
 364 321 l 1,4,-1
 906 556 l 1,5,-1
 926 298 l 1,0,-1
EndSplineSet
EndChar

StartChar: Japan1.1001
Encoding: 12525 12525 1003
Width: 1000
GlyphClass: 2
Flags: W
LayerCount: 2
Fore
SplineSet
908 737 m 1,0,-1
 908 -18 l 1,1,-1
 85 -18 l 1,2,-1
 85 737 l 1,3,-1
 908 737 l 1,0,-1
679 533 m 1,4,-1
 315 533 l 1,5,-1
 315 189 l 1,6,-1
 679 189 l 1,7,-1
 679 533 l 1,4,-1
EndSplineSet
EndChar

StartChar: Japan1.1002
Encoding: 12526 12526 1004
Width: 1000
GlyphClass: 2
Flags: W
LayerCount: 2
Fore
SplineSet
898 623 m 1,0,-1
 692 -14 l 1,1,-1
 468 3 l 1,2,-1
 614 437 l 1,3,-1
 356 437 l 1,4,-1
 356 280 l 1,5,-1
 137 280 l 1,6,-1
 137 623 l 1,7,-1
 898 623 l 1,0,-1
EndSplineSet
EndChar

StartChar: Japan1.1003
Encoding: 12527 12527 1005
Width: 1000
GlyphClass: 2
Flags: W
LayerCount: 2
Fore
SplineSet
651 537 m 1,0,-1
 302 537 l 1,1,-1
 302 333 l 1,2,-1
 58 333 l 1,3,-1
 58 744 l 1,4,-1
 968 744 l 1,5,-1
 722 -40 l 1,6,-1
 468 -21 l 1,7,-1
 651 537 l 1,0,-1
EndSplineSet
EndChar

StartChar: Japan1.1004
Encoding: 12528 12528 1006
Width: 1000
GlyphClass: 2
Flags: W
LayerCount: 2
Fore
SplineSet
940 89 m 1,0,-1
 807 89 l 1,1,-1
 807 -40 l 1,2,-1
 581 -40 l 1,3,-1
 581 89 l 1,4,-1
 60 89 l 1,5,-1
 60 295 l 1,6,-1
 214 295 l 1,7,-1
 214 478 l 1,8,-1
 110 478 l 1,9,-1
 110 683 l 1,10,-1
 581 683 l 1,11,-1
 581 760 l 1,12,-1
 807 760 l 1,13,-1
 807 683 l 1,14,-1
 921 683 l 1,15,-1
 921 478 l 1,16,-1
 807 478 l 1,17,-1
 807 295 l 1,18,-1
 940 295 l 1,19,-1
 940 89 l 1,0,-1
581 295 m 1,20,-1
 581 478 l 1,21,-1
 438 478 l 1,22,-1
 438 295 l 1,23,-1
 581 295 l 1,20,-1
EndSplineSet
EndChar

StartChar: Japan1.1005
Encoding: 12529 12529 1007
Width: 1000
GlyphClass: 2
Flags: W
LayerCount: 2
Fore
SplineSet
632 201 m 1,0,-1
 934 201 l 1,1,-1
 934 -23 l 1,2,-1
 65 -23 l 1,3,-1
 65 201 l 1,4,-1
 388 201 l 1,5,-1
 388 429 l 1,6,-1
 553 429 l 1,7,-1
 590 518 l 1,8,-1
 144 518 l 1,9,-1
 144 742 l 1,10,-1
 947 742 l 1,11,-1
 793 370 l 1,12,-1
 632 370 l 1,13,-1
 632 201 l 1,0,-1
EndSplineSet
EndChar

StartChar: Japan1.1006
Encoding: 12530 12530 1008
Width: 1000
GlyphClass: 2
Flags: W
LayerCount: 2
Fore
SplineSet
970 750 m 1,0,-1
 555 -44 l 1,1,-1
 295 -23 l 1,2,-1
 423 221 l 1,3,-1
 125 221 l 1,4,-1
 125 423 l 1,5,-1
 532 423 l 1,6,-1
 586 527 l 1,7,-1
 62 527 l 1,8,-1
 62 750 l 1,9,-1
 970 750 l 1,0,-1
EndSplineSet
EndChar

StartChar: Japan1.1007
Encoding: 12531 12531 1009
Width: 1000
GlyphClass: 2
Flags: W
LayerCount: 2
Fore
SplineSet
552 505 m 1,0,-1
 83 505 l 1,1,-1
 83 746 l 1,2,-1
 552 746 l 1,3,-1
 552 505 l 1,0,-1
925 602 m 1,4,-1
 124 236 l 1,5,-1
 124 -54 l 1,6,-1
 944 322 l 1,7,-1
 925 602 l 1,4,-1
EndSplineSet
EndChar

StartChar: Japan1.1008
Encoding: 12532 12532 1010
Width: 1000
GlyphClass: 2
Flags: W
LayerCount: 2
Fore
SplineSet
815 693 m 1,0,-1
 716 693 l 1,1,-1
 716 844 l 1,2,-1
 815 844 l 1,3,-1
 815 693 l 1,0,-1
950 693 m 1,4,-1
 852 693 l 1,5,-1
 852 844 l 1,6,-1
 950 844 l 1,7,-1
 950 693 l 1,4,-1
977 657 m 1,8,-1
 746 -43 l 1,9,-1
 486 -24 l 1,10,-1
 643 451 l 1,11,-1
 314 451 l 1,12,-1
 314 298 l 1,13,-1
 65 298 l 1,14,-1
 65 657 l 1,15,-1
 377 657 l 1,16,-1
 377 781 l 1,17,-1
 611 781 l 1,18,-1
 611 657 l 1,19,-1
 977 657 l 1,8,-1
EndSplineSet
EndChar

StartChar: Japan1.1009
Encoding: 12533 12533 1011
Width: 1000
GlyphClass: 2
Flags: W
LayerCount: 2
Fore
SplineSet
868 476 m 1,0,-1
 758 -41 l 1,1,-1
 555 -26 l 1,2,-1
 618 273 l 1,3,-1
 491 273 l 1,4,-1
 416 -46 l 1,5,-1
 203 -31 l 1,6,-1
 275 273 l 1,7,-1
 154 273 l 1,8,-1
 154 476 l 1,9,-1
 323 476 l 1,10,-1
 353 600 l 1,11,-1
 570 600 l 1,12,-1
 539 476 l 1,13,-1
 868 476 l 1,0,-1
EndSplineSet
EndChar

StartChar: Japan1.1010
Encoding: 12534 12534 1012
Width: 1000
GlyphClass: 2
Flags: W
LayerCount: 2
Fore
SplineSet
884 343 m 1,0,-1
 726 343 l 1,1,-1
 581 -38 l 1,2,-1
 362 -22 l 1,3,-1
 501 343 l 1,4,-1
 389 343 l 1,5,-1
 310 161 l 1,6,-1
 104 175 l 1,7,-1
 97 179 l 1,8,-1
 285 611 l 1,9,-1
 507 611 l 1,10,-1
 470 529 l 1,11,-1
 884 529 l 1,12,-1
 884 343 l 1,0,-1
EndSplineSet
EndChar

StartChar: Japan1.7887
Encoding: 66121 -1 7889
Width: 1000
GlyphClass: 2
Flags: W
LayerCount: 2
Fore
SplineSet
612 728 m 1,0,-1
 733 826 l 1,1,2
 784 765 784 765 832.5 704 c 128,-1,3
 881 643 881 643 904 612 c 2,4,-1
 928 582 l 1,5,-1
 795 485 l 1,6,7
 720 600 720 600 612 728 c 1,0,-1
EndSplineSet
EndChar

StartChar: Japan1.7888
Encoding: 66122 -1 7890
Width: 1000
GlyphClass: 2
Flags: W
LayerCount: 2
Fore
SplineSet
586 639 m 128,-1,1
 586 713 586 713 639 765.5 c 128,-1,2
 692 818 692 818 766 818 c 128,-1,3
 840 818 840 818 892.5 765 c 128,-1,4
 945 712 945 712 945 639 c 128,-1,5
 945 566 945 566 892.5 513 c 128,-1,6
 840 460 840 460 766 460 c 128,-1,7
 692 460 692 460 639 512.5 c 128,-1,0
 586 565 586 565 586 639 c 128,-1,1
700 639 m 0,8,9
 700 611 700 611 719 591.5 c 128,-1,10
 738 572 738 572 766 572 c 0,11,12
 793 572 793 572 812 591.5 c 128,-1,13
 831 611 831 611 831 639 c 0,14,15
 831 666 831 666 812 685 c 128,-1,16
 793 704 793 704 766 704 c 0,17,18
 738 704 738 704 719 685 c 128,-1,19
 700 666 700 666 700 639 c 0,8,9
EndSplineSet
EndChar

StartChar: Japan1.7890
Encoding: 65075 65075 7892
Width: 1000
GlyphClass: 2
Flags: W
LayerCount: 2
Fore
SplineSet
382 834 m 1,0,-1
 638 834 l 1,1,-1
 638 -74 l 1,2,-1
 382 -74 l 1,3,-1
 382 834 l 1,0,-1
EndSplineSet
EndChar

StartChar: Japan1.7891
Encoding: 66124 -1 7893
Width: 1000
GlyphClass: 2
Flags: W
LayerCount: 2
Fore
SplineSet
382 834 m 1,0,-1
 638 834 l 1,1,-1
 638 -74 l 1,2,-1
 382 -74 l 1,3,-1
 382 834 l 1,0,-1
EndSplineSet
EndChar

StartChar: Japan1.7893
Encoding: 65074 65074 7895
Width: 1000
GlyphClass: 2
Flags: W
LayerCount: 2
Fore
SplineSet
412 554 m 1,0,-1
 580 554 l 1,1,-1
 580 206 l 1,2,-1
 412 206 l 1,3,-1
 412 554 l 1,0,-1
EndSplineSet
EndChar

StartChar: Japan1.7897
Encoding: 8942 8942 7899
Width: 1000
GlyphClass: 2
Flags: W
LayerCount: 2
Fore
SplineSet
499 142 m 128,-1,1
 538 142 538 142 566 114 c 128,-1,2
 594 86 594 86 594 47 c 0,3,4
 594 7 594 7 566 -21 c 128,-1,5
 538 -49 538 -49 499 -49 c 128,-1,6
 460 -49 460 -49 432 -21 c 128,-1,7
 404 7 404 7 404 47 c 0,8,9
 404 86 404 86 432 114 c 128,-1,0
 460 142 460 142 499 142 c 128,-1,1
499 458 m 128,-1,11
 538 458 538 458 566 430 c 128,-1,12
 594 402 594 402 594 363 c 0,13,14
 594 323 594 323 566 295 c 128,-1,15
 538 267 538 267 499 267 c 128,-1,16
 460 267 460 267 432 295 c 128,-1,17
 404 323 404 323 404 363 c 0,18,19
 404 402 404 402 432 430 c 128,-1,10
 460 458 460 458 499 458 c 128,-1,11
499 778 m 128,-1,21
 538 778 538 778 566 750 c 128,-1,22
 594 722 594 722 594 683 c 0,23,24
 594 643 594 643 566 615 c 128,-1,25
 538 587 538 587 499 587 c 128,-1,26
 460 587 460 587 432 615 c 128,-1,27
 404 643 404 643 404 683 c 0,28,29
 404 722 404 722 432 750 c 128,-1,20
 460 778 460 778 499 778 c 128,-1,21
EndSplineSet
EndChar

StartChar: Japan1.7898
Encoding: 65072 65072 7900
Width: 1000
GlyphClass: 2
Flags: W
LayerCount: 2
Fore
SplineSet
491 618 m 0,0,1
 530 618 530 618 558 590 c 128,-1,2
 586 562 586 562 586 523 c 0,3,4
 586 483 586 483 558 455 c 128,-1,5
 530 427 530 427 491 427 c 0,6,7
 451 427 451 427 423 455 c 128,-1,8
 395 483 395 483 395 523 c 0,9,10
 395 562 395 562 423 590 c 128,-1,11
 451 618 451 618 491 618 c 0,0,1
490 301 m 0,12,13
 530 301 530 301 558 273 c 128,-1,14
 586 245 586 245 586 206 c 0,15,16
 586 166 586 166 558 138 c 128,-1,17
 530 110 530 110 490 110 c 0,18,19
 451 110 451 110 423 138 c 128,-1,20
 395 166 395 166 395 206 c 0,21,22
 395 245 395 245 423 273 c 128,-1,23
 451 301 451 301 490 301 c 0,12,13
EndSplineSet
EndChar

StartChar: Japan1.7911
Encoding: 65089 65089 7913
Width: 1000
GlyphClass: 2
Flags: W
LayerCount: 2
Fore
SplineSet
975 -94 m 1,0,-1
 789 -94 l 1,1,-1
 789 122 l 1,2,-1
 87 122 l 1,3,-1
 87 308 l 1,4,-1
 975 308 l 1,5,-1
 975 -94 l 1,0,-1
EndSplineSet
EndChar

StartChar: Japan1.7912
Encoding: 65090 65090 7914
Width: 1000
GlyphClass: 2
Flags: W
LayerCount: 2
Fore
SplineSet
27 857 m 1,0,-1
 213 857 l 1,1,-1
 213 641 l 1,2,-1
 902 641 l 1,3,-1
 902 455 l 1,4,-1
 27 455 l 1,5,-1
 27 857 l 1,0,-1
EndSplineSet
EndChar

StartChar: Japan1.7913
Encoding: 65091 65091 7915
Width: 1000
GlyphClass: 2
Flags: W
LayerCount: 2
Fore
SplineSet
860 -98 m 1,0,-1
 860 77 l 1,1,-1
 104 77 l 1,2,-1
 104 193 l 1,3,-1
 973 193 l 1,4,-1
 973 -98 l 1,5,-1
 860 -98 l 1,0,-1
943 -68 m 1,6,-1
 943 163 l 1,7,-1
 134 163 l 1,8,-1
 134 107 l 1,9,-1
 890 107 l 1,10,-1
 890 -68 l 1,11,-1
 943 -68 l 1,6,-1
EndSplineSet
EndChar

StartChar: Japan1.7914
Encoding: 65092 65092 7916
Width: 1000
GlyphClass: 2
Flags: W
LayerCount: 2
Fore
SplineSet
134 855 m 1,0,-1
 134 680 l 1,1,-1
 885 680 l 1,2,-1
 885 564 l 1,3,-1
 21 564 l 1,4,-1
 21 855 l 1,5,-1
 134 855 l 1,0,-1
51 825 m 1,6,-1
 51 594 l 1,7,-1
 855 594 l 1,8,-1
 855 650 l 1,9,-1
 104 650 l 1,10,-1
 104 825 l 1,11,-1
 51 825 l 1,6,-1
EndSplineSet
EndChar

StartChar: Japan1.7918
Encoding: 66131 -1 7920
Width: 1000
GlyphClass: 2
Flags: W
LayerCount: 2
Fore
SplineSet
873 55 m 1,0,-1
 678 79 l 1,1,2
 739 146 739 146 762.5 205 c 128,-1,3
 786 264 786 264 773 298 c 1,4,5
 759 254 759 254 737.5 216 c 128,-1,6
 716 178 716 178 683.5 142.5 c 128,-1,7
 651 107 651 107 602.5 82.5 c 128,-1,8
 554 58 554 58 495 49 c 0,9,10
 389 34 389 34 308 78 c 128,-1,11
 227 122 227 122 205 207 c 0,12,13
 191 260 191 260 206 314 c 128,-1,14
 221 368 221 368 272.5 418.5 c 128,-1,15
 324 469 324 469 407 500 c 1,16,-1
 407 523 l 1,17,-1
 261 506 l 1,18,-1
 241 675 l 1,19,-1
 407 694 l 1,20,-1
 407 740 l 1,21,-1
 586 740 l 1,22,-1
 586 715 l 1,23,-1
 807 740 l 1,24,-1
 827 570 l 1,25,-1
 586 543 l 1,26,-1
 586 539 l 1,27,28
 696 546 696 546 785.5 513.5 c 128,-1,29
 875 481 875 481 916 424 c 0,30,31
 966 352 966 352 953.5 254.5 c 128,-1,32
 941 157 941 157 873 55 c 1,0,-1
586 368 m 1,33,-1
 586 292 l 1,34,35
 606 324 606 324 620 369 c 1,36,37
 614 369 614 369 603 368.5 c 128,-1,38
 592 368 592 368 586 368 c 1,33,-1
408 219 m 1,39,-1
 408 312 l 1,40,41
 370 284 370 284 368 258.5 c 128,-1,42
 366 233 366 233 408 219 c 1,39,-1
EndSplineSet
EndChar

StartChar: Japan1.7919
Encoding: 66132 -1 7921
Width: 1000
GlyphClass: 2
Flags: W
LayerCount: 2
Fore
SplineSet
583 298 m 1,0,-1
 596 84 l 1,1,2
 545 68 545 68 500 68 c 0,3,4
 439 68 439 68 387 93 c 0,5,6
 327 121 327 121 286 178.5 c 128,-1,7
 245 236 245 236 231 312 c 0,8,9
 226 342 226 342 222.5 377 c 128,-1,10
 219 412 219 412 217.5 456.5 c 128,-1,11
 216 501 216 501 215.5 524 c 128,-1,12
 215 547 215 547 215.5 599 c 128,-1,13
 216 651 216 651 216 655 c 2,14,-1
 216 697 l 1,15,-1
 431 697 l 1,16,-1
 431 651 l 2,17,18
 431 645 431 645 430.5 587.5 c 128,-1,19
 430 530 430 530 430.5 501 c 128,-1,20
 431 472 431 472 433.5 426.5 c 128,-1,21
 436 381 436 381 442 351 c 0,22,23
 453 294 453 294 489.5 283.5 c 128,-1,24
 526 273 526 273 583 298 c 1,0,-1
950 229 m 1,25,-1
 734 250 l 1,26,27
 765 374 765 374 722 429 c 0,28,29
 702 454 702 454 670.5 465.5 c 128,-1,30
 639 477 639 477 618 477 c 1,31,-1
 618 692 l 1,32,33
 689 692 689 692 764.5 660 c 128,-1,34
 840 628 840 628 892 562 c 0,35,36
 991 433 991 433 950 229 c 1,25,-1
EndSplineSet
EndChar

StartChar: Japan1.7920
Encoding: 66133 -1 7922
Width: 1000
GlyphClass: 2
Flags: W
LayerCount: 2
Fore
SplineSet
633 752 m 1,0,-1
 654 645 l 1,1,2
 734 634 734 634 795 600 c 128,-1,3
 856 566 856 566 890 518.5 c 128,-1,4
 924 471 924 471 928.5 412 c 128,-1,5
 933 353 933 353 907 294 c 128,-1,6
 881 235 881 235 813.5 176 c 128,-1,7
 746 117 746 117 645 72 c 0,8,9
 552 31 552 31 410 21 c 1,10,-1
 396 227 l 1,11,12
 486 234 486 234 567 265 c 0,13,14
 669 303 669 303 689 361 c 0,15,16
 704 405 704 405 663 429 c 0,17,18
 636 444 636 444 594 442 c 0,19,20
 460 437 460 437 271 368 c 1,21,-1
 200 562 l 1,22,23
 320 606 320 606 444 630 c 1,24,-1
 425 700 l 1,25,-1
 633 752 l 1,0,-1
EndSplineSet
EndChar

StartChar: Japan1.7921
Encoding: 66134 -1 7923
Width: 1000
GlyphClass: 2
Flags: W
LayerCount: 2
Fore
SplineSet
909 373 m 1,0,-1
 977 177 l 1,1,2
 879 94 879 94 782.5 56 c 128,-1,3
 686 18 686 18 592.5 42 c 128,-1,4
 499 66 499 66 438 165 c 1,5,-1
 231 39 l 1,6,-1
 202 251 l 1,7,-1
 525 441 l 1,8,-1
 261 441 l 1,9,-1
 261 615 l 1,10,-1
 460 615 l 1,11,-1
 433 710 l 1,12,-1
 639 767 l 1,13,-1
 677 615 l 1,14,-1
 830 615 l 1,15,-1
 880 433 l 1,16,-1
 614 270 l 1,17,18
 626 251 626 251 641 240 c 128,-1,19
 656 229 656 229 674.5 229.5 c 128,-1,20
 693 230 693 230 710 233 c 128,-1,21
 727 236 727 236 751 250.5 c 128,-1,22
 775 265 775 265 791 275 c 128,-1,23
 807 285 807 285 833 307 c 128,-1,24
 859 329 859 329 871.5 340 c 128,-1,25
 884 351 884 351 909 373 c 1,0,-1
EndSplineSet
EndChar

StartChar: Japan1.7922
Encoding: 66135 -1 7924
Width: 1000
GlyphClass: 2
Flags: W
LayerCount: 2
Fore
SplineSet
619 523 m 1,0,-1
 619 514 l 1,1,2
 753 513 753 513 834 454.5 c 128,-1,3
 915 396 915 396 939 305 c 0,4,5
 971 183 971 183 899 29 c 1,6,-1
 702 60 l 1,7,8
 774 188 774 188 756 255 c 0,9,10
 737 325 737 325 619 325 c 1,11,-1
 619 63 l 1,12,13
 504 36 504 36 424 38 c 128,-1,14
 344 40 344 40 294 72 c 128,-1,15
 244 104 244 104 222 149.5 c 128,-1,16
 200 195 200 195 200 254 c 0,17,18
 200 339 200 339 265 398 c 128,-1,19
 330 457 330 457 430 487 c 1,20,-1
 430 501 l 1,21,-1
 290 485 l 1,22,-1
 271 656 l 1,23,-1
 430 674 l 1,24,-1
 430 726 l 1,25,-1
 619 726 l 1,26,-1
 619 696 l 1,27,-1
 675 703 l 1,28,-1
 694 532 l 1,29,-1
 619 523 l 1,0,-1
757 507 m 1,30,-1
 734 678 l 1,31,-1
 919 703 l 1,32,-1
 943 533 l 1,33,-1
 757 507 l 1,30,-1
430 223 m 1,34,-1
 430 284 l 1,35,36
 402 279 402 279 392 264 c 128,-1,37
 382 249 382 249 393.5 236 c 128,-1,38
 405 223 405 223 430 223 c 1,34,-1
EndSplineSet
EndChar

StartChar: Japan1.7923
Encoding: 66136 -1 7925
Width: 1000
GlyphClass: 2
Flags: W
LayerCount: 2
Fore
SplineSet
235 401 m 1,0,-1
 221 638 l 1,1,2
 635 746 635 746 815 627 c 0,3,4
 866 593 866 593 896.5 539 c 128,-1,5
 927 485 927 485 933.5 423 c 128,-1,6
 940 361 940 361 915 294.5 c 128,-1,7
 890 228 890 228 838.5 170 c 128,-1,8
 787 112 787 112 692 64 c 128,-1,9
 597 16 597 16 473 -7 c 1,10,-1
 445 216 l 1,11,12
 640 260 640 260 688 343 c 0,13,14
 715 389 715 389 685 421 c 0,15,16
 680 426 680 426 674 430 c 0,17,18
 648 447 648 447 595 452 c 128,-1,19
 542 457 542 457 447.5 445 c 128,-1,20
 353 433 353 433 235 401 c 1,0,-1
EndSplineSet
EndChar

StartChar: Japan1.7924
Encoding: 66137 -1 7926
Width: 1000
GlyphClass: 2
Flags: W
LayerCount: 2
Fore
SplineSet
758 718 m 1,0,-1
 758 607 l 1,1,2
 837 595 837 595 892.5 545 c 128,-1,3
 948 495 948 495 962 429 c 0,4,5
 983 331 983 331 911.5 236.5 c 128,-1,6
 840 142 840 142 680 97 c 1,7,-1
 656 290 l 1,8,9
 748 323 748 323 764 368 c 0,10,11
 774 401 774 401 738 414 c 0,12,13
 714 422 714 422 678 416 c 2,14,-1
 530 390 l 1,15,-1
 570 43 l 1,16,-1
 362 19 l 1,17,-1
 324 354 l 1,18,-1
 217 336 l 1,19,-1
 217 530 l 1,20,-1
 303 545 l 1,21,-1
 283 718 l 1,22,-1
 493 718 l 1,23,-1
 509 580 l 1,24,-1
 550 588 l 1,25,-1
 550 718 l 1,26,-1
 758 718 l 1,0,-1
EndSplineSet
EndChar

StartChar: Japan1.7925
Encoding: 66138 -1 7927
Width: 1000
GlyphClass: 2
Flags: W
LayerCount: 2
Fore
SplineSet
725 718 m 1,0,-1
 723 663 l 1,1,2
 816 644 816 644 874 590 c 128,-1,3
 932 536 932 536 949 469.5 c 128,-1,4
 966 403 966 403 949 332 c 0,5,6
 906 153 906 153 703 110 c 1,7,-1
 700 31 l 1,8,-1
 502 31 l 1,9,-1
 505 100 l 1,10,-1
 444 100 l 1,11,-1
 444 290 l 1,12,-1
 512 290 l 1,13,-1
 517 441 l 1,14,15
 467 398 467 398 434.5 326 c 128,-1,16
 402 254 402 254 405 211 c 1,17,-1
 207 211 l 1,18,-1
 180 644 l 1,19,-1
 379 644 l 1,20,-1
 384 556 l 1,21,22
 442 628 442 628 525 654 c 1,23,-1
 527 718 l 1,24,-1
 725 718 l 1,0,-1
716 469 m 1,25,-1
 710 312 l 1,26,27
 750 335 750 335 759 375 c 0,28,29
 766 403 766 403 756 430 c 128,-1,30
 746 457 746 457 716 469 c 1,25,-1
EndSplineSet
EndChar

StartChar: Japan1.7926
Encoding: 66139 -1 7928
Width: 1000
GlyphClass: 2
Flags: W
LayerCount: 2
Fore
SplineSet
705 450 m 1,0,-1
 705 372 l 1,1,2
 819 332 819 332 944 244 c 1,3,-1
 872 31 l 1,4,5
 783 102 783 102 671 154 c 1,6,7
 633 95 633 95 569 59 c 128,-1,8
 505 23 505 23 430 23 c 0,9,10
 313 23 313 23 252 110 c 0,11,12
 221 154 221 154 219 207.5 c 128,-1,13
 217 261 217 261 244 307 c 0,14,15
 275 360 275 360 339.5 392.5 c 128,-1,16
 404 425 404 425 490 421 c 1,17,-1
 490 727 l 1,18,-1
 705 727 l 1,19,-1
 705 659 l 1,20,-1
 945 695 l 1,21,-1
 976 490 l 1,22,-1
 705 450 l 1,0,-1
443 205 m 128,-1,24
 452 205 452 205 458.5 211.5 c 128,-1,25
 465 218 465 218 465 227 c 128,-1,26
 465 236 465 236 458.5 242.5 c 128,-1,27
 452 249 452 249 443 249 c 128,-1,28
 434 249 434 249 427.5 242.5 c 128,-1,29
 421 236 421 236 421 227 c 128,-1,30
 421 218 421 218 427.5 211.5 c 128,-1,23
 434 205 434 205 443 205 c 128,-1,24
EndSplineSet
EndChar

StartChar: Japan1.7927
Encoding: 66140 -1 7929
Width: 1000
GlyphClass: 2
Flags: W
LayerCount: 2
Fore
SplineSet
518 711 m 1,0,-1
 518 611 l 1,1,2
 649 676 649 676 765 645 c 0,3,4
 828 628 828 628 873.5 586.5 c 128,-1,5
 919 545 919 545 942 485.5 c 128,-1,6
 965 426 965 426 966 355 c 128,-1,7
 967 284 967 284 939.5 202.5 c 128,-1,8
 912 121 912 121 858 41 c 1,9,-1
 636 79 l 1,10,11
 709 159 709 159 742 245.5 c 128,-1,12
 775 332 775 332 763.5 390.5 c 128,-1,13
 752 449 752 449 704 462 c 0,14,15
 630 483 630 483 518 391 c 1,16,-1
 518 45 l 1,17,-1
 328 45 l 1,18,-1
 328 183 l 1,19,20
 291 132 291 132 284 121 c 1,21,-1
 174 293 l 1,22,23
 186 309 186 309 205.5 330.5 c 128,-1,24
 225 352 225 352 240.5 368 c 128,-1,25
 256 384 256 384 282.5 410.5 c 128,-1,26
 309 437 309 437 321 449 c 1,27,-1
 231 455 l 1,28,-1
 231 628 l 1,29,-1
 328 618 l 1,30,-1
 328 711 l 1,31,-1
 518 711 l 1,0,-1
EndSplineSet
EndChar

StartChar: Japan1.7928
Encoding: 66141 -1 7930
Width: 1000
GlyphClass: 2
Flags: W
LayerCount: 2
Fore
SplineSet
662 507 m 1,0,-1
 223 507 l 1,1,-1
 223 710 l 1,2,-1
 930 710 l 1,3,-1
 805 236 l 1,4,-1
 595 251 l 1,5,-1
 662 507 l 1,0,-1
265 61 m 1,6,-1
 359 399 l 1,7,-1
 579 399 l 1,8,-1
 480 46 l 1,9,-1
 265 61 l 1,6,-1
EndSplineSet
EndChar

StartChar: Japan1.7929
Encoding: 66142 -1 7931
Width: 1000
GlyphClass: 2
Flags: W
LayerCount: 2
Fore
SplineSet
718 436 m 1,0,-1
 718 48 l 1,1,-1
 499 48 l 1,2,-1
 499 384 l 1,3,-1
 228 319 l 1,4,-1
 228 545 l 1,5,-1
 921 710 l 1,6,-1
 938 489 l 1,7,-1
 718 436 l 1,0,-1
EndSplineSet
EndChar

StartChar: Japan1.7930
Encoding: 66143 -1 7932
Width: 1000
GlyphClass: 2
Flags: W
LayerCount: 2
Fore
SplineSet
962 629 m 1,0,-1
 778 51 l 1,1,-1
 548 67 l 1,2,-1
 671 444 l 1,3,-1
 422 444 l 1,4,-1
 422 327 l 1,5,-1
 203 327 l 1,6,-1
 203 629 l 1,7,-1
 451 629 l 1,8,-1
 451 713 l 1,9,-1
 662 713 l 1,10,-1
 662 629 l 1,11,-1
 962 629 l 1,0,-1
EndSplineSet
EndChar

StartChar: Japan1.7931
Encoding: 66144 -1 7933
Width: 1000
GlyphClass: 2
Flags: W
LayerCount: 2
Fore
SplineSet
926 272 m 1,0,-1
 926 70 l 1,1,-1
 241 70 l 1,2,-1
 241 272 l 1,3,-1
 473 272 l 1,4,-1
 473 496 l 1,5,-1
 289 496 l 1,6,-1
 289 699 l 1,7,-1
 890 699 l 1,8,-1
 890 496 l 1,9,-1
 693 496 l 1,10,-1
 693 272 l 1,11,-1
 926 272 l 1,0,-1
EndSplineSet
EndChar

StartChar: Japan1.7932
Encoding: 66145 -1 7934
Width: 1000
GlyphClass: 2
Flags: W
LayerCount: 2
Fore
SplineSet
919 437 m 1,0,-1
 823 437 l 1,1,-1
 823 64 l 1,2,-1
 610 64 l 1,3,-1
 610 437 l 1,4,-1
 560 437 l 1,5,-1
 459 47 l 1,6,-1
 246 64 l 1,7,-1
 342 437 l 1,8,-1
 215 437 l 1,9,-1
 215 638 l 1,10,-1
 610 638 l 1,11,-1
 610 724 l 1,12,-1
 823 724 l 1,13,-1
 823 638 l 1,14,-1
 919 638 l 1,15,-1
 919 437 l 1,0,-1
EndSplineSet
EndChar

StartChar: Japan1.7933
Encoding: 66146 -1 7935
Width: 1000
GlyphClass: 2
Flags: W
LayerCount: 2
Fore
SplineSet
378 382 m 1,0,-1
 176 382 l 1,1,-1
 176 697 l 1,2,-1
 378 697 l 1,3,-1
 378 382 l 1,0,-1
610 382 m 1,4,-1
 407 382 l 1,5,-1
 407 697 l 1,6,-1
 610 697 l 1,7,-1
 610 382 l 1,4,-1
724 57 m 1,8,-1
 971 578 l 1,9,-1
 723 578 l 1,10,-1
 485 75 l 1,11,-1
 724 57 l 1,8,-1
EndSplineSet
EndChar

StartChar: Japan1.7934
Encoding: 66147 -1 7936
Width: 1000
GlyphClass: 2
Flags: W
LayerCount: 2
Fore
SplineSet
967 623 m 1,0,-1
 811 214 l 1,1,-1
 601 230 l 1,2,-1
 680 438 l 1,3,-1
 554 438 l 1,4,-1
 590 64 l 1,5,-1
 369 64 l 1,6,-1
 333 438 l 1,7,-1
 194 438 l 1,8,-1
 194 623 l 1,9,-1
 315 623 l 1,10,-1
 307 700 l 1,11,-1
 527 700 l 1,12,-1
 535 623 l 1,13,-1
 967 623 l 1,0,-1
EndSplineSet
EndChar

StartChar: Japan1.7935
Encoding: 66148 -1 7937
Width: 1000
GlyphClass: 2
Flags: W
LayerCount: 2
Fore
SplineSet
954 266 m 1,0,-1
 954 63 l 1,1,-1
 219 63 l 1,2,-1
 219 266 l 1,3,-1
 582 266 l 1,4,-1
 617 485 l 1,5,-1
 292 485 l 1,6,-1
 292 688 l 1,7,-1
 871 688 l 1,8,-1
 805 266 l 1,9,-1
 954 266 l 1,0,-1
EndSplineSet
EndChar

StartChar: Japan1.7936
Encoding: 66149 -1 7938
Width: 1000
GlyphClass: 2
Flags: W
LayerCount: 2
Fore
SplineSet
904 698 m 1,0,-1
 904 53 l 1,1,-1
 241 53 l 1,2,-1
 241 230 l 1,3,-1
 702 230 l 1,4,-1
 702 288 l 1,5,-1
 254 288 l 1,6,-1
 254 457 l 1,7,-1
 702 457 l 1,8,-1
 702 521 l 1,9,-1
 241 521 l 1,10,-1
 241 698 l 1,11,-1
 904 698 l 1,0,-1
EndSplineSet
EndChar

StartChar: Japan1.7937
Encoding: 66150 -1 7939
Width: 1000
GlyphClass: 2
Flags: W
LayerCount: 2
Fore
SplineSet
980 687 m 1,0,-1
 790 50 l 1,1,-1
 566 67 l 1,2,-1
 696 501 l 1,3,-1
 438 501 l 1,4,-1
 438 344 l 1,5,-1
 219 344 l 1,6,-1
 219 687 l 1,7,-1
 980 687 l 1,0,-1
EndSplineSet
EndChar

StartChar: Japan1.7938
Encoding: 66151 -1 7940
Width: 1000
GlyphClass: 2
Flags: W
LayerCount: 2
Fore
SplineSet
944 596 m 1,0,-1
 834 79 l 1,1,-1
 631 94 l 1,2,-1
 694 393 l 1,3,-1
 567 393 l 1,4,-1
 492 74 l 1,5,-1
 279 89 l 1,6,-1
 351 393 l 1,7,-1
 230 393 l 1,8,-1
 230 596 l 1,9,-1
 399 596 l 1,10,-1
 429 720 l 1,11,-1
 646 720 l 1,12,-1
 615 596 l 1,13,-1
 944 596 l 1,0,-1
EndSplineSet
EndChar

StartChar: Japan1.7939
Encoding: 66152 -1 7941
Width: 1000
GlyphClass: 2
Flags: W
LayerCount: 2
Fore
SplineSet
955 436 m 1,0,-1
 797 436 l 1,1,-1
 652 55 l 1,2,-1
 433 71 l 1,3,-1
 572 436 l 1,4,-1
 460 436 l 1,5,-1
 381 254 l 1,6,-1
 175 268 l 1,7,-1
 168 272 l 1,8,-1
 356 704 l 1,9,-1
 578 704 l 1,10,-1
 541 622 l 1,11,-1
 955 622 l 1,12,-1
 955 436 l 1,0,-1
EndSplineSet
EndChar

StartChar: Japan1.7958
Encoding: 12436 12436 7960
Width: 1000
GlyphClass: 2
Flags: W
LayerCount: 2
Fore
SplineSet
836 692 m 5,0,-1
 736 692 l 5,1,-1
 736 847 l 5,2,-1
 836 847 l 5,3,-1
 836 692 l 5,0,-1
975 692 m 5,4,-1
 875 692 l 5,5,-1
 875 847 l 5,6,-1
 975 847 l 5,7,-1
 975 692 l 5,4,-1
580 826 m 1,8,-1
 616 688 l 1,9,10
 737 674 737 674 825 608.5 c 128,-1,11
 913 543 913 543 935 432 c 0,12,13
 947 371 947 371 931.5 306.5 c 128,-1,14
 916 242 916 242 868.5 179.5 c 128,-1,15
 821 117 821 117 748 66 c 128,-1,16
 675 15 675 15 563.5 -20.5 c 128,-1,17
 452 -56 452 -56 318 -65 c 1,18,-1
 303 171 l 1,19,20
 361 175 361 175 428.5 193 c 128,-1,21
 496 211 496 211 556 238 c 128,-1,22
 616 265 616 265 652.5 305 c 128,-1,23
 689 345 689 345 680 387 c 0,24,25
 673 422 673 422 637.5 439 c 128,-1,26
 602 456 602 456 547.5 454 c 128,-1,27
 493 452 493 452 434.5 443 c 128,-1,28
 376 434 376 434 309 415.5 c 128,-1,29
 242 397 242 397 197 382.5 c 128,-1,30
 152 368 152 368 110 353 c 1,31,-1
 40 580 l 1,32,33
 199 638 199 638 368 669 c 1,34,-1
 339 774 l 1,35,-1
 580 826 l 1,8,-1
EndSplineSet
EndChar

StartChar: Japan1.8313
Encoding: 12535 12535 8315
Width: 1000
GlyphClass: 2
Flags: W
LayerCount: 2
Fore
SplineSet
828 645 m 1,0,-1
 729 645 l 1,1,-1
 729 796 l 1,2,-1
 828 796 l 1,3,-1
 828 645 l 1,0,-1
963 645 m 1,4,-1
 865 645 l 1,5,-1
 865 796 l 1,6,-1
 963 796 l 1,7,-1
 963 645 l 1,4,-1
651 537 m 1,8,-1
 302 537 l 1,9,-1
 302 333 l 1,10,-1
 58 333 l 1,11,-1
 58 744 l 1,12,-1
 697 744 l 5,13,-1
 697 612 l 1,14,-1
 923 612 l 1,15,-1
 722 -40 l 1,16,-1
 468 -21 l 1,17,-1
 651 537 l 1,8,-1
EndSplineSet
EndChar

StartChar: Japan1.8314
Encoding: 12536 12536 8316
Width: 1000
GlyphClass: 2
Flags: W
LayerCount: 2
Fore
SplineSet
828 645 m 1,0,-1
 729 645 l 1,1,-1
 729 796 l 1,2,-1
 828 796 l 1,3,-1
 828 645 l 1,0,-1
963 645 m 1,4,-1
 865 645 l 1,5,-1
 865 796 l 1,6,-1
 963 796 l 1,7,-1
 963 645 l 1,4,-1
940 89 m 1,8,-1
 807 89 l 1,9,-1
 807 -40 l 1,10,-1
 581 -40 l 1,11,-1
 581 89 l 1,12,-1
 60 89 l 1,13,-1
 60 295 l 1,14,-1
 214 295 l 1,15,-1
 214 478 l 1,16,-1
 110 478 l 1,17,-1
 110 683 l 1,18,-1
 581 683 l 1,19,-1
 581 760 l 1,20,-1
 690 760 l 5,21,-1
 690 604 l 1,22,-1
 921 604 l 1,23,-1
 921 478 l 1,24,-1
 807 478 l 1,25,-1
 807 295 l 1,26,-1
 940 295 l 1,27,-1
 940 89 l 1,8,-1
581 295 m 1,28,-1
 581 478 l 1,29,-1
 438 478 l 1,30,-1
 438 295 l 1,31,-1
 581 295 l 1,28,-1
EndSplineSet
EndChar

StartChar: Japan1.8315
Encoding: 12537 12537 8317
Width: 1000
GlyphClass: 2
Flags: W
LayerCount: 2
Fore
SplineSet
828 645 m 1,0,-1
 729 645 l 1,1,-1
 729 796 l 1,2,-1
 828 796 l 1,3,-1
 828 645 l 1,0,-1
963 645 m 1,4,-1
 865 645 l 1,5,-1
 865 796 l 1,6,-1
 963 796 l 1,7,-1
 963 645 l 1,4,-1
632 201 m 1,8,-1
 934 201 l 1,9,-1
 934 -23 l 1,10,-1
 65 -23 l 1,11,-1
 65 201 l 1,12,-1
 388 201 l 1,13,-1
 388 429 l 1,14,-1
 553 429 l 1,15,-1
 590 518 l 1,16,-1
 144 518 l 1,17,-1
 144 742 l 1,18,-1
 688 742 l 1,19,-1
 688 614 l 1,20,-1
 896 614 l 5,21,-1
 793 370 l 1,22,-1
 632 370 l 1,23,-1
 632 201 l 1,8,-1
EndSplineSet
EndChar

StartChar: Japan1.8316
Encoding: 12538 12538 8318
Width: 1000
GlyphClass: 2
Flags: W
LayerCount: 2
Fore
SplineSet
828 645 m 1,0,-1
 729 645 l 1,1,-1
 729 796 l 1,2,-1
 828 796 l 1,3,-1
 828 645 l 1,0,-1
963 645 m 1,4,-1
 865 645 l 1,5,-1
 865 796 l 1,6,-1
 963 796 l 1,7,-1
 963 645 l 1,4,-1
898 611 m 5,8,-1
 555 -44 l 1,9,-1
 295 -23 l 1,10,-1
 423 221 l 1,11,-1
 125 221 l 1,12,-1
 125 423 l 1,13,-1
 532 423 l 1,14,-1
 586 527 l 1,15,-1
 62 527 l 1,16,-1
 62 750 l 1,17,-1
 692 750 l 1,18,-1
 692 611 l 1,19,-1
 898 611 l 5,8,-1
EndSplineSet
EndChar

